<?xml version="1.0" standalone="no"?>
<!DOCTYPE svg PUBLIC "-//W3C//DTD SVG 1.1//EN" "http://www.w3.org/Graphics/SVG/1.1/DTD/svg11.dtd" >
<svg xmlns="http://www.w3.org/2000/svg" xmlns:xlink="http://www.w3.org/1999/xlink" version="1.1">
<metadata>
Created by FontForge 20200114 at Mon Nov  6 13:35:55 2017
 By alexandra
Copyright 2017 The Spectral Project Authors (http://github.com/productiontype/spectral)
</metadata>
<defs>
<font id="Spectral-Italic" horiz-adv-x="500" >
  <font-face 
    font-family="Spectral"
    font-weight="400"
    font-style="italic"
    font-stretch="normal"
    units-per-em="1000"
    panose-1="2 2 5 2 6 0 0 0 0 0"
    ascent="800"
    descent="-200"
    x-height="450"
    cap-height="660"
    bbox="-256 -250 1305 1057"
    underline-thickness="50"
    underline-position="-145"
    slope="-10"
    unicode-range="U+0020-FB06"
  />
<missing-glyph horiz-adv-x="475" 
d="M52 0v750h371v-750h-371zM238 406l142 312h-285zM81 62l142 313l-142 313v-626zM394 62v626l-142 -313zM95 32h285l-142 312z" />
    <glyph glyph-name="uni00660062" unicode="fb" horiz-adv-x="812" 
d="M-77 -240q-23 0 -36 10.5t-13 23.5q0 9 6 21l14 30h6l19 -11q15 -9 41 -9q45 0 70.5 44t36.5 114l62 423h-79v44h85l6 40q3 21 17.5 53t39 68t57 67.5t71 51.5t80.5 20q27 0 49 -5.5t40 -13.5l75 19h3l-72 -415h4q37 58 79.5 91.5t88.5 33.5q40 0 64.5 -34.5t24.5 -103.5
q0 -62 -19.5 -121t-54 -107t-79.5 -76t-96 -28q-26 0 -50 6.5t-42 17.5l-51 -24h-6l117 671q-22 15 -45 22.5t-54 7.5q-72 0 -109.5 -43.5t-48.5 -117.5l-12 -80h113v-44h-119l-57 -385q-3 -19 -16 -51.5t-34.5 -68.5t-49 -68t-59.5 -52.5t-67 -20.5zM626 394q-24 0 -48 -16
t-46 -41.5t-40 -52.5l-35 -202q19 -26 37.5 -39.5t47.5 -13.5q43 0 75.5 37t50.5 95t18 122q0 56 -12.5 83.5t-47.5 27.5z" />
    <glyph glyph-name="uni006600660062" unicode="ffb" horiz-adv-x="1131" 
d="M-77 -240q-23 0 -36 10.5t-13 23.5q0 9 6 21l14 30h6l19 -11q15 -9 41 -9q45 0 70.5 44t36.5 114l62 423h-79v44h85l6 40q3 20 18 52t39 68t54.5 68t64.5 52t69 20q8 0 16 -2.5t12 -4.5q9 -4 9 -12q0 -5 -3 -10t-6 -13l-16 -35h-7l-10 5q-14 7 -36 7q-51 0 -81 -43.5
t-40 -111.5l-12 -80h242l6 40q3 21 17.5 53t39 68t57 67.5t71 51.5t80.5 20q27 0 49 -5.5t40 -13.5l75 19h3l-72 -415h4q38 58 80 91.5t88 33.5q40 0 64.5 -34.5t24.5 -103.5q0 -62 -19.5 -121t-54 -107t-79.5 -76t-96 -28q-26 0 -50 6.5t-42 17.5l-51 -24h-6l117 671
q-22 15 -45 22.5t-54 7.5q-72 0 -109.5 -43.5t-48.5 -117.5l-12 -80h113v-44h-119l-57 -385q-3 -19 -16 -51.5t-34.5 -68.5t-49 -68t-60 -52.5t-66.5 -20.5q-22 0 -35.5 10.5t-13.5 23.5q0 9 6 21l14 30h6l19 -11q15 -9 41 -9q45 0 71 44t36 114l62 423h-242l-57 -385
q-3 -19 -16 -51.5t-34.5 -68.5t-49 -68t-59.5 -52.5t-67 -20.5zM945 394q-24 0 -48 -16t-46 -41.5t-40 -52.5l-35 -202q19 -26 37.5 -39.5t47.5 -13.5q43 0 75.5 37t50.5 95t18 122q0 56 -12.5 83.5t-47.5 27.5z" />
    <glyph glyph-name="uniFB00" unicode="ff" horiz-adv-x="638" 
d="M-77 -240q-23 0 -36 10.5t-13 23.5q0 9 6 21l14 30h6l19 -11q15 -9 41 -9q45 0 70.5 44t36.5 114l62 423h-79v44h85l6 40q3 20 18 52t39 68t54.5 68t64.5 52t69 20q8 0 16 -2.5t12 -4.5q9 -4 9 -12q0 -5 -3 -10t-6 -13l-16 -35h-7l-10 5q-14 7 -36 7q-51 0 -81 -43.5
t-40 -111.5l-12 -80h242l6 40q3 20 18 52t40 67.5t57.5 67.5t70 52.5t77.5 20.5q9 0 18 -3t15 -6q27 -11 24 -28q-2 -9 -7 -18l-16 -30h-7l-23 11q-25 11 -60 11q-53 0 -83 -44t-41 -113l-12 -80h113v-44h-119l-57 -385q-3 -19 -16 -51.5t-34.5 -68.5t-49 -68t-60 -52.5
t-66.5 -20.5q-22 0 -35.5 10.5t-13.5 23.5q0 9 6 21l14 30h6l19 -11q15 -9 41 -9q45 0 71 44t36 114l62 423h-242l-57 -385q-3 -19 -16 -51.5t-34.5 -68.5t-49 -68t-59.5 -52.5t-67 -20.5z" />
    <glyph glyph-name="uni00660068" unicode="fh" horiz-adv-x="836" 
d="M-77 -240q-23 0 -36 10.5t-13 23.5q0 9 6 21l14 30h6l19 -11q15 -9 41 -9q45 0 70.5 44t36.5 114l62 423h-79v44h85l6 40q3 21 17.5 53t39 68t57 67.5t71 51.5t80.5 20q22 0 41.5 -4t35.5 -10l71 13h3l-69 -394h3q49 59 85.5 82t84.5 23q49 0 75.5 -40t14.5 -108
l-35 -193q-5 -30 -1.5 -43t16.5 -13q17 0 37 18.5t38 56.5l13 -6q-29 -75 -62.5 -108.5t-68.5 -33.5t-48 27t-5 72l39 220q5 35 -8.5 62.5t-57.5 27.5q-22 0 -45 -14.5t-45 -35t-38 -38.5l-55 -311h-76l118 670q-19 11 -39 16t-46 5q-72 0 -109.5 -43.5t-48.5 -117.5
l-12 -80h113v-44h-119l-57 -385q-3 -19 -16 -51.5t-34.5 -68.5t-49 -68t-59.5 -52.5t-67 -20.5z" />
    <glyph glyph-name="uni006600660068" unicode="ffh" horiz-adv-x="1155" 
d="M-77 -240q-23 0 -36 10.5t-13 23.5q0 9 6 21l14 30h6l19 -11q15 -9 41 -9q45 0 70.5 44t36.5 114l62 423h-79v44h85l6 40q3 20 18 52t39 68t54.5 68t64.5 52t69 20q8 0 16 -2.5t12 -4.5q9 -4 9 -12q0 -5 -3 -10t-6 -13l-16 -35h-7l-10 5q-14 7 -36 7q-51 0 -81 -43.5
t-40 -111.5l-12 -80h242l6 40q3 21 17.5 53t39 68t57 67.5t71 51.5t80.5 20q22 0 41.5 -4t35.5 -10l71 13h3l-69 -394h3q34 39 60.5 62t52 33t57.5 10q49 0 75.5 -40t14.5 -108l-35 -193q-5 -30 -2 -43t17 -13q17 0 37 18.5t38 56.5l13 -6q-29 -75 -62.5 -108.5t-68.5 -33.5
t-48 27t-5 72l39 220q5 35 -8.5 62.5t-57.5 27.5q-22 0 -45 -14.5t-45 -35t-38 -38.5l-55 -311h-76l118 670q-19 11 -39 16t-46 5q-72 0 -109.5 -43.5t-48.5 -117.5l-12 -80h113v-44h-119l-57 -385q-3 -19 -16 -51.5t-34.5 -68.5t-49 -68t-60 -52.5t-66.5 -20.5
q-22 0 -35.5 10.5t-13.5 23.5q0 9 6 21l14 30h6l19 -11q15 -9 41 -9q45 0 71 44t36 114l62 423h-242l-57 -385q-3 -19 -16 -51.5t-34.5 -68.5t-49 -68t-59.5 -52.5t-67 -20.5z" />
    <glyph glyph-name="uniFB01" unicode="fi" horiz-adv-x="607" 
d="M-77 -240q-23 0 -36 10.5t-13 23.5q0 9 6 21l14 30h6l19 -11q15 -9 41 -9q45 0 70.5 44t36.5 114l62 423h-79v44h85l6 40q5 33 28.5 77t61 86t85 69.5t101.5 27.5q36 0 63.5 -9t46.5 -22q11 -7 17.5 -14.5t6.5 -19.5q0 -9 -5.5 -17.5t-9.5 -13.5l-18 -22h-7l-19 14
q-29 22 -52.5 31.5t-58.5 9.5q-67 0 -107 -43t-50 -114l-12 -80h319l-59 -331q-5 -30 -1.5 -43t16.5 -13q17 0 37 18.5t38 56.5l13 -6q-29 -75 -62.5 -108.5t-68.5 -33.5t-48 27t-5 72l56 317h-241l-57 -385q-3 -19 -16 -51.5t-34.5 -68.5t-49 -68t-59.5 -52.5t-67 -20.5z
" />
    <glyph glyph-name="uniFB03" unicode="ffi" horiz-adv-x="926" 
d="M-77 -240q-23 0 -36 10.5t-13 23.5q0 9 6 21l14 30h6l19 -11q15 -9 41 -9q45 0 70.5 44t36.5 114l62 423h-79v44h85l6 40q3 20 18 52t39 68t54.5 68t64.5 52t69 20q8 0 16 -2.5t12 -4.5q9 -4 9 -12q0 -5 -3 -10t-6 -13l-16 -35h-7l-10 5q-14 7 -36 7q-51 0 -81 -43.5
t-40 -111.5l-12 -80h242l6 40q5 33 28.5 77t61 86t85 69.5t101.5 27.5q36 0 63 -9t47 -22q10 -7 17 -14.5t7 -19.5q0 -9 -5 -17.5t-10 -13.5l-18 -22h-7l-19 14q-29 22 -52.5 31.5t-58.5 9.5q-68 0 -107 -43t-50 -114l-12 -80h319l-59 -331q-5 -30 -2 -43t17 -13
q17 0 37 18.5t38 56.5l13 -6q-29 -75 -62.5 -108.5t-68.5 -33.5t-48 27t-5 72l56 317h-241l-57 -385q-3 -19 -16 -51.5t-34.5 -68.5t-49 -68t-60 -52.5t-66.5 -20.5q-22 0 -35.5 10.5t-13.5 23.5q0 9 6 21l14 30h6l19 -11q15 -9 41 -9q45 0 71 44t36 114l62 423h-242
l-57 -385q-3 -19 -16 -51.5t-34.5 -68.5t-49 -68t-59.5 -52.5t-67 -20.5z" />
    <glyph glyph-name="uni0066006A" unicode="fj" horiz-adv-x="607" 
d="M-77 -240q-23 0 -36 10.5t-13 23.5q0 9 6 21l14 30h6l19 -11q15 -9 41 -9q45 0 70.5 44t36.5 114l62 423h-79v44h85l6 40q5 33 28.5 77t61 86t85 69.5t101.5 27.5q36 0 63.5 -9t46.5 -22q11 -7 17.5 -14.5t6.5 -19.5q0 -9 -5.5 -17.5t-9.5 -13.5l-18 -22h-7l-19 14
q-29 22 -52.5 31.5t-58.5 9.5q-67 0 -107 -43t-50 -114l-12 -80h319l-80 -450q-13 -74 -68 -131.5t-140 -98.5v16q34 22 59.5 48.5t43.5 63.5t27 92l74 416h-241l-57 -385q-3 -19 -16 -51.5t-34.5 -68.5t-49 -68t-59.5 -52.5t-67 -20.5z" />
    <glyph glyph-name="uni00660066006A" unicode="ffj" horiz-adv-x="926" 
d="M-77 -240q-23 0 -36 10.5t-13 23.5q0 9 6 21l14 30h6l19 -11q15 -9 41 -9q45 0 70.5 44t36.5 114l62 423h-79v44h85l6 40q3 20 18 52t39 68t54.5 68t64.5 52t69 20q8 0 16 -2.5t12 -4.5q9 -4 9 -12q0 -5 -3 -10t-6 -13l-16 -35h-7l-10 5q-14 7 -36 7q-51 0 -81 -43.5
t-40 -111.5l-12 -80h242l6 40q5 33 28.5 77t61 86t85 69.5t101.5 27.5q36 0 63 -9t47 -22q10 -7 17 -14.5t7 -19.5q0 -9 -5 -17.5t-10 -13.5l-18 -22h-7l-19 14q-29 22 -52.5 31.5t-58.5 9.5q-68 0 -107 -43t-50 -114l-12 -80h319l-80 -450q-14 -74 -68.5 -131.5
t-139.5 -98.5v16q34 22 59.5 48.5t43 63.5t27.5 92l74 416h-241l-57 -385q-3 -19 -16 -51.5t-34.5 -68.5t-49 -68t-60 -52.5t-66.5 -20.5q-22 0 -35.5 10.5t-13.5 23.5q0 9 6 21l14 30h6l19 -11q15 -9 41 -9q45 0 71 44t36 114l62 423h-242l-57 -385q-3 -19 -16 -51.5
t-34.5 -68.5t-49 -68t-59.5 -52.5t-67 -20.5z" />
    <glyph glyph-name="uni0066006B" unicode="fk" horiz-adv-x="786" 
d="M-77 -240q-23 0 -36 10.5t-13 23.5q0 9 6 21l14 30h6l19 -11q15 -9 41 -9q45 0 70.5 44t36.5 114l62 423h-79v44h85l6 40q3 21 17.5 53t39 68t57 67.5t71 51.5t80.5 20q22 0 41.5 -4t35.5 -10l71 13h3l-132 -749h-76l118 670q-19 11 -39 16t-46 5q-72 0 -109.5 -43.5
t-48.5 -117.5l-12 -80h113v-44h-119l-57 -385q-3 -19 -16 -51.5t-34.5 -68.5t-49 -68t-59.5 -52.5t-67 -20.5zM657 -10q-23 0 -37 12t-25 32t-25 45l-95 173v5q73 77 117 121t71.5 63t49.5 19q12 0 20.5 -2.5t13.5 -6.5q6 -5 10 -12.5t0 -16.5l-17 -42l-5 -4l-19 7
q-5 2 -11.5 3t-19.5 1q-9 0 -21.5 -3.5t-26.5 -15.5l-95 -83l101 -176q15 -25 26 -35.5t24 -10.5q18 0 32.5 18.5t32.5 56.5l13 -6q-31 -76 -55 -109t-59 -33z" />
    <glyph glyph-name="uni00660066006B" unicode="ffk" horiz-adv-x="1105" 
d="M-77 -240q-23 0 -36 10.5t-13 23.5q0 9 6 21l14 30h6l19 -11q15 -9 41 -9q45 0 70.5 44t36.5 114l62 423h-79v44h85l6 40q3 20 18 52t39 68t54.5 68t64.5 52t69 20q8 0 16 -2.5t12 -4.5q9 -4 9 -12q0 -5 -3 -10t-6 -13l-16 -35h-7l-10 5q-14 7 -36 7q-51 0 -81 -43.5
t-40 -111.5l-12 -80h242l6 40q3 21 17.5 53t39 68t57 67.5t71 51.5t80.5 20q22 0 41.5 -4t35.5 -10l71 13h3l-132 -749h-76l118 670q-19 11 -39 16t-46 5q-72 0 -109.5 -43.5t-48.5 -117.5l-12 -80h113v-44h-119l-57 -385q-3 -19 -16 -51.5t-34.5 -68.5t-49 -68t-60 -52.5
t-66.5 -20.5q-22 0 -35.5 10.5t-13.5 23.5q0 9 6 21l14 30h6l19 -11q15 -9 41 -9q45 0 71 44t36 114l62 423h-242l-57 -385q-3 -19 -16 -51.5t-34.5 -68.5t-49 -68t-59.5 -52.5t-67 -20.5zM976 -10q-24 0 -37.5 12t-24.5 32t-25 45l-95 173v5q73 77 117 121t71.5 63t49.5 19
q12 0 20.5 -2.5t13.5 -6.5q6 -5 10 -12.5t0 -16.5l-17 -42l-5 -4l-19 7q-5 2 -11 3t-20 1q-9 0 -21.5 -3.5t-26.5 -15.5l-95 -83l101 -176q15 -25 25.5 -35.5t24.5 -10.5q18 0 32.5 18.5t32.5 56.5l13 -6q-32 -76 -56 -109t-58 -33z" />
    <glyph glyph-name="uniFB02" unicode="fl" horiz-adv-x="577" 
d="M-77 -240q-23 0 -36 10.5t-13 23.5q0 9 6 21l14 30h6l19 -11q15 -9 41 -9q45 0 70.5 44t36.5 114l62 423h-79v44h85l6 40q3 21 17.5 53t39 68t57 67.5t71 51.5t80.5 20q28 0 51 -6t42 -15l57 21h3l-111 -631q-5 -30 -1.5 -43t16.5 -13q17 0 37 18.5t38 56.5l13 -6
q-29 -75 -62.5 -108.5t-68.5 -33.5t-47.5 27t-5.5 72l101 580q-19 11 -39.5 16.5t-46.5 5.5q-72 0 -109.5 -43.5t-48.5 -117.5l-12 -80h113v-44h-119l-57 -385q-3 -19 -16 -51.5t-34.5 -68.5t-49 -68t-59.5 -52.5t-67 -20.5z" />
    <glyph glyph-name="uniFB04" unicode="ffl" horiz-adv-x="896" 
d="M-77 -240q-23 0 -36 10.5t-13 23.5q0 9 6 21l14 30h6l19 -11q15 -9 41 -9q45 0 70.5 44t36.5 114l62 423h-79v44h85l6 40q3 20 18 52t39 68t54.5 68t64.5 52t69 20q8 0 16 -2.5t12 -4.5q9 -4 9 -12q0 -5 -3 -10t-6 -13l-16 -35h-7l-10 5q-14 7 -36 7q-51 0 -81 -43.5
t-40 -111.5l-12 -80h242l6 40q3 21 17.5 53t39 68t57 67.5t71 51.5t80.5 20q28 0 51 -6t42 -15l57 21h3l-111 -631q-5 -30 -2 -43t17 -13q17 0 37 18.5t38 56.5l13 -6q-29 -75 -62.5 -108.5t-68.5 -33.5t-48 27t-5 72l101 580q-19 11 -39.5 16.5t-46.5 5.5
q-72 0 -109.5 -43.5t-48.5 -117.5l-12 -80h113v-44h-119l-57 -385q-3 -19 -16 -51.5t-34.5 -68.5t-49 -68t-60 -52.5t-66.5 -20.5q-22 0 -35.5 10.5t-13.5 23.5q0 9 6 21l14 30h6l19 -11q15 -9 41 -9q45 0 71 44t36 114l62 423h-242l-57 -385q-3 -19 -16 -51.5t-34.5 -68.5
t-49 -68t-59.5 -52.5t-67 -20.5z" />
    <glyph glyph-name="uni00660074" unicode="ft" horiz-adv-x="633" 
d="M-77 -240q-23 0 -36 10.5t-13 23.5q0 9 6 21l14 30h6l19 -11q15 -9 41 -9q45 0 70.5 44t36.5 114l62 423h-79v44h85l6 40q3 20 18 52t40 67.5t57.5 67.5t70 52.5t77.5 20.5q9 0 18 -3t15 -6q27 -11 24 -28q-2 -9 -7 -18l-16 -30h-7l-23 11q-25 11 -60 11q-52 0 -83 -44
t-41 -113l-12 -80h239l86 110h6l-19 -110h125v-44h-133l-45 -254q-8 -48 -1 -67t26 -19q22 0 49 26t49 75l13 -6q-33 -95 -73.5 -133t-83.5 -38q-41 0 -57 32t-6 86l53 298h-234l-57 -385q-3 -19 -16 -51.5t-34.5 -68.5t-49 -68t-59.5 -52.5t-67 -20.5z" />
    <glyph glyph-name="uni006600660074" unicode="fft" horiz-adv-x="952" 
d="M-77 -240q-23 0 -36 10.5t-13 23.5q0 9 6 21l14 30h6l19 -11q15 -9 41 -9q45 0 70.5 44t36.5 114l62 423h-79v44h85l6 40q3 20 18 52t39 68t54.5 68t64.5 52t69 20q8 0 16 -2.5t12 -4.5q9 -4 9 -12q0 -5 -3 -10t-6 -13l-16 -35h-7l-10 5q-14 7 -36 7q-51 0 -81 -43.5
t-40 -111.5l-12 -80h242l6 40q3 20 18 52t40 67.5t57.5 67.5t70 52.5t77.5 20.5q9 0 18 -3t15 -6q27 -11 24 -28q-2 -9 -7 -18l-16 -30h-7l-23 11q-25 11 -60 11q-53 0 -83 -44t-41 -113l-12 -80h239l86 110h6l-19 -110h125v-44h-133l-45 -254q-8 -48 -1 -67t26 -19
q23 0 49.5 26t48.5 75l13 -6q-33 -95 -73.5 -133t-83.5 -38q-41 0 -57 32t-6 86l53 298h-234l-57 -385q-3 -19 -16 -51.5t-34.5 -68.5t-49 -68t-60 -52.5t-66.5 -20.5q-22 0 -35.5 10.5t-13.5 23.5q0 9 6 21l14 30h6l19 -11q15 -9 41 -9q45 0 71 44t36 114l62 423h-242
l-57 -385q-3 -19 -16 -51.5t-34.5 -68.5t-49 -68t-59.5 -52.5t-67 -20.5z" />
    <glyph glyph-name=".notdef" horiz-adv-x="475" 
d="M52 0v750h371v-750h-371zM238 406l142 312h-285zM81 62l142 313l-142 313v-626zM394 62v626l-142 -313zM95 32h285l-142 312z" />
    <glyph glyph-name=".null" horiz-adv-x="0" 
 />
    <glyph glyph-name="CR" horiz-adv-x="250" 
 />
    <glyph glyph-name="uni0020" unicode=" " horiz-adv-x="238" 
 />
    <glyph glyph-name="uni2007" unicode="&#x2007;" 
 />
    <glyph glyph-name="uni2008" unicode="&#x2008;" horiz-adv-x="250" 
 />
    <glyph glyph-name="uni2009" unicode="&#x2009;" horiz-adv-x="125" 
 />
    <glyph glyph-name="uni200A" unicode="&#x200a;" horiz-adv-x="25" 
 />
    <glyph glyph-name="uni200B" unicode="&#x200b;" horiz-adv-x="0" 
 />
    <glyph glyph-name="uni0041" unicode="A" horiz-adv-x="715" 
d="M-15 0l4 16l59 31l353 618h43l131 -613l60 -36l-4 -16h-237l3 16l91 35l-37 187h-237l-107 -190l81 -32l-3 -16h-200zM242 288h199l-52 262z" />
    <glyph glyph-name="uni0042" unicode="B" horiz-adv-x="626" 
d="M10 0l3 16l83 40l96 548l-69 40l3 16h216q100 0 159.5 -35t59.5 -105q0 -53 -39.5 -101t-112.5 -66q78 -13 117.5 -52.5t39.5 -100.5q0 -48 -32 -94t-96 -76t-159 -30h-269zM339 610h-61l-43 -245h64q85 0 127 39.5t42 98.5q0 53 -30 80t-99 27zM314 315h-88l-46 -265
h108q93 0 138.5 41t45.5 109q0 60 -38 87.5t-120 27.5z" />
    <glyph glyph-name="uni0043" unicode="C" horiz-adv-x="669" 
d="M320 -10q-83 0 -141 34.5t-88.5 95t-30.5 139.5q0 85 31 160t84.5 131t123 88t146.5 32q57 0 96.5 -11t87.5 -37l-26 -175h-16l-40 124q-25 26 -50.5 39.5t-63.5 13.5q-68 0 -120 -27t-87.5 -74.5t-54 -108t-18.5 -128.5q0 -118 54.5 -184t139.5 -66q43 0 80 17t66 36
l80 109h16l-38 -159q-31 -15 -63.5 -26t-72.5 -17t-95 -6z" />
    <glyph glyph-name="uni0044" unicode="D" horiz-adv-x="732" 
d="M10 0l3 16l83 40l96 548l-69 40l3 16h221q119 0 193 -34.5t108 -95t34 -138.5q0 -49 -14.5 -102.5t-45 -105t-78 -93t-112.5 -66.5t-150 -25h-272zM333 610h-54l-99 -560h110q99 0 165.5 41t100 115t33.5 174q0 106 -61.5 168t-194.5 62z" />
    <glyph glyph-name="uni0045" unicode="E" horiz-adv-x="621" 
d="M10 0l3 16l83 40l96 548l-69 40l3 16h460l-31 -172h-16l-37 122h-223l-43 -244h161l62 85h16l-39 -219h-16l-31 84h-162l-47 -266h267l80 132h16l-32 -182h-501z" />
    <glyph glyph-name="uni0046" unicode="F" horiz-adv-x="603" 
d="M10 0l3 16l83 40l96 548l-69 40l3 16h455l-30 -172h-16l-38 122h-218l-43 -244h151l62 85h16l-39 -219h-16l-31 84h-152l-46 -260l89 -40l-3 -16h-257z" />
    <glyph glyph-name="uni0047" unicode="G" horiz-adv-x="739" 
d="M320 -10q-83 0 -141 34.5t-88.5 95t-30.5 139.5q0 85 32 160t87 131.5t126 88.5t150 32q41 0 74 -4.5t63 -15t65 -29.5l-26 -165h-16l-40 114q-27 29 -57.5 41t-74.5 12q-71 0 -125 -27t-91 -74.5t-56 -108.5t-19 -129q0 -77 26 -130.5t72.5 -81.5t106.5 -28q31 0 61.5 5
t63.5 19l29 165l-78 40l4 16h235l-3 -16l-73 -43l-27 -157q-50 -38 -118.5 -61t-130.5 -23z" />
    <glyph glyph-name="uni0048" unicode="H" horiz-adv-x="774" 
d="M10 0l3 16l76 40l97 548l-72 40l3 16h238l-3 -16l-81 -40l-42 -239h324l42 239l-72 40l3 16h238l-3 -16l-81 -40l-97 -548l77 -40l-3 -16h-238l3 16l76 40l46 259h-324l-46 -259l77 -40l-3 -16h-238z" />
    <glyph glyph-name="uni0049" unicode="I" horiz-adv-x="365" 
d="M10 0l3 16l76 40l97 548l-72 40l3 16h238l-3 -16l-81 -40l-97 -548l77 -40l-3 -16h-238z" />
    <glyph glyph-name="uni004A" unicode="J" horiz-adv-x="375" 
d="M-34 -173q-14 0 -22.5 9.5t-0.5 33.5l13 39h6q15 -5 24 -7t22 -2q20 0 37 10t31 42t25 99l98 553l-69 40l3 16h237l-3 -16l-82 -40l-65 -364q-20 -112 -52.5 -201.5t-82.5 -137.5q-33 -31 -52 -47t-34 -21.5t-33 -5.5z" />
    <glyph glyph-name="uni004B" unicode="K" horiz-adv-x="700" 
d="M10 0l3 16l83 40l96 548l-69 40l3 16h238l-4 -16l-82 -40l-97 -548l70 -40l-4 -16h-237zM480 0l-248 338l311 272l-62 34l3 16h200l-4 -16l-61 -24l-301 -262l234 -306l61 -36l-3 -16h-130z" />
    <glyph glyph-name="uni004C" unicode="L" horiz-adv-x="598" 
d="M10 0l3 16l83 40l96 548l-69 40l3 16h247l-3 -16l-92 -40l-97 -554h231l93 172h16l-39 -222h-472z" />
    <glyph glyph-name="uni004D" unicode="M" horiz-adv-x="922" 
d="M10 0l3 16l82 40l118 547l-83 41l4 16h178l132 -539l300 539h168l-4 -16l-84 -39l-64 -549l60 -40l-3 -16h-221l3 16l77 39l60 489l-307 -549h-42l-132 549l-101 -489l70 -39l-3 -16h-211z" />
    <glyph glyph-name="uni004E" unicode="N" horiz-adv-x="776" 
d="M10 0l3 16l85 40l96 546l-70 42l3 16h140l278 -498l78 444l-92 38l4 16h236l-3 -16l-84 -39l-107 -610h-37l-298 529l-83 -469l92 -39l-4 -16h-237z" />
    <glyph glyph-name="uni004F" unicode="O" horiz-adv-x="766" 
d="M332 -10q-82 0 -143 37t-95 103t-34 152q0 75 28 145t78.5 125t118.5 87t148 32q83 0 144 -37t95 -103.5t34 -152.5q0 -74 -27.5 -143t-77.5 -124.5t-118.5 -88t-150.5 -32.5zM364 38q56 0 102 26t79.5 72.5t52 106t18.5 127.5q0 76 -26.5 133t-74 89.5t-109.5 32.5
q-74 0 -132 -44.5t-90.5 -120t-32.5 -168.5q0 -75 27 -132.5t74.5 -89.5t111.5 -32z" />
    <glyph glyph-name="uni0050" unicode="P" horiz-adv-x="621" 
d="M10 0l3 16l83 40l96 548l-69 40l3 16h219q111 0 178.5 -39t67.5 -124q0 -53 -34.5 -99.5t-99.5 -75.5t-154 -29h-80l-42 -237l79 -40l-3 -16h-247zM279 610l-47 -267h94q87 0 129 41.5t42 105.5q0 63 -41 91.5t-116 28.5h-61z" />
    <glyph glyph-name="uni0051" unicode="Q" horiz-adv-x="766" 
d="M332 -10q-82 0 -143 37t-95 103t-34 152q0 75 28 145t78.5 125t118.5 87t148 32q83 0 144 -37t95 -103.5t34 -152.5q0 -79 -32 -153.5t-89.5 -131.5t-135.5 -83q58 -51 96.5 -77.5t69.5 -36.5t66 -10q28 0 47 8l-3 -16q-23 -11 -55.5 -19t-67.5 -8q-37 0 -75 10t-84 40
t-106 89h-5zM364 38q56 0 102 26t79.5 72.5t52 106t18.5 127.5q0 76 -26.5 133t-74 89.5t-109.5 32.5q-74 0 -132 -44.5t-90.5 -120t-32.5 -168.5q0 -75 27 -132.5t74.5 -89.5t111.5 -32z" />
    <glyph glyph-name="uni0052" unicode="R" horiz-adv-x="624" 
d="M10 0l3 16l83 40l96 548l-69 40l3 16h204q105 0 165.5 -41t60.5 -111q0 -68 -45.5 -116.5t-112.5 -67.5l129 -272l57 -36l-3 -16h-130l-132 306h-94l-44 -249l65 -41l-3 -16h-233zM325 610h-46l-45 -254h84q46 0 78 19.5t49.5 51t17.5 67.5q0 54 -37 85t-101 31z" />
    <glyph glyph-name="uni0053" unicode="S" horiz-adv-x="489" 
d="M177 -10q-59 0 -98 11.5t-79 34.5l19 164h16l39 -117q27 -27 54.5 -39t56.5 -12q71 0 107 41.5t36 107.5q0 41 -26.5 70t-95.5 67q-56 32 -82 68t-26 85q0 57 31 102t79.5 71t101.5 26q44 0 79 -11t70 -31l-18 -160h-16l-37 116q-17 16 -39.5 29t-57.5 13
q-31 0 -57.5 -16.5t-43 -47t-16.5 -70.5q0 -36 22.5 -62.5t75.5 -56.5q52 -29 82 -54.5t43.5 -54t13.5 -65.5q0 -62 -33 -109t-86.5 -73.5t-114.5 -26.5z" />
    <glyph glyph-name="uni0054" unicode="T" horiz-adv-x="645" 
d="M133 0l4 16l101 40l99 554h-155l-91 -152h-16l35 202h555l-36 -202h-16l-38 152h-152l-99 -554l88 -40l-3 -16h-276z" />
    <glyph glyph-name="uni0055" unicode="U" horiz-adv-x="783" 
d="M342 -10q-96 0 -156 47t-60 149q0 16 2 33.5t5 36.5l61 348l-69 40l3 16h238l-4 -16l-82 -40l-59 -333q-4 -19 -6.5 -39t-2.5 -36q0 -81 41 -117t115 -36q42 0 81 21t68 64t40 108l65 370l-89 38l4 16h236l-3 -16l-82 -39l-61 -349q-17 -96 -56.5 -154.5t-98 -85
t-130.5 -26.5z" />
    <glyph glyph-name="uni0056" unicode="V" horiz-adv-x="700" 
d="M281 -5l-131 614l-60 35l4 16h237l-3 -16l-89 -34l100 -482h6l262 482l-80 34l3 16h200l-4 -16l-59 -32l-343 -617h-43z" />
    <glyph glyph-name="uni0057" unicode="W" horiz-adv-x="947" 
d="M226 -5l-70 611l-66 38l4 16h241l-3 -16l-91 -36l46 -450h7l249 507h35l85 -506h5l197 451l-81 34l3 16h210l-3 -16l-68 -33l-281 -616h-35l-87 499h-7l-254 -499h-36z" />
    <glyph glyph-name="uni0058" unicode="X" horiz-adv-x="702" 
d="M-25 0l4 16l73 35l262 285l-150 275l-54 33l3 16h237l-3 -16l-93 -33l-1 -5l125 -224l200 224v4l-69 34l3 16h205l-3 -16l-61 -32l-251 -273l160 -286l60 -37l-3 -16h-242l3 16l87 34l1 4l-130 238l-214 -238v-4l75 -34l-3 -16h-221z" />
    <glyph glyph-name="uni0059" unicode="Y" horiz-adv-x="679" 
d="M166 0l3 16l92 40l45 251l-158 303l-53 34l4 16h226l-4 -16l-81 -32l-1 -4l132 -251l202 249l1 4l-70 34l4 16h206l-3 -16l-64 -31l-256 -305l-45 -252l79 -40l-3 -16h-256z" />
    <glyph glyph-name="uni005A" unicode="Z" horiz-adv-x="618" 
d="M35 0l6 35l428 575h-239l-84 -132h-16l32 182h421l-6 -35l-430 -575h263l85 142h16l-34 -192h-442z" />
    <glyph glyph-name="uni00C0" unicode="&#xc0;" horiz-adv-x="715" 
d="M-15 0l4 16l59 31l353 618h43l131 -613l60 -36l-4 -16h-237l3 16l91 35l-37 187h-237l-107 -190l81 -32l-3 -16h-200zM242 288h199l-52 262zM425 710l-129 89q-20 14 -21.5 31t0.5 32h70l90 -152h-10z" />
    <glyph glyph-name="uni00C1" unicode="&#xc1;" horiz-adv-x="715" 
d="M-15 0l4 16l59 31l353 618h43l131 -613l60 -36l-4 -16h-237l3 16l91 35l-37 187h-237l-107 -190l81 -32l-3 -16h-200zM242 288h199l-52 262zM425 710l106 152h78q-3 -15 -11 -30.5t-32 -32.5l-131 -89h-10z" />
    <glyph glyph-name="uni00C2" unicode="&#xc2;" horiz-adv-x="715" 
d="M-15 0l4 16l59 31l353 618h43l131 -613l60 -36l-4 -16h-237l3 16l91 35l-37 187h-237l-107 -190l81 -32l-3 -16h-200zM242 288h199l-52 262zM285 710l157 152h28l95 -152h-10l-110 82l-150 -82h-10z" />
    <glyph glyph-name="uni00C3" unicode="&#xc3;" horiz-adv-x="715" 
d="M-15 0l4 16l59 31l353 618h43l131 -613l60 -36l-4 -16h-237l3 16l91 35l-37 187h-237l-107 -190l81 -32l-3 -16h-200zM242 288h199l-52 262zM287 726q25 52 43 76t32.5 31t31.5 7q25 0 44.5 -15t36.5 -29.5t37 -14.5q17 0 31.5 9.5t38.5 49.5h16q-25 -52 -43 -76t-33 -31
t-31 -7q-25 0 -44 15t-36 29.5t-37 14.5q-17 0 -32 -9.5t-39 -49.5h-16z" />
    <glyph glyph-name="uni00C4" unicode="&#xc4;" horiz-adv-x="715" 
d="M-15 0l4 16l59 31l353 618h43l131 -613l60 -36l-4 -16h-237l3 16l91 35l-37 187h-237l-107 -190l81 -32l-3 -16h-200zM242 288h199l-52 262zM359 741q-19 0 -32 13t-13 32t13 32t32 13t32 -13t13 -32t-13 -32t-32 -13zM529 741q-19 0 -32 13t-13 32t13 32t32 13t32 -13
t13 -32t-13 -32t-32 -13z" />
    <glyph glyph-name="uni0100" unicode="&#x100;" horiz-adv-x="715" 
d="M-15 0l4 16l59 31l353 618h43l131 -613l60 -36l-4 -16h-237l3 16l91 35l-37 187h-237l-107 -190l81 -32l-3 -16h-200zM242 288h199l-52 262zM312 767l8 44h253l-9 -44h-252z" />
    <glyph glyph-name="uni0102" unicode="&#x102;" horiz-adv-x="715" 
d="M-15 0l4 16l59 31l353 618h43l131 -613l60 -36l-4 -16h-237l3 16l91 35l-37 187h-237l-107 -190l81 -32l-3 -16h-200zM242 288h199l-52 262zM430 710q-64 0 -87.5 38t-26.5 114h10q7 -42 21.5 -62t36 -26.5t50.5 -6.5t54.5 5.5t49 25.5t46.5 64h10q-47 -152 -164 -152z
" />
    <glyph glyph-name="uni00C5" unicode="&#xc5;" horiz-adv-x="715" 
d="M-15 0l4 16l59 31l353 618h43l131 -613l60 -36l-4 -16h-237l3 16l91 35l-37 187h-237l-107 -190l81 -32l-3 -16h-200zM242 288h199l-52 262zM430 710q-35 0 -51 19t-16 49q0 39 26 68.5t70 29.5q34 0 50.5 -19t16.5 -49q0 -38 -26 -68t-70 -30zM435 732q25 0 38 22t13 53
q0 24 -7 36t-25 12q-23 0 -37.5 -20t-14.5 -54q0 -49 33 -49z" />
    <glyph glyph-name="uni01FA" unicode="&#x1fa;" horiz-adv-x="715" 
d="M-15 0l4 16l59 31l353 618h43l131 -613l60 -36l-4 -16h-237l3 16l91 35l-37 187h-237l-107 -190l81 -32l-3 -16h-200zM242 288h199l-52 262zM430 710q-35 0 -51 19t-16 49q0 39 26 68.5t70 29.5q34 0 50.5 -19t16.5 -49q0 -38 -26 -68t-70 -30zM435 732q25 0 38 22t13 53
q0 24 -7 36t-25 12q-23 0 -37.5 -20t-14.5 -54q0 -49 33 -49zM459 905l106 152h78q-3 -15 -11 -30.5t-32 -32.5l-131 -89h-10z" />
    <glyph glyph-name="uni1EA0" unicode="&#x1ea0;" horiz-adv-x="715" 
d="M-15 0l4 16l59 31l353 618h43l131 -613l60 -36l-4 -16h-237l3 16l91 35l-37 187h-237l-107 -190l81 -32l-3 -16h-200zM242 288h199l-52 262zM258 -209q-23 0 -40 17t-17 40t17 40t40 17t40 -17t17 -40t-17 -40t-40 -17z" />
    <glyph glyph-name="uni0104" unicode="&#x104;" horiz-adv-x="715" 
d="M-15 0l4 16l59 31l353 618h43l131 -613l60 -36l-4 -16h-99q-31 -39 -47.5 -74t-16.5 -66q0 -29 15 -42.5t41 -13.5q10 0 23 3.5t27 12.5h3l-2 -13q-33 -47 -87 -47q-38 0 -59.5 21.5t-21.5 59.5q0 37 25.5 75.5t70.5 83.5h-109l3 16l89 34l-39 188h-233l-107 -190l81 -32
l-3 -16h-200zM242 288h195l-53 254z" />
    <glyph glyph-name="uni0200" unicode="&#x200;" horiz-adv-x="715" 
d="M-15 0l4 16l59 31l353 618h43l131 -613l60 -36l-4 -16h-237l3 16l91 35l-37 187h-237l-107 -190l81 -32l-3 -16h-200zM242 288h199l-52 262zM469 710l-92 96q-16 17 -18.5 29t0.5 27h55l65 -152h-10zM367 710l-113 96q-19 16 -21 29t1 27h55l88 -152h-10z" />
    <glyph glyph-name="uni0202" unicode="&#x202;" horiz-adv-x="715" 
d="M-15 0l4 16l59 31l353 618h43l131 -613l60 -36l-4 -16h-237l3 16l91 35l-37 187h-237l-107 -190l81 -32l-3 -16h-200zM242 288h199l-52 262zM290 710q47 152 164 152q64 0 87.5 -38t26.5 -114h-10q-7 42 -21.5 62t-36 26.5t-50.5 6.5t-54.5 -5.5t-49 -25.5t-46.5 -64h-10
z" />
    <glyph glyph-name="uni1EAE" unicode="&#x1eae;" horiz-adv-x="715" 
d="M-15 0l4 16l59 31l353 618h43l131 -613l60 -36l-4 -16h-237l3 16l91 35l-37 187h-237l-107 -190l81 -32l-3 -16h-200zM242 288h199l-52 262zM430 710q-64 0 -87.5 38t-26.5 114h10q7 -42 21.5 -62t36 -26.5t50.5 -6.5t54.5 5.5t49 25.5t46.5 64h10q-47 -152 -164 -152z
M420 822l106 152h78q-3 -15 -11 -30.5t-32 -32.5l-131 -89h-10z" />
    <glyph glyph-name="uni1EB6" unicode="&#x1eb6;" horiz-adv-x="715" 
d="M-15 0l4 16l59 31l353 618h43l131 -613l60 -36l-4 -16h-237l3 16l91 35l-37 187h-237l-107 -190l81 -32l-3 -16h-200zM242 288h199l-52 262zM430 710q-64 0 -87.5 38t-26.5 114h10q7 -42 21.5 -62t36 -26.5t50.5 -6.5t54.5 5.5t49 25.5t46.5 64h10q-47 -152 -164 -152z
M258 -209q-23 0 -40 17t-17 40t17 40t40 17t40 -17t17 -40t-17 -40t-40 -17z" />
    <glyph glyph-name="uni1EB0" unicode="&#x1eb0;" horiz-adv-x="715" 
d="M-15 0l4 16l59 31l353 618h43l131 -613l60 -36l-4 -16h-237l3 16l91 35l-37 187h-237l-107 -190l81 -32l-3 -16h-200zM242 288h199l-52 262zM430 710q-64 0 -87.5 38t-26.5 114h10q7 -42 21.5 -62t36 -26.5t50.5 -6.5t54.5 5.5t49 25.5t46.5 64h10q-47 -152 -164 -152z
M489 822l-129 89q-20 14 -21.5 31t0.5 32h70l90 -152h-10z" />
    <glyph glyph-name="uni1EB2" unicode="&#x1eb2;" horiz-adv-x="715" 
d="M-15 0l4 16l59 31l353 618h43l131 -613l60 -36l-4 -16h-237l3 16l91 35l-37 187h-237l-107 -190l81 -32l-3 -16h-200zM242 288h199l-52 262zM430 710q-64 0 -87.5 38t-26.5 114h10q7 -42 21.5 -62t36 -26.5t50.5 -6.5t54.5 5.5t49 25.5t46.5 64h10q-47 -152 -164 -152z
M418 825l-5 6v1q38 12 57.5 27.5t19.5 42.5q0 17 -14.5 28.5t-49.5 18.5l18 49q52 -5 72.5 -27t20.5 -48q0 -74 -119 -98z" />
    <glyph glyph-name="uni1EB4" unicode="&#x1eb4;" horiz-adv-x="715" 
d="M-15 0l4 16l59 31l353 618h43l131 -613l60 -36l-4 -16h-237l3 16l91 35l-37 187h-237l-107 -190l81 -32l-3 -16h-200zM242 288h199l-52 262zM314 887q27 56 45.5 82.5t33.5 34t33 7.5t31.5 -10t25 -23.5t24 -23.5t28.5 -10q17 0 32.5 11t41.5 56h16q-27 -56 -45.5 -82.5
t-34 -34t-32.5 -7.5q-18 0 -31.5 10t-25 23.5t-24 23.5t-28.5 10q-17 0 -32.5 -11t-41.5 -56h-16zM430 710q-64 0 -87.5 38t-26.5 114h10q7 -42 21.5 -62t36 -26.5t50.5 -6.5t54.5 5.5t49 25.5t46.5 64h10q-47 -152 -164 -152z" />
    <glyph glyph-name="uni1EA4" unicode="&#x1ea4;" horiz-adv-x="715" 
d="M-15 0l4 16l59 31l353 618h43l131 -613l60 -36l-4 -16h-237l3 16l91 35l-37 187h-237l-107 -190l81 -32l-3 -16h-200zM242 288h199l-52 262zM552 805l64 143h77q-3 -15 -11.5 -29.5t-29.5 -32.5l-92 -81h-8zM285 710l157 152h28l95 -152h-10l-110 82l-150 -82h-10z" />
    <glyph glyph-name="uni1EAC" unicode="&#x1eac;" horiz-adv-x="715" 
d="M-15 0l4 16l59 31l353 618h43l131 -613l60 -36l-4 -16h-237l3 16l91 35l-37 187h-237l-107 -190l81 -32l-3 -16h-200zM242 288h199l-52 262zM285 710l157 152h28l95 -152h-10l-110 82l-150 -82h-10zM258 -209q-23 0 -40 17t-17 40t17 40t40 17t40 -17t17 -40t-17 -40
t-40 -17z" />
    <glyph glyph-name="uni1EA6" unicode="&#x1ea6;" horiz-adv-x="715" 
d="M-15 0l4 16l59 31l353 618h43l131 -613l60 -36l-4 -16h-237l3 16l91 35l-37 187h-237l-107 -190l81 -32l-3 -16h-200zM242 288h199l-52 262zM317 805l-95 80q-18 16 -20.5 32t-0.5 31h67l59 -143h-10zM285 710l157 152h28l95 -152h-10l-110 82l-150 -82h-10z" />
    <glyph glyph-name="uni1EA8" unicode="&#x1ea8;" horiz-adv-x="715" 
d="M-15 0l4 16l59 31l353 618h43l131 -613l60 -36l-4 -16h-237l3 16l91 35l-37 187h-237l-107 -190l81 -32l-3 -16h-200zM242 288h199l-52 262zM424 878l-5 6v1q38 12 57.5 27.5t19.5 42.5q0 17 -14.5 28.5t-49.5 18.5l18 49q52 -5 72.5 -27t20.5 -48q0 -74 -119 -98z
M285 710l157 152h28l95 -152h-10l-110 82l-150 -82h-10z" />
    <glyph glyph-name="uni1EAA" unicode="&#x1eaa;" horiz-adv-x="715" 
d="M-15 0l4 16l59 31l353 618h43l131 -613l60 -36l-4 -16h-237l3 16l91 35l-37 187h-237l-107 -190l81 -32l-3 -16h-200zM242 288h199l-52 262zM285 710l157 152h28l95 -152h-10l-110 82l-150 -82h-10zM322 893q27 56 45.5 82.5t33.5 34t33 7.5t31.5 -10t25 -23.5t24 -23.5
t28.5 -10q17 0 32.5 11t41.5 56h16q-27 -56 -45.5 -82.5t-34 -34t-32.5 -7.5q-18 0 -31.5 10t-25 23.5t-24 23.5t-28.5 10q-17 0 -32.5 -11t-41.5 -56h-16z" />
    <glyph glyph-name="uni1EA2" unicode="&#x1ea2;" horiz-adv-x="715" 
d="M-15 0l4 16l59 31l353 618h43l131 -613l60 -36l-4 -16h-237l3 16l91 35l-37 187h-237l-107 -190l81 -32l-3 -16h-200zM242 288h199l-52 262zM393 702l-5 6v1q38 12 57.5 27.5t19.5 42.5q0 17 -14.5 28.5t-49.5 18.5l18 49q52 -5 72.5 -27t20.5 -48q0 -74 -119 -98z" />
    <glyph glyph-name="uni00C6" unicode="&#xc6;" horiz-adv-x="950" 
d="M-15 0l4 16l63 31l465 613h398l-31 -172h-16l-37 122h-223l-43 -244h161l62 85h16l-39 -219h-16l-31 84h-162l-47 -266h267l80 132h16l-32 -182h-501l3 16l83 40l32 182h-198l-144 -192l73 -30l-3 -16h-200zM296 288h170l51 296z" />
    <glyph glyph-name="uni01FC" unicode="&#x1fc;" horiz-adv-x="950" 
d="M-15 0l4 16l63 31l465 613h398l-31 -172h-16l-37 122h-223l-43 -244h161l62 85h16l-39 -219h-16l-31 84h-162l-47 -266h267l80 132h16l-32 -182h-501l3 16l83 40l32 182h-198l-144 -192l73 -30l-3 -16h-200zM296 288h170l51 296zM589 710l106 152h78q-3 -15 -11 -30.5
t-32 -32.5l-131 -89h-10z" />
    <glyph glyph-name="uni0106" unicode="&#x106;" horiz-adv-x="669" 
d="M320 -10q-83 0 -141 34.5t-88.5 95t-30.5 139.5q0 85 31 160t84.5 131t123 88t146.5 32q57 0 96.5 -11t87.5 -37l-26 -175h-16l-40 124q-25 26 -50.5 39.5t-63.5 13.5q-68 0 -120 -27t-87.5 -74.5t-54 -108t-18.5 -128.5q0 -118 54.5 -184t139.5 -66q43 0 80 17t66 36
l80 109h16l-38 -159q-31 -15 -63.5 -26t-72.5 -17t-95 -6zM451 710l106 152h78q-3 -15 -11 -30.5t-32 -32.5l-131 -89h-10z" />
    <glyph glyph-name="uni0108" unicode="&#x108;" horiz-adv-x="669" 
d="M320 -10q-83 0 -141 34.5t-88.5 95t-30.5 139.5q0 85 31 160t84.5 131t123 88t146.5 32q57 0 96.5 -11t87.5 -37l-26 -175h-16l-40 124q-25 26 -50.5 39.5t-63.5 13.5q-68 0 -120 -27t-87.5 -74.5t-54 -108t-18.5 -128.5q0 -118 54.5 -184t139.5 -66q43 0 80 17t66 36
l80 109h16l-38 -159q-31 -15 -63.5 -26t-72.5 -17t-95 -6zM311 710l157 152h28l95 -152h-10l-110 82l-150 -82h-10z" />
    <glyph glyph-name="uni010C" unicode="&#x10c;" horiz-adv-x="669" 
d="M320 -10q-83 0 -141 34.5t-88.5 95t-30.5 139.5q0 85 31 160t84.5 131t123 88t146.5 32q57 0 96.5 -11t87.5 -37l-26 -175h-16l-40 124q-25 26 -50.5 39.5t-63.5 13.5q-68 0 -120 -27t-87.5 -74.5t-54 -108t-18.5 -128.5q0 -118 54.5 -184t139.5 -66q43 0 80 17t66 36
l80 109h16l-38 -159q-31 -15 -63.5 -26t-72.5 -17t-95 -6zM443 710l-95 152h10l110 -82l150 82h10l-157 -152h-28z" />
    <glyph glyph-name="uni010A" unicode="&#x10a;" horiz-adv-x="669" 
d="M320 -10q-83 0 -141 34.5t-88.5 95t-30.5 139.5q0 85 31 160t84.5 131t123 88t146.5 32q57 0 96.5 -11t87.5 -37l-26 -175h-16l-40 124q-25 26 -50.5 39.5t-63.5 13.5q-68 0 -120 -27t-87.5 -74.5t-54 -108t-18.5 -128.5q0 -118 54.5 -184t139.5 -66q43 0 80 17t66 36
l80 109h16l-38 -159q-31 -15 -63.5 -26t-72.5 -17t-95 -6zM469 729q-23 0 -40 17t-17 40t17 40t40 17t40 -17t17 -40t-17 -40t-40 -17z" />
    <glyph glyph-name="uni00C7" unicode="&#xc7;" horiz-adv-x="669" 
d="M286 -240q-26 0 -47 8t-31 22l2 11h3q13 -6 27 -10t34 -4q64 0 64 48q0 25 -19.5 40t-66.5 30l54 85q-79 3 -133.5 38t-83.5 94.5t-29 136.5q0 85 31 160t84.5 131t123 88t146.5 32q57 0 96.5 -11t87.5 -37l-26 -175h-16l-40 124q-25 26 -50.5 39.5t-63.5 13.5
q-68 0 -120 -27t-87.5 -74.5t-54 -108t-18.5 -128.5q0 -118 54.5 -184t139.5 -66q43 0 80 17t66 36l80 109h16l-38 -159q-45 -21 -92.5 -34.5t-122.5 -14.5l-29 -45q45 -17 64 -39t19 -57q0 -37 -27.5 -63t-76.5 -26z" />
    <glyph glyph-name="uni1E08" unicode="&#x1e08;" horiz-adv-x="669" 
d="M451 710l106 152h78q-3 -15 -11 -30.5t-32 -32.5l-131 -89h-10zM286 -240q-26 0 -47 8t-31 22l2 11h3q13 -6 27 -10t34 -4q64 0 64 48q0 25 -19.5 40t-66.5 30l54 85q-79 3 -133.5 38t-83.5 94.5t-29 136.5q0 85 31 160t84.5 131t123 88t146.5 32q57 0 96.5 -11t87.5 -37
l-26 -175h-16l-40 124q-25 26 -50.5 39.5t-63.5 13.5q-68 0 -120 -27t-87.5 -74.5t-54 -108t-18.5 -128.5q0 -118 54.5 -184t139.5 -66q43 0 80 17t66 36l80 109h16l-38 -159q-45 -21 -92.5 -34.5t-122.5 -14.5l-29 -45q45 -17 64 -39t19 -57q0 -37 -27.5 -63t-76.5 -26z
" />
    <glyph glyph-name="uni010E" unicode="&#x10e;" horiz-adv-x="732" 
d="M10 0l3 16l83 40l96 548l-69 40l3 16h221q119 0 193 -34.5t108 -95t34 -138.5q0 -49 -14.5 -102.5t-45 -105t-78 -93t-112.5 -66.5t-150 -25h-272zM333 610h-54l-99 -560h110q99 0 165.5 41t100 115t33.5 174q0 106 -61.5 168t-194.5 62zM389 710l-95 152h10l110 -82
l150 82h10l-157 -152h-28z" />
    <glyph glyph-name="uni0110" unicode="&#x110;" horiz-adv-x="732" 
d="M10 0l3 16l83 40l47 266h-74l8 41h73l42 241l-69 40l3 16h221q119 0 193 -34.5t108 -95t34 -138.5q0 -49 -14.5 -102.5t-45 -105t-78 -93t-112.5 -66.5t-150 -25h-272zM393 322h-165l-48 -272h110q99 0 165.5 41t100 115t33.5 174q0 106 -61.5 168t-194.5 62h-54
l-44 -247h166z" />
    <glyph glyph-name="uni1E0C" unicode="&#x1e0c;" horiz-adv-x="732" 
d="M10 0l3 16l83 40l96 548l-69 40l3 16h221q119 0 193 -34.5t108 -95t34 -138.5q0 -49 -14.5 -102.5t-45 -105t-78 -93t-112.5 -66.5t-150 -25h-272zM333 610h-54l-99 -560h110q99 0 165.5 41t100 115t33.5 174q0 106 -61.5 168t-194.5 62zM287 -209q-23 0 -40 17t-17 40
t17 40t40 17t40 -17t17 -40t-17 -40t-40 -17z" />
    <glyph glyph-name="uni1E0E" unicode="&#x1e0e;" horiz-adv-x="732" 
d="M10 0l3 16l83 40l96 548l-69 40l3 16h221q119 0 193 -34.5t108 -95t34 -138.5q0 -49 -14.5 -102.5t-45 -105t-78 -93t-112.5 -66.5t-150 -25h-272zM333 610h-54l-99 -560h110q99 0 165.5 41t100 115t33.5 174q0 106 -61.5 168t-194.5 62zM155 -171l8 44h253l-8 -44h-253z
" />
    <glyph glyph-name="uni00C8" unicode="&#xc8;" horiz-adv-x="621" 
d="M10 0l3 16l83 40l96 548l-69 40l3 16h460l-31 -172h-16l-37 122h-223l-43 -244h161l62 85h16l-39 -219h-16l-31 84h-162l-47 -266h267l80 132h16l-32 -182h-501zM394 710l-129 89q-20 14 -21.5 31t0.5 32h70l90 -152h-10z" />
    <glyph glyph-name="uni00C9" unicode="&#xc9;" horiz-adv-x="621" 
d="M10 0l3 16l83 40l96 548l-69 40l3 16h460l-31 -172h-16l-37 122h-223l-43 -244h161l62 85h16l-39 -219h-16l-31 84h-162l-47 -266h267l80 132h16l-32 -182h-501zM394 710l106 152h78q-3 -15 -11 -30.5t-32 -32.5l-131 -89h-10z" />
    <glyph glyph-name="uni00CA" unicode="&#xca;" horiz-adv-x="621" 
d="M10 0l3 16l83 40l96 548l-69 40l3 16h460l-31 -172h-16l-37 122h-223l-43 -244h161l62 85h16l-39 -219h-16l-31 84h-162l-47 -266h267l80 132h16l-32 -182h-501zM254 710l157 152h28l95 -152h-10l-110 82l-150 -82h-10z" />
    <glyph glyph-name="uni011A" unicode="&#x11a;" horiz-adv-x="621" 
d="M10 0l3 16l83 40l96 548l-69 40l3 16h460l-31 -172h-16l-37 122h-223l-43 -244h161l62 85h16l-39 -219h-16l-31 84h-162l-47 -266h267l80 132h16l-32 -182h-501zM386 710l-95 152h10l110 -82l150 82h10l-157 -152h-28z" />
    <glyph glyph-name="uni1EBC" unicode="&#x1ebc;" horiz-adv-x="621" 
d="M10 0l3 16l83 40l96 548l-69 40l3 16h460l-31 -172h-16l-37 122h-223l-43 -244h161l62 85h16l-39 -219h-16l-31 84h-162l-47 -266h267l80 132h16l-32 -182h-501zM256 726q25 52 43 76t32.5 31t31.5 7q25 0 44.5 -15t36.5 -29.5t37 -14.5q17 0 31.5 9.5t38.5 49.5h16
q-25 -52 -43 -76t-33 -31t-31 -7q-25 0 -44 15t-36 29.5t-37 14.5q-17 0 -32 -9.5t-39 -49.5h-16z" />
    <glyph glyph-name="uni00CB" unicode="&#xcb;" horiz-adv-x="621" 
d="M10 0l3 16l83 40l96 548l-69 40l3 16h460l-31 -172h-16l-37 122h-223l-43 -244h161l62 85h16l-39 -219h-16l-31 84h-162l-47 -266h267l80 132h16l-32 -182h-501zM328 741q-19 0 -32 13t-13 32t13 32t32 13t32 -13t13 -32t-13 -32t-32 -13zM498 741q-19 0 -32 13t-13 32
t13 32t32 13t32 -13t13 -32t-13 -32t-32 -13z" />
    <glyph glyph-name="uni0112" unicode="&#x112;" horiz-adv-x="621" 
d="M10 0l3 16l83 40l96 548l-69 40l3 16h460l-31 -172h-16l-37 122h-223l-43 -244h161l62 85h16l-39 -219h-16l-31 84h-162l-47 -266h267l80 132h16l-32 -182h-501zM281 767l8 44h253l-9 -44h-252z" />
    <glyph glyph-name="uni0114" unicode="&#x114;" horiz-adv-x="621" 
d="M10 0l3 16l83 40l96 548l-69 40l3 16h460l-31 -172h-16l-37 122h-223l-43 -244h161l62 85h16l-39 -219h-16l-31 84h-162l-47 -266h267l80 132h16l-32 -182h-501zM399 710q-64 0 -87.5 38t-26.5 114h10q7 -42 21.5 -62t36 -26.5t50.5 -6.5t54.5 5.5t49 25.5t46.5 64h10
q-47 -152 -164 -152z" />
    <glyph glyph-name="uni0116" unicode="&#x116;" horiz-adv-x="621" 
d="M10 0l3 16l83 40l96 548l-69 40l3 16h460l-31 -172h-16l-37 122h-223l-43 -244h161l62 85h16l-39 -219h-16l-31 84h-162l-47 -266h267l80 132h16l-32 -182h-501zM412 729q-23 0 -40 17t-17 40t17 40t40 17t40 -17t17 -40t-17 -40t-40 -17z" />
    <glyph glyph-name="uni0118" unicode="&#x118;" horiz-adv-x="621" 
d="M10 0l3 16l83 40l96 548l-69 40l3 16h460l-31 -172h-16l-37 122h-223l-43 -244h161l62 85h16l-39 -219h-16l-31 84h-162l-47 -266h267l80 132h16l-32 -182h-71q-31 -39 -47.5 -74t-16.5 -66q0 -29 15 -42.5t41 -13.5q10 0 23 3.5t27 12.5h3l-2 -13q-33 -47 -87 -47
q-38 0 -59.5 21.5t-21.5 59.5q0 37 25.5 75.5t70.5 83.5h-401z" />
    <glyph glyph-name="uni1EB8" unicode="&#x1eb8;" horiz-adv-x="621" 
d="M10 0l3 16l83 40l96 548l-69 40l3 16h460l-31 -172h-16l-37 122h-223l-43 -244h161l62 85h16l-39 -219h-16l-31 84h-162l-47 -266h267l80 132h16l-32 -182h-501zM263 -209q-23 0 -40 17t-17 40t17 40t40 17t40 -17t17 -40t-17 -40t-40 -17z" />
    <glyph glyph-name="uni0204" unicode="&#x204;" horiz-adv-x="621" 
d="M10 0l3 16l83 40l96 548l-69 40l3 16h460l-31 -172h-16l-37 122h-223l-43 -244h161l62 85h16l-39 -219h-16l-31 84h-162l-47 -266h267l80 132h16l-32 -182h-501zM438 710l-92 96q-16 17 -18.5 29t0.5 27h55l65 -152h-10zM336 710l-113 96q-19 16 -21 29t1 27h55l88 -152
h-10z" />
    <glyph glyph-name="uni0206" unicode="&#x206;" horiz-adv-x="621" 
d="M10 0l3 16l83 40l96 548l-69 40l3 16h460l-31 -172h-16l-37 122h-223l-43 -244h161l62 85h16l-39 -219h-16l-31 84h-162l-47 -266h267l80 132h16l-32 -182h-501zM259 710q47 152 164 152q64 0 87.5 -38t26.5 -114h-10q-7 42 -21.5 62t-36 26.5t-50.5 6.5t-54.5 -5.5
t-49 -25.5t-46.5 -64h-10z" />
    <glyph glyph-name="uni1EBE" unicode="&#x1ebe;" horiz-adv-x="621" 
d="M10 0l3 16l83 40l96 548l-69 40l3 16h460l-31 -172h-16l-37 122h-223l-43 -244h161l62 85h16l-39 -219h-16l-31 84h-162l-47 -266h267l80 132h16l-32 -182h-501zM521 805l64 143h77q-3 -15 -11.5 -29.5t-29.5 -32.5l-92 -81h-8zM254 710l157 152h28l95 -152h-10l-110 82
l-150 -82h-10z" />
    <glyph glyph-name="uni1EC6" unicode="&#x1ec6;" horiz-adv-x="621" 
d="M10 0l3 16l83 40l96 548l-69 40l3 16h460l-31 -172h-16l-37 122h-223l-43 -244h161l62 85h16l-39 -219h-16l-31 84h-162l-47 -266h267l80 132h16l-32 -182h-501zM254 710l157 152h28l95 -152h-10l-110 82l-150 -82h-10zM263 -209q-23 0 -40 17t-17 40t17 40t40 17t40 -17
t17 -40t-17 -40t-40 -17z" />
    <glyph glyph-name="uni1EC0" unicode="&#x1ec0;" horiz-adv-x="621" 
d="M10 0l3 16l83 40l96 548l-69 40l3 16h460l-31 -172h-16l-37 122h-223l-43 -244h161l62 85h16l-39 -219h-16l-31 84h-162l-47 -266h267l80 132h16l-32 -182h-501zM286 805l-95 80q-18 16 -20.5 32t-0.5 31h67l59 -143h-10zM254 710l157 152h28l95 -152h-10l-110 82
l-150 -82h-10z" />
    <glyph glyph-name="uni1EC2" unicode="&#x1ec2;" horiz-adv-x="621" 
d="M10 0l3 16l83 40l96 548l-69 40l3 16h460l-31 -172h-16l-37 122h-223l-43 -244h161l62 85h16l-39 -219h-16l-31 84h-162l-47 -266h267l80 132h16l-32 -182h-501zM393 878l-5 6v1q38 12 57.5 27.5t19.5 42.5q0 17 -14.5 28.5t-49.5 18.5l18 49q52 -5 72.5 -27t20.5 -48
q0 -74 -119 -98zM254 710l157 152h28l95 -152h-10l-110 82l-150 -82h-10z" />
    <glyph glyph-name="uni1EC4" unicode="&#x1ec4;" horiz-adv-x="621" 
d="M10 0l3 16l83 40l96 548l-69 40l3 16h460l-31 -172h-16l-37 122h-223l-43 -244h161l62 85h16l-39 -219h-16l-31 84h-162l-47 -266h267l80 132h16l-32 -182h-501zM254 710l157 152h28l95 -152h-10l-110 82l-150 -82h-10zM291 893q27 56 45.5 82.5t33.5 34t33 7.5t31.5 -10
t25 -23.5t24 -23.5t28.5 -10q17 0 32.5 11t41.5 56h16q-27 -56 -45.5 -82.5t-34 -34t-32.5 -7.5q-18 0 -31.5 10t-25 23.5t-24 23.5t-28.5 10q-17 0 -32.5 -11t-41.5 -56h-16z" />
    <glyph glyph-name="uni1EBA" unicode="&#x1eba;" horiz-adv-x="621" 
d="M10 0l3 16l83 40l96 548l-69 40l3 16h460l-31 -172h-16l-37 122h-223l-43 -244h161l62 85h16l-39 -219h-16l-31 84h-162l-47 -266h267l80 132h16l-32 -182h-501zM362 702l-5 6v1q38 12 57.5 27.5t19.5 42.5q0 17 -14.5 28.5t-49.5 18.5l18 49q52 -5 72.5 -27t20.5 -48
q0 -74 -119 -98z" />
    <glyph glyph-name="uni1E14" unicode="&#x1e14;" horiz-adv-x="621" 
d="M10 0l3 16l83 40l96 548l-69 40l3 16h460l-31 -172h-16l-37 122h-223l-43 -244h161l62 85h16l-39 -219h-16l-31 84h-162l-47 -266h267l80 132h16l-32 -182h-501zM280 767l8 44h253l-9 -44h-252zM437 862l-129 89q-20 14 -21.5 31t0.5 32h70l90 -152h-10z" />
    <glyph glyph-name="uni1E16" unicode="&#x1e16;" horiz-adv-x="621" 
d="M10 0l3 16l83 40l96 548l-69 40l3 16h460l-31 -172h-16l-37 122h-223l-43 -244h161l62 85h16l-39 -219h-16l-31 84h-162l-47 -266h267l80 132h16l-32 -182h-501zM280 767l8 44h253l-9 -44h-252zM425 862l106 152h78q-3 -15 -11 -30.5t-32 -32.5l-131 -89h-10z" />
    <glyph glyph-name="uni1E1C" unicode="&#x1e1c;" horiz-adv-x="621" 
d="M399 710q-64 0 -87.5 38t-26.5 114h10q7 -42 21.5 -62t36 -26.5t50.5 -6.5t54.5 5.5t49 25.5t46.5 64h10q-47 -152 -164 -152zM10 0l3 16l83 40l96 548l-69 40l3 16h460l-31 -172h-16l-37 122h-223l-43 -244h161l62 85h16l-39 -219h-16l-31 84h-162l-47 -266h267l80 132
h16l-32 -182h-206l-35 -55q45 -17 64 -39t19 -57q0 -37 -27.5 -63t-76.5 -26q-25 0 -46 8t-32 22l2 11h3q13 -6 27 -10t34 -4q64 0 64 48q0 25 -19.5 40t-66.5 30l60 95h-265z" />
    <glyph glyph-name="uni011C" unicode="&#x11c;" horiz-adv-x="739" 
d="M320 -10q-83 0 -141 34.5t-88.5 95t-30.5 139.5q0 85 32 160t87 131.5t126 88.5t150 32q41 0 74 -4.5t63 -15t65 -29.5l-26 -165h-16l-40 114q-27 29 -57.5 41t-74.5 12q-71 0 -125 -27t-91 -74.5t-56 -108.5t-19 -129q0 -77 26 -130.5t72.5 -81.5t106.5 -28q31 0 61.5 5
t63.5 19l29 165l-78 40l4 16h235l-3 -16l-73 -43l-27 -157q-50 -38 -118.5 -61t-130.5 -23zM318 710l157 152h28l95 -152h-10l-110 82l-150 -82h-10z" />
    <glyph glyph-name="uni011E" unicode="&#x11e;" horiz-adv-x="739" 
d="M320 -10q-83 0 -141 34.5t-88.5 95t-30.5 139.5q0 85 32 160t87 131.5t126 88.5t150 32q41 0 74 -4.5t63 -15t65 -29.5l-26 -165h-16l-40 114q-27 29 -57.5 41t-74.5 12q-71 0 -125 -27t-91 -74.5t-56 -108.5t-19 -129q0 -77 26 -130.5t72.5 -81.5t106.5 -28q31 0 61.5 5
t63.5 19l29 165l-78 40l4 16h235l-3 -16l-73 -43l-27 -157q-50 -38 -118.5 -61t-130.5 -23zM463 710q-64 0 -87.5 38t-26.5 114h10q7 -42 21.5 -62t36 -26.5t50.5 -6.5t54.5 5.5t49 25.5t46.5 64h10q-47 -152 -164 -152z" />
    <glyph glyph-name="uni0120" unicode="&#x120;" horiz-adv-x="739" 
d="M320 -10q-83 0 -141 34.5t-88.5 95t-30.5 139.5q0 85 32 160t87 131.5t126 88.5t150 32q41 0 74 -4.5t63 -15t65 -29.5l-26 -165h-16l-40 114q-27 29 -57.5 41t-74.5 12q-71 0 -125 -27t-91 -74.5t-56 -108.5t-19 -129q0 -77 26 -130.5t72.5 -81.5t106.5 -28q31 0 61.5 5
t63.5 19l29 165l-78 40l4 16h235l-3 -16l-73 -43l-27 -157q-50 -38 -118.5 -61t-130.5 -23zM476 729q-23 0 -40 17t-17 40t17 40t40 17t40 -17t17 -40t-17 -40t-40 -17z" />
    <glyph glyph-name="uni0122" unicode="&#x122;" horiz-adv-x="739" 
d="M320 -10q-83 0 -141 34.5t-88.5 95t-30.5 139.5q0 85 32 160t87 131.5t126 88.5t150 32q41 0 74 -4.5t63 -15t65 -29.5l-26 -165h-16l-40 114q-27 29 -57.5 41t-74.5 12q-71 0 -125 -27t-91 -74.5t-56 -108.5t-19 -129q0 -77 26 -130.5t72.5 -81.5t106.5 -28q31 0 61.5 5
t63.5 19l29 165l-78 40l4 16h235l-3 -16l-73 -43l-27 -157q-50 -38 -118.5 -61t-130.5 -23zM491 710q-52 0 -77 21t-25 53q0 44 35 65.5t89 21.5q8 0 18 -0.5t17 -2.5l-3 -11q-7 1 -12 1.5t-11 0.5q-36 0 -56.5 -14t-20.5 -40q0 -25 20 -35.5t63 -10.5l-5 -28q-2 -9 -9 -15
t-23 -6z" />
    <glyph glyph-name="uni01E6" unicode="&#x1e6;" horiz-adv-x="739" 
d="M320 -10q-83 0 -141 34.5t-88.5 95t-30.5 139.5q0 85 32 160t87 131.5t126 88.5t150 32q41 0 74 -4.5t63 -15t65 -29.5l-26 -165h-16l-40 114q-27 29 -57.5 41t-74.5 12q-71 0 -125 -27t-91 -74.5t-56 -108.5t-19 -129q0 -77 26 -130.5t72.5 -81.5t106.5 -28q31 0 61.5 5
t63.5 19l29 165l-78 40l4 16h235l-3 -16l-73 -43l-27 -157q-50 -38 -118.5 -61t-130.5 -23zM450 710l-95 152h10l110 -82l150 82h10l-157 -152h-28z" />
    <glyph glyph-name="uni1E20" unicode="&#x1e20;" horiz-adv-x="739" 
d="M320 -10q-83 0 -141 34.5t-88.5 95t-30.5 139.5q0 85 32 160t87 131.5t126 88.5t150 32q41 0 74 -4.5t63 -15t65 -29.5l-26 -165h-16l-40 114q-27 29 -57.5 41t-74.5 12q-71 0 -125 -27t-91 -74.5t-56 -108.5t-19 -129q0 -77 26 -130.5t72.5 -81.5t106.5 -28q31 0 61.5 5
t63.5 19l29 165l-78 40l4 16h235l-3 -16l-73 -43l-27 -157q-50 -38 -118.5 -61t-130.5 -23zM345 767l8 44h253l-9 -44h-252z" />
    <glyph glyph-name="uni0124" unicode="&#x124;" horiz-adv-x="774" 
d="M10 0l3 16l76 40l97 548l-72 40l3 16h238l-3 -16l-81 -40l-42 -239h324l42 239l-72 40l3 16h238l-3 -16l-81 -40l-97 -548l77 -40l-3 -16h-238l3 16l76 40l46 259h-324l-46 -259l77 -40l-3 -16h-238zM311 710l157 152h28l95 -152h-10l-110 82l-150 -82h-10z" />
    <glyph glyph-name="uni0126" unicode="&#x126;" horiz-adv-x="774" 
d="M10 0l3 16l76 40l74 420h-73l8 41h73l15 87l-72 40l3 16h238l-3 -16l-81 -40l-15 -87h324l15 87l-72 40l3 16h238l-3 -16l-81 -40l-15 -87h75l-8 -41h-75l-74 -420l77 -40l-3 -16h-238l3 16l76 40l46 259h-324l-46 -259l77 -40l-3 -16h-238zM229 365h324l19 111h-324z
" />
    <glyph glyph-name="uni1E24" unicode="&#x1e24;" horiz-adv-x="774" 
d="M10 0l3 16l76 40l97 548l-72 40l3 16h238l-3 -16l-81 -40l-42 -239h324l42 239l-72 40l3 16h238l-3 -16l-81 -40l-97 -548l77 -40l-3 -16h-238l3 16l76 40l46 259h-324l-46 -259l77 -40l-3 -16h-238zM306 -209q-23 0 -40 17t-17 40t17 40t40 17t40 -17t17 -40t-17 -40
t-40 -17z" />
    <glyph glyph-name="uni1E2A" unicode="&#x1e2a;" horiz-adv-x="774" 
d="M10 0l3 16l76 40l97 548l-72 40l3 16h238l-3 -16l-81 -40l-42 -239h324l42 239l-72 40l3 16h238l-3 -16l-81 -40l-97 -548l77 -40l-3 -16h-238l3 16l76 40l46 259h-324l-46 -259l77 -40l-3 -16h-238zM294 -240q-64 0 -87.5 41.5t-26.5 125.5h10q8 -49 22.5 -72.5
t36 -30.5t49.5 -7q29 0 53.5 6.5t47.5 30t49 73.5h10q-26 -84 -65.5 -125.5t-98.5 -41.5z" />
    <glyph glyph-name="uni00CC" unicode="&#xcc;" horiz-adv-x="365" 
d="M10 0l3 16l76 40l97 548l-72 40l3 16h238l-3 -16l-81 -40l-97 -548l77 -40l-3 -16h-238zM241 710l-129 89q-20 14 -21.5 31t0.5 32h70l90 -152h-10z" />
    <glyph glyph-name="uni00CD" unicode="&#xcd;" horiz-adv-x="365" 
d="M10 0l3 16l76 40l97 548l-72 40l3 16h238l-3 -16l-81 -40l-97 -548l77 -40l-3 -16h-238zM241 710l106 152h78q-3 -15 -11 -30.5t-32 -32.5l-131 -89h-10z" />
    <glyph glyph-name="uni00CE" unicode="&#xce;" horiz-adv-x="365" 
d="M10 0l3 16l76 40l97 548l-72 40l3 16h238l-3 -16l-81 -40l-97 -548l77 -40l-3 -16h-238zM101 710l157 152h28l95 -152h-10l-110 82l-150 -82h-10z" />
    <glyph glyph-name="uni0128" unicode="&#x128;" horiz-adv-x="365" 
d="M10 0l3 16l76 40l97 548l-72 40l3 16h238l-3 -16l-81 -40l-97 -548l77 -40l-3 -16h-238zM103 726q25 52 43 76t32.5 31t31.5 7q25 0 44.5 -15t36.5 -29.5t37 -14.5q17 0 31.5 9.5t38.5 49.5h16q-25 -52 -43 -76t-33 -31t-31 -7q-25 0 -44 15t-36 29.5t-37 14.5
q-17 0 -32 -9.5t-39 -49.5h-16z" />
    <glyph glyph-name="uni00CF" unicode="&#xcf;" horiz-adv-x="365" 
d="M10 0l3 16l76 40l97 548l-72 40l3 16h238l-3 -16l-81 -40l-97 -548l77 -40l-3 -16h-238zM175 741q-19 0 -32 13t-13 32t13 32t32 13t32 -13t13 -32t-13 -32t-32 -13zM345 741q-19 0 -32 13t-13 32t13 32t32 13t32 -13t13 -32t-13 -32t-32 -13z" />
    <glyph glyph-name="uni012A" unicode="&#x12a;" horiz-adv-x="365" 
d="M10 0l3 16l76 40l97 548l-72 40l3 16h238l-3 -16l-81 -40l-97 -548l77 -40l-3 -16h-238zM128 767l8 44h253l-9 -44h-252z" />
    <glyph glyph-name="uni012C" unicode="&#x12c;" horiz-adv-x="365" 
d="M10 0l3 16l76 40l97 548l-72 40l3 16h238l-3 -16l-81 -40l-97 -548l77 -40l-3 -16h-238zM246 710q-64 0 -87.5 38t-26.5 114h10q7 -42 21.5 -62t36 -26.5t50.5 -6.5t54.5 5.5t49 25.5t46.5 64h10q-47 -152 -164 -152z" />
    <glyph glyph-name="uni0130" unicode="&#x130;" horiz-adv-x="365" 
d="M10 0l3 16l76 40l97 548l-72 40l3 16h238l-3 -16l-81 -40l-97 -548l77 -40l-3 -16h-238zM259 729q-23 0 -40 17t-17 40t17 40t40 17t40 -17t17 -40t-17 -40t-40 -17z" />
    <glyph glyph-name="uni012E" unicode="&#x12e;" horiz-adv-x="365" 
d="M10 0l3 16l76 40l97 548l-72 40l3 16h238l-3 -16l-81 -40l-97 -548l77 -40l-3 -16h-107q-31 -39 -47.5 -74t-16.5 -66q0 -29 15 -42.5t41 -13.5q11 0 24 3.5t26 12.5h3l-2 -13q-33 -47 -87 -47q-37 0 -59 21.5t-22 59.5q0 37 25.5 75.5t70.5 83.5h-102z" />
    <glyph glyph-name="uni1ECA" unicode="&#x1eca;" horiz-adv-x="365" 
d="M10 0l3 16l76 40l97 548l-72 40l3 16h238l-3 -16l-81 -40l-97 -548l77 -40l-3 -16h-238zM95 -209q-23 0 -40 17t-17 40t17 40t40 17t40 -17t17 -40t-17 -40t-40 -17z" />
    <glyph glyph-name="uni0208" unicode="&#x208;" horiz-adv-x="365" 
d="M10 0l3 16l76 40l97 548l-72 40l3 16h238l-3 -16l-81 -40l-97 -548l77 -40l-3 -16h-238zM285 710l-92 96q-16 17 -18.5 29t0.5 27h55l65 -152h-10zM183 710l-113 96q-19 16 -21 29t1 27h55l88 -152h-10z" />
    <glyph glyph-name="uni020A" unicode="&#x20a;" horiz-adv-x="365" 
d="M10 0l3 16l76 40l97 548l-72 40l3 16h238l-3 -16l-81 -40l-97 -548l77 -40l-3 -16h-238zM106 710q47 152 164 152q64 0 87.5 -38t26.5 -114h-10q-7 42 -21.5 62t-36 26.5t-50.5 6.5t-54.5 -5.5t-49 -25.5t-46.5 -64h-10z" />
    <glyph glyph-name="uni1EC8" unicode="&#x1ec8;" horiz-adv-x="365" 
d="M10 0l3 16l76 40l97 548l-72 40l3 16h238l-3 -16l-81 -40l-97 -548l77 -40l-3 -16h-238zM209 702l-5 6v1q38 12 57.5 27.5t19.5 42.5q0 17 -14.5 28.5t-49.5 18.5l18 49q52 -5 72.5 -27t20.5 -48q0 -74 -119 -98z" />
    <glyph glyph-name="uni1E2E" unicode="&#x1e2e;" horiz-adv-x="365" 
d="M10 0l3 16l76 40l97 548l-72 40l3 16h238l-3 -16l-81 -40l-97 -548l77 -40l-3 -16h-238zM175 741q-19 0 -32 13t-13 32t13 32t32 13t32 -13t13 -32t-13 -32t-32 -13zM345 741q-19 0 -32 13t-13 32t13 32t32 13t32 -13t13 -32t-13 -32t-32 -13zM271 862l106 152h78
q-3 -15 -11 -30.5t-32 -32.5l-131 -89h-10z" />
    <glyph glyph-name="uni0132" unicode="&#x132;" horiz-adv-x="740" 
d="M10 0l3 16l76 40l97 548l-72 40l3 16h238l-3 -16l-81 -40l-97 -548l77 -40l-3 -16h-238zM331 -173q-14 0 -22.5 9.5t-0.5 33.5l13 39h6q15 -5 24 -7t22 -2q20 0 37 10t31 42t25 99l98 553l-69 40l3 16h237l-3 -16l-82 -40l-65 -364q-20 -112 -52.5 -201.5t-82.5 -137.5
q-33 -31 -52 -47t-34 -21.5t-33 -5.5z" />
    <glyph glyph-name="Jacute" horiz-adv-x="375" 
d="M-34 -173q-14 0 -22.5 9.5t-0.5 33.5l13 39h6q15 -5 24 -7t22 -2q20 0 37 10t31 42t25 99l98 553l-69 40l3 16h237l-3 -16l-82 -40l-65 -364q-20 -112 -52.5 -201.5t-82.5 -137.5q-33 -31 -52 -47t-34 -21.5t-33 -5.5zM256 710l106 152h78q-3 -15 -11 -30.5t-32 -32.5
l-131 -89h-10z" />
    <glyph glyph-name="uni0134" unicode="&#x134;" horiz-adv-x="375" 
d="M-34 -173q-14 0 -22.5 9.5t-0.5 33.5l13 39h6q15 -5 24 -7t22 -2q20 0 37 10t31 42t25 99l98 553l-69 40l3 16h237l-3 -16l-82 -40l-65 -364q-20 -112 -52.5 -201.5t-82.5 -137.5q-33 -31 -52 -47t-34 -21.5t-33 -5.5zM116 710l157 152h28l95 -152h-10l-110 82l-150 -82
h-10z" />
    <glyph glyph-name="uni0136" unicode="&#x136;" horiz-adv-x="700" 
d="M10 0l3 16l83 40l96 548l-69 40l3 16h238l-4 -16l-82 -40l-97 -548l70 -40l-4 -16h-237zM480 0l-248 338l311 272l-62 34l3 16h200l-4 -16l-61 -24l-301 -262l234 -306l61 -36l-3 -16h-130zM246 -239q-8 0 -17.5 0.5t-17.5 2.5l3 11q7 -1 12 -1.5t11 -0.5q36 0 56.5 14
t20.5 40q0 25 -20 35.5t-63 10.5l5 28q1 9 8 15t24 6q52 0 77 -21t25 -53q0 -44 -35 -65.5t-89 -21.5z" />
    <glyph glyph-name="uni0139" unicode="&#x139;" horiz-adv-x="598" 
d="M10 0l3 16l83 40l96 548l-69 40l3 16h247l-3 -16l-92 -40l-97 -554h231l93 172h16l-39 -222h-472zM249 710l106 152h78q-3 -15 -11 -30.5t-32 -32.5l-131 -89h-10z" />
    <glyph glyph-name="uni013D" unicode="&#x13d;" horiz-adv-x="598" 
d="M10 0l3 16l83 40l96 548l-69 40l3 16h247l-3 -16l-92 -40l-97 -554h231l93 172h16l-39 -222h-472zM406 473l57 187h73q2 -15 -1.5 -31.5t-19.5 -35.5l-99 -120h-10z" />
    <glyph glyph-name="uni013B" unicode="&#x13b;" horiz-adv-x="598" 
d="M10 0l3 16l83 40l96 548l-69 40l3 16h247l-3 -16l-92 -40l-97 -554h231l93 172h16l-39 -222h-472zM189 -239q-8 0 -17.5 0.5t-17.5 2.5l3 11q7 -1 12 -1.5t11 -0.5q36 0 56.5 14t20.5 40q0 25 -20 35.5t-63 10.5l5 28q1 9 8 15t24 6q52 0 77 -21t25 -53q0 -44 -35 -65.5
t-89 -21.5z" />
    <glyph glyph-name="uni0141" unicode="&#x141;" horiz-adv-x="598" 
d="M10 0l3 16l83 40l36 206l-86 -51l10 55l86 50l50 288l-69 40l3 16h247l-3 -16l-92 -40l-42 -240l164 96l-12 -55l-161 -94l-46 -261h231l93 172h16l-39 -222h-472z" />
    <glyph glyph-name="uni013F" unicode="&#x13f;" horiz-adv-x="598" 
d="M10 0l3 16l83 40l96 548l-69 40l3 16h247l-3 -16l-92 -40l-97 -554h231l93 172h16l-39 -222h-472zM489 290q-23 0 -40 17t-17 40t17 40t40 17t40 -17t17 -40t-17 -40t-40 -17z" />
    <glyph glyph-name="uni1E36" unicode="&#x1e36;" horiz-adv-x="598" 
d="M10 0l3 16l83 40l96 548l-69 40l3 16h247l-3 -16l-92 -40l-97 -554h231l93 172h16l-39 -222h-472zM237 -209q-23 0 -40 17t-17 40t17 40t40 17t40 -17t17 -40t-17 -40t-40 -17z" />
    <glyph glyph-name="uni1E3A" unicode="&#x1e3a;" horiz-adv-x="598" 
d="M10 0l3 16l83 40l96 548l-69 40l3 16h247l-3 -16l-92 -40l-97 -554h231l93 172h16l-39 -222h-472zM105 -171l8 44h253l-8 -44h-253z" />
    <glyph glyph-name="uni1E42" unicode="&#x1e42;" horiz-adv-x="922" 
d="M10 0l3 16l82 40l118 547l-83 41l4 16h178l132 -539l300 539h168l-4 -16l-84 -39l-64 -549l60 -40l-3 -16h-221l3 16l77 39l60 489l-307 -549h-42l-132 549l-101 -489l70 -39l-3 -16h-211zM383 -209q-23 0 -40 17t-17 40t17 40t40 17t40 -17t17 -40t-17 -40t-40 -17z" />
    <glyph glyph-name="uni0143" unicode="&#x143;" horiz-adv-x="776" 
d="M10 0l3 16l85 40l96 546l-70 42l3 16h140l278 -498l78 444l-92 38l4 16h236l-3 -16l-84 -39l-107 -610h-37l-298 529l-83 -469l92 -39l-4 -16h-237zM470 710l106 152h78q-3 -15 -11 -30.5t-32 -32.5l-131 -89h-10z" />
    <glyph glyph-name="uni0147" unicode="&#x147;" horiz-adv-x="776" 
d="M10 0l3 16l85 40l96 546l-70 42l3 16h140l278 -498l78 444l-92 38l4 16h236l-3 -16l-84 -39l-107 -610h-37l-298 529l-83 -469l92 -39l-4 -16h-237zM462 710l-95 152h10l110 -82l150 82h10l-157 -152h-28z" />
    <glyph glyph-name="uni00D1" unicode="&#xd1;" horiz-adv-x="776" 
d="M10 0l3 16l85 40l96 546l-70 42l3 16h140l278 -498l78 444l-92 38l4 16h236l-3 -16l-84 -39l-107 -610h-37l-298 529l-83 -469l92 -39l-4 -16h-237zM332 726q25 52 43 76t32.5 31t31.5 7q25 0 44.5 -15t36.5 -29.5t37 -14.5q17 0 31.5 9.5t38.5 49.5h16q-25 -52 -43 -76
t-33 -31t-31 -7q-25 0 -44 15t-36 29.5t-37 14.5q-17 0 -32 -9.5t-39 -49.5h-16z" />
    <glyph glyph-name="uni0145" unicode="&#x145;" horiz-adv-x="776" 
d="M10 0l3 16l85 40l96 546l-70 42l3 16h140l278 -498l78 444l-92 38l4 16h236l-3 -16l-84 -39l-107 -610h-37l-298 529l-83 -469l92 -39l-4 -16h-237zM279 -239q-8 0 -17.5 0.5t-17.5 2.5l3 11q7 -1 12 -1.5t11 -0.5q36 0 56.5 14t20.5 40q0 25 -20 35.5t-63 10.5l5 28
q1 9 8 15t24 6q52 0 77 -21t25 -53q0 -44 -35 -65.5t-89 -21.5z" />
    <glyph glyph-name="uni1E44" unicode="&#x1e44;" horiz-adv-x="776" 
d="M10 0l3 16l85 40l96 546l-70 42l3 16h140l278 -498l78 444l-92 38l4 16h236l-3 -16l-84 -39l-107 -610h-37l-298 529l-83 -469l92 -39l-4 -16h-237zM488 729q-23 0 -40 17t-17 40t17 40t40 17t40 -17t17 -40t-17 -40t-40 -17z" />
    <glyph glyph-name="uni1E46" unicode="&#x1e46;" horiz-adv-x="776" 
d="M10 0l3 16l85 40l96 546l-70 42l3 16h140l278 -498l78 444l-92 38l4 16h236l-3 -16l-84 -39l-107 -610h-37l-298 529l-83 -469l92 -39l-4 -16h-237zM327 -209q-23 0 -40 17t-17 40t17 40t40 17t40 -17t17 -40t-17 -40t-40 -17z" />
    <glyph glyph-name="uni1E48" unicode="&#x1e48;" horiz-adv-x="776" 
d="M10 0l3 16l85 40l96 546l-70 42l3 16h140l278 -498l78 444l-92 38l4 16h236l-3 -16l-84 -39l-107 -610h-37l-298 529l-83 -469l92 -39l-4 -16h-237zM195 -171l8 44h253l-8 -44h-253z" />
    <glyph glyph-name="uni00D2" unicode="&#xd2;" horiz-adv-x="766" 
d="M332 -10q-82 0 -143 37t-95 103t-34 152q0 75 28 145t78.5 125t118.5 87t148 32q83 0 144 -37t95 -103.5t34 -152.5q0 -74 -27.5 -143t-77.5 -124.5t-118.5 -88t-150.5 -32.5zM364 38q56 0 102 26t79.5 72.5t52 106t18.5 127.5q0 76 -26.5 133t-74 89.5t-109.5 32.5
q-74 0 -132 -44.5t-90.5 -120t-32.5 -168.5q0 -75 27 -132.5t74.5 -89.5t111.5 -32zM445 710l-129 89q-20 14 -21.5 31t0.5 32h70l90 -152h-10z" />
    <glyph glyph-name="uni00D3" unicode="&#xd3;" horiz-adv-x="766" 
d="M332 -10q-82 0 -143 37t-95 103t-34 152q0 75 28 145t78.5 125t118.5 87t148 32q83 0 144 -37t95 -103.5t34 -152.5q0 -74 -27.5 -143t-77.5 -124.5t-118.5 -88t-150.5 -32.5zM364 38q56 0 102 26t79.5 72.5t52 106t18.5 127.5q0 76 -26.5 133t-74 89.5t-109.5 32.5
q-74 0 -132 -44.5t-90.5 -120t-32.5 -168.5q0 -75 27 -132.5t74.5 -89.5t111.5 -32zM445 710l106 152h78q-3 -15 -11 -30.5t-32 -32.5l-131 -89h-10z" />
    <glyph glyph-name="uni00D4" unicode="&#xd4;" horiz-adv-x="766" 
d="M332 -10q-82 0 -143 37t-95 103t-34 152q0 75 28 145t78.5 125t118.5 87t148 32q83 0 144 -37t95 -103.5t34 -152.5q0 -74 -27.5 -143t-77.5 -124.5t-118.5 -88t-150.5 -32.5zM364 38q56 0 102 26t79.5 72.5t52 106t18.5 127.5q0 76 -26.5 133t-74 89.5t-109.5 32.5
q-74 0 -132 -44.5t-90.5 -120t-32.5 -168.5q0 -75 27 -132.5t74.5 -89.5t111.5 -32zM305 710l157 152h28l95 -152h-10l-110 82l-150 -82h-10z" />
    <glyph glyph-name="uni00D5" unicode="&#xd5;" horiz-adv-x="766" 
d="M332 -10q-82 0 -143 37t-95 103t-34 152q0 75 28 145t78.5 125t118.5 87t148 32q83 0 144 -37t95 -103.5t34 -152.5q0 -74 -27.5 -143t-77.5 -124.5t-118.5 -88t-150.5 -32.5zM364 38q56 0 102 26t79.5 72.5t52 106t18.5 127.5q0 76 -26.5 133t-74 89.5t-109.5 32.5
q-74 0 -132 -44.5t-90.5 -120t-32.5 -168.5q0 -75 27 -132.5t74.5 -89.5t111.5 -32zM307 726q25 52 43 76t32.5 31t31.5 7q25 0 44.5 -15t36.5 -29.5t37 -14.5q17 0 31.5 9.5t38.5 49.5h16q-25 -52 -43 -76t-33 -31t-31 -7q-25 0 -44 15t-36 29.5t-37 14.5q-17 0 -32 -9.5
t-39 -49.5h-16z" />
    <glyph glyph-name="uni00D6" unicode="&#xd6;" horiz-adv-x="766" 
d="M332 -10q-82 0 -143 37t-95 103t-34 152q0 75 28 145t78.5 125t118.5 87t148 32q83 0 144 -37t95 -103.5t34 -152.5q0 -74 -27.5 -143t-77.5 -124.5t-118.5 -88t-150.5 -32.5zM364 38q56 0 102 26t79.5 72.5t52 106t18.5 127.5q0 76 -26.5 133t-74 89.5t-109.5 32.5
q-74 0 -132 -44.5t-90.5 -120t-32.5 -168.5q0 -75 27 -132.5t74.5 -89.5t111.5 -32zM379 741q-19 0 -32 13t-13 32t13 32t32 13t32 -13t13 -32t-13 -32t-32 -13zM549 741q-19 0 -32 13t-13 32t13 32t32 13t32 -13t13 -32t-13 -32t-32 -13z" />
    <glyph glyph-name="uni014C" unicode="&#x14c;" horiz-adv-x="766" 
d="M332 -10q-82 0 -143 37t-95 103t-34 152q0 75 28 145t78.5 125t118.5 87t148 32q83 0 144 -37t95 -103.5t34 -152.5q0 -74 -27.5 -143t-77.5 -124.5t-118.5 -88t-150.5 -32.5zM364 38q56 0 102 26t79.5 72.5t52 106t18.5 127.5q0 76 -26.5 133t-74 89.5t-109.5 32.5
q-74 0 -132 -44.5t-90.5 -120t-32.5 -168.5q0 -75 27 -132.5t74.5 -89.5t111.5 -32zM332 767l8 44h253l-9 -44h-252z" />
    <glyph glyph-name="uni014E" unicode="&#x14e;" horiz-adv-x="766" 
d="M332 -10q-82 0 -143 37t-95 103t-34 152q0 75 28 145t78.5 125t118.5 87t148 32q83 0 144 -37t95 -103.5t34 -152.5q0 -74 -27.5 -143t-77.5 -124.5t-118.5 -88t-150.5 -32.5zM364 38q56 0 102 26t79.5 72.5t52 106t18.5 127.5q0 76 -26.5 133t-74 89.5t-109.5 32.5
q-74 0 -132 -44.5t-90.5 -120t-32.5 -168.5q0 -75 27 -132.5t74.5 -89.5t111.5 -32zM450 710q-64 0 -87.5 38t-26.5 114h10q7 -42 21.5 -62t36 -26.5t50.5 -6.5t54.5 5.5t49 25.5t46.5 64h10q-47 -152 -164 -152z" />
    <glyph glyph-name="uni0150" unicode="&#x150;" horiz-adv-x="766" 
d="M332 -10q-82 0 -143 37t-95 103t-34 152q0 75 28 145t78.5 125t118.5 87t148 32q83 0 144 -37t95 -103.5t34 -152.5q0 -74 -27.5 -143t-77.5 -124.5t-118.5 -88t-150.5 -32.5zM364 38q56 0 102 26t79.5 72.5t52 106t18.5 127.5q0 76 -26.5 133t-74 89.5t-109.5 32.5
q-74 0 -132 -44.5t-90.5 -120t-32.5 -168.5q0 -75 27 -132.5t74.5 -89.5t111.5 -32zM386 710l81 152h56q2 -15 -1 -31t-22 -32l-104 -89h-10zM495 710l99 152h56q2 -15 -0.5 -32t-21.5 -31l-124 -89h-9z" />
    <glyph glyph-name="uni1ECC" unicode="&#x1ecc;" horiz-adv-x="766" 
d="M332 -10q-82 0 -143 37t-95 103t-34 152q0 75 28 145t78.5 125t118.5 87t148 32q83 0 144 -37t95 -103.5t34 -152.5q0 -74 -27.5 -143t-77.5 -124.5t-118.5 -88t-150.5 -32.5zM364 38q56 0 102 26t79.5 72.5t52 106t18.5 127.5q0 76 -26.5 133t-74 89.5t-109.5 32.5
q-74 0 -132 -44.5t-90.5 -120t-32.5 -168.5q0 -75 27 -132.5t74.5 -89.5t111.5 -32zM300 -209q-23 0 -40 17t-17 40t17 40t40 17t40 -17t17 -40t-17 -40t-40 -17z" />
    <glyph glyph-name="uni01EA" unicode="&#x1ea;" horiz-adv-x="766" 
d="M312 -240q-38 0 -59.5 21.5t-21.5 59.5q0 35 22.5 71.5t63.5 77.5q-78 4 -135.5 41.5t-89.5 102t-32 148.5q0 75 28 145t78.5 125t118.5 87t148 32q83 0 144 -37t95 -103.5t34 -152.5q0 -72 -26 -139.5t-74 -122.5t-113.5 -88.5t-144.5 -37.5q-56 -73 -56 -130
q0 -29 15 -42.5t41 -13.5q10 0 23 3.5t27 12.5h3l-2 -13q-33 -47 -87 -47zM364 38q56 0 102 26t79.5 72.5t52 106t18.5 127.5q0 76 -26.5 133t-74 89.5t-109.5 32.5q-74 0 -132 -44.5t-90.5 -120t-32.5 -168.5q0 -75 27 -132.5t74.5 -89.5t111.5 -32z" />
    <glyph glyph-name="uni020C" unicode="&#x20c;" horiz-adv-x="766" 
d="M332 -10q-82 0 -143 37t-95 103t-34 152q0 75 28 145t78.5 125t118.5 87t148 32q83 0 144 -37t95 -103.5t34 -152.5q0 -74 -27.5 -143t-77.5 -124.5t-118.5 -88t-150.5 -32.5zM364 38q56 0 102 26t79.5 72.5t52 106t18.5 127.5q0 76 -26.5 133t-74 89.5t-109.5 32.5
q-74 0 -132 -44.5t-90.5 -120t-32.5 -168.5q0 -75 27 -132.5t74.5 -89.5t111.5 -32zM489 710l-92 96q-16 17 -18.5 29t0.5 27h55l65 -152h-10zM387 710l-113 96q-19 16 -21 29t1 27h55l88 -152h-10z" />
    <glyph glyph-name="uni020E" unicode="&#x20e;" horiz-adv-x="766" 
d="M332 -10q-82 0 -143 37t-95 103t-34 152q0 75 28 145t78.5 125t118.5 87t148 32q83 0 144 -37t95 -103.5t34 -152.5q0 -74 -27.5 -143t-77.5 -124.5t-118.5 -88t-150.5 -32.5zM364 38q56 0 102 26t79.5 72.5t52 106t18.5 127.5q0 76 -26.5 133t-74 89.5t-109.5 32.5
q-74 0 -132 -44.5t-90.5 -120t-32.5 -168.5q0 -75 27 -132.5t74.5 -89.5t111.5 -32zM310 710q47 152 164 152q64 0 87.5 -38t26.5 -114h-10q-7 42 -21.5 62t-36 26.5t-50.5 6.5t-54.5 -5.5t-49 -25.5t-46.5 -64h-10z" />
    <glyph glyph-name="uni022A" unicode="&#x22a;" horiz-adv-x="766" 
d="M332 -10q-82 0 -143 37t-95 103t-34 152q0 75 28 145t78.5 125t118.5 87t148 32q83 0 144 -37t95 -103.5t34 -152.5q0 -74 -27.5 -143t-77.5 -124.5t-118.5 -88t-150.5 -32.5zM364 38q56 0 102 26t79.5 72.5t52 106t18.5 127.5q0 76 -26.5 133t-74 89.5t-109.5 32.5
q-74 0 -132 -44.5t-90.5 -120t-32.5 -168.5q0 -75 27 -132.5t74.5 -89.5t111.5 -32zM362 932l8 44h253l-9 -44h-252zM379 741q-19 0 -32 13t-13 32t13 32t32 13t32 -13t13 -32t-13 -32t-32 -13zM549 741q-19 0 -32 13t-13 32t13 32t32 13t32 -13t13 -32t-13 -32t-32 -13z
" />
    <glyph glyph-name="uni022C" unicode="&#x22c;" horiz-adv-x="766" 
d="M332 -10q-82 0 -143 37t-95 103t-34 152q0 75 28 145t78.5 125t118.5 87t148 32q83 0 144 -37t95 -103.5t34 -152.5q0 -74 -27.5 -143t-77.5 -124.5t-118.5 -88t-150.5 -32.5zM364 38q56 0 102 26t79.5 72.5t52 106t18.5 127.5q0 76 -26.5 133t-74 89.5t-109.5 32.5
q-74 0 -132 -44.5t-90.5 -120t-32.5 -168.5q0 -75 27 -132.5t74.5 -89.5t111.5 -32zM306 726q25 52 43 76t32.5 31t31.5 7q25 0 44.5 -15t36.5 -29.5t37 -14.5q17 0 31.5 9.5t38.5 49.5h16q-25 -52 -43 -76t-33 -31t-31 -7q-25 0 -44 15t-36 29.5t-37 14.5q-17 0 -32 -9.5
t-39 -49.5h-16zM360 932l8 44h253l-9 -44h-252z" />
    <glyph glyph-name="uni0230" unicode="&#x230;" horiz-adv-x="766" 
d="M332 -10q-82 0 -143 37t-95 103t-34 152q0 75 28 145t78.5 125t118.5 87t148 32q83 0 144 -37t95 -103.5t34 -152.5q0 -74 -27.5 -143t-77.5 -124.5t-118.5 -88t-150.5 -32.5zM364 38q56 0 102 26t79.5 72.5t52 106t18.5 127.5q0 76 -26.5 133t-74 89.5t-109.5 32.5
q-74 0 -132 -44.5t-90.5 -120t-32.5 -168.5q0 -75 27 -132.5t74.5 -89.5t111.5 -32zM464 729q-23 0 -40 17t-17 40t17 40t40 17t40 -17t17 -40t-17 -40t-40 -17zM362 932l8 44h253l-9 -44h-252z" />
    <glyph glyph-name="uni1ED0" unicode="&#x1ed0;" horiz-adv-x="766" 
d="M332 -10q-82 0 -143 37t-95 103t-34 152q0 75 28 145t78.5 125t118.5 87t148 32q83 0 144 -37t95 -103.5t34 -152.5q0 -74 -27.5 -143t-77.5 -124.5t-118.5 -88t-150.5 -32.5zM364 38q56 0 102 26t79.5 72.5t52 106t18.5 127.5q0 76 -26.5 133t-74 89.5t-109.5 32.5
q-74 0 -132 -44.5t-90.5 -120t-32.5 -168.5q0 -75 27 -132.5t74.5 -89.5t111.5 -32zM572 805l64 143h77q-3 -15 -11.5 -29.5t-29.5 -32.5l-92 -81h-8zM305 710l157 152h28l95 -152h-10l-110 82l-150 -82h-10z" />
    <glyph glyph-name="uni1ED8" unicode="&#x1ed8;" horiz-adv-x="766" 
d="M332 -10q-82 0 -143 37t-95 103t-34 152q0 75 28 145t78.5 125t118.5 87t148 32q83 0 144 -37t95 -103.5t34 -152.5q0 -74 -27.5 -143t-77.5 -124.5t-118.5 -88t-150.5 -32.5zM364 38q56 0 102 26t79.5 72.5t52 106t18.5 127.5q0 76 -26.5 133t-74 89.5t-109.5 32.5
q-74 0 -132 -44.5t-90.5 -120t-32.5 -168.5q0 -75 27 -132.5t74.5 -89.5t111.5 -32zM305 710l157 152h28l95 -152h-10l-110 82l-150 -82h-10zM300 -209q-23 0 -40 17t-17 40t17 40t40 17t40 -17t17 -40t-17 -40t-40 -17z" />
    <glyph glyph-name="uni1ED2" unicode="&#x1ed2;" horiz-adv-x="766" 
d="M332 -10q-82 0 -143 37t-95 103t-34 152q0 75 28 145t78.5 125t118.5 87t148 32q83 0 144 -37t95 -103.5t34 -152.5q0 -74 -27.5 -143t-77.5 -124.5t-118.5 -88t-150.5 -32.5zM364 38q56 0 102 26t79.5 72.5t52 106t18.5 127.5q0 76 -26.5 133t-74 89.5t-109.5 32.5
q-74 0 -132 -44.5t-90.5 -120t-32.5 -168.5q0 -75 27 -132.5t74.5 -89.5t111.5 -32zM337 805l-95 80q-18 16 -20.5 32t-0.5 31h67l59 -143h-10zM305 710l157 152h28l95 -152h-10l-110 82l-150 -82h-10z" />
    <glyph glyph-name="uni1ED4" unicode="&#x1ed4;" horiz-adv-x="766" 
d="M332 -10q-82 0 -143 37t-95 103t-34 152q0 75 28 145t78.5 125t118.5 87t148 32q83 0 144 -37t95 -103.5t34 -152.5q0 -74 -27.5 -143t-77.5 -124.5t-118.5 -88t-150.5 -32.5zM364 38q56 0 102 26t79.5 72.5t52 106t18.5 127.5q0 76 -26.5 133t-74 89.5t-109.5 32.5
q-74 0 -132 -44.5t-90.5 -120t-32.5 -168.5q0 -75 27 -132.5t74.5 -89.5t111.5 -32zM444 878l-5 6v1q38 12 57.5 27.5t19.5 42.5q0 17 -14.5 28.5t-49.5 18.5l18 49q52 -5 72.5 -27t20.5 -48q0 -74 -119 -98zM305 710l157 152h28l95 -152h-10l-110 82l-150 -82h-10z" />
    <glyph glyph-name="uni1ED6" unicode="&#x1ed6;" horiz-adv-x="766" 
d="M332 -10q-82 0 -143 37t-95 103t-34 152q0 75 28 145t78.5 125t118.5 87t148 32q83 0 144 -37t95 -103.5t34 -152.5q0 -74 -27.5 -143t-77.5 -124.5t-118.5 -88t-150.5 -32.5zM364 38q56 0 102 26t79.5 72.5t52 106t18.5 127.5q0 76 -26.5 133t-74 89.5t-109.5 32.5
q-74 0 -132 -44.5t-90.5 -120t-32.5 -168.5q0 -75 27 -132.5t74.5 -89.5t111.5 -32zM305 710l157 152h28l95 -152h-10l-110 82l-150 -82h-10zM342 893q27 56 45.5 82.5t33.5 34t33 7.5t31.5 -10t25 -23.5t24 -23.5t28.5 -10q17 0 32.5 11t41.5 56h16q-27 -56 -45.5 -82.5
t-34 -34t-32.5 -7.5q-18 0 -31.5 10t-25 23.5t-24 23.5t-28.5 10q-17 0 -32.5 -11t-41.5 -56h-16z" />
    <glyph glyph-name="uni1ECE" unicode="&#x1ece;" horiz-adv-x="766" 
d="M332 -10q-82 0 -143 37t-95 103t-34 152q0 75 28 145t78.5 125t118.5 87t148 32q83 0 144 -37t95 -103.5t34 -152.5q0 -74 -27.5 -143t-77.5 -124.5t-118.5 -88t-150.5 -32.5zM364 38q56 0 102 26t79.5 72.5t52 106t18.5 127.5q0 76 -26.5 133t-74 89.5t-109.5 32.5
q-74 0 -132 -44.5t-90.5 -120t-32.5 -168.5q0 -75 27 -132.5t74.5 -89.5t111.5 -32zM413 702l-5 6v1q38 12 57.5 27.5t19.5 42.5q0 17 -14.5 28.5t-49.5 18.5l18 49q52 -5 72.5 -27t20.5 -48q0 -74 -119 -98z" />
    <glyph glyph-name="uni1E4C" unicode="&#x1e4c;" horiz-adv-x="766" 
d="M332 -10q-82 0 -143 37t-95 103t-34 152q0 75 28 145t78.5 125t118.5 87t148 32q83 0 144 -37t95 -103.5t34 -152.5q0 -74 -27.5 -143t-77.5 -124.5t-118.5 -88t-150.5 -32.5zM364 38q56 0 102 26t79.5 72.5t52 106t18.5 127.5q0 76 -26.5 133t-74 89.5t-109.5 32.5
q-74 0 -132 -44.5t-90.5 -120t-32.5 -168.5q0 -75 27 -132.5t74.5 -89.5t111.5 -32zM306 726q25 52 43 76t32.5 31t31.5 7q25 0 44.5 -15t36.5 -29.5t37 -14.5q17 0 31.5 9.5t38.5 49.5h16q-25 -52 -43 -76t-33 -31t-31 -7q-25 0 -44 15t-36 29.5t-37 14.5q-17 0 -32 -9.5
t-39 -49.5h-16zM475 862l106 152h78q-3 -15 -11 -30.5t-32 -32.5l-131 -89h-10z" />
    <glyph glyph-name="uni1E4E" unicode="&#x1e4e;" horiz-adv-x="766" 
d="M332 -10q-82 0 -143 37t-95 103t-34 152q0 75 28 145t78.5 125t118.5 87t148 32q83 0 144 -37t95 -103.5t34 -152.5q0 -74 -27.5 -143t-77.5 -124.5t-118.5 -88t-150.5 -32.5zM364 38q56 0 102 26t79.5 72.5t52 106t18.5 127.5q0 76 -26.5 133t-74 89.5t-109.5 32.5
q-74 0 -132 -44.5t-90.5 -120t-32.5 -168.5q0 -75 27 -132.5t74.5 -89.5t111.5 -32zM306 726q25 52 43 76t32.5 31t31.5 7q25 0 44.5 -15t36.5 -29.5t37 -14.5q17 0 31.5 9.5t38.5 49.5h16q-25 -52 -43 -76t-33 -31t-31 -7q-25 0 -44 15t-36 29.5t-37 14.5q-17 0 -32 -9.5
t-39 -49.5h-16zM406 906q-19 0 -32 13t-13 32t13 32t32 13t32 -13t13 -32t-13 -32t-32 -13zM576 906q-19 0 -32 13t-13 32t13 32t32 13t32 -13t13 -32t-13 -32t-32 -13z" />
    <glyph glyph-name="uni1E50" unicode="&#x1e50;" horiz-adv-x="766" 
d="M332 -10q-82 0 -143 37t-95 103t-34 152q0 75 28 145t78.5 125t118.5 87t148 32q83 0 144 -37t95 -103.5t34 -152.5q0 -74 -27.5 -143t-77.5 -124.5t-118.5 -88t-150.5 -32.5zM364 38q56 0 102 26t79.5 72.5t52 106t18.5 127.5q0 76 -26.5 133t-74 89.5t-109.5 32.5
q-74 0 -132 -44.5t-90.5 -120t-32.5 -168.5q0 -75 27 -132.5t74.5 -89.5t111.5 -32zM331 767l8 44h253l-9 -44h-252zM488 862l-129 89q-20 14 -21.5 31t0.5 32h70l90 -152h-10z" />
    <glyph glyph-name="uni1E52" unicode="&#x1e52;" horiz-adv-x="766" 
d="M332 -10q-82 0 -143 37t-95 103t-34 152q0 75 28 145t78.5 125t118.5 87t148 32q83 0 144 -37t95 -103.5t34 -152.5q0 -74 -27.5 -143t-77.5 -124.5t-118.5 -88t-150.5 -32.5zM364 38q56 0 102 26t79.5 72.5t52 106t18.5 127.5q0 76 -26.5 133t-74 89.5t-109.5 32.5
q-74 0 -132 -44.5t-90.5 -120t-32.5 -168.5q0 -75 27 -132.5t74.5 -89.5t111.5 -32zM331 767l8 44h253l-9 -44h-252zM476 862l106 152h78q-3 -15 -11 -30.5t-32 -32.5l-131 -89h-10z" />
    <glyph glyph-name="uni00D8" unicode="&#xd8;" horiz-adv-x="766" 
d="M2 -10l111 108q-26 37 -39.5 83.5t-13.5 100.5q0 75 28 145t78.5 125t118.5 87t148 32q59 0 107.5 -19.5t83.5 -54.5l75 73h65l-111 -108q53 -76 53 -184q0 -74 -27.5 -143t-77.5 -124.5t-118.5 -88t-150.5 -32.5q-58 0 -106.5 19t-83.5 54l-75 -73h-65zM151 292
q0 -73 26 -131l390 381q-27 39 -68.5 61t-92.5 22q-74 0 -132 -44.5t-90.5 -120t-32.5 -168.5zM364 38q56 0 102 26t79.5 72.5t52 106t18.5 127.5q0 73 -26 131l-389 -381q28 -38 69.5 -60t93.5 -22z" />
    <glyph glyph-name="uni01FE" unicode="&#x1fe;" horiz-adv-x="766" 
d="M2 -10l111 108q-26 37 -39.5 83.5t-13.5 100.5q0 75 28 145t78.5 125t118.5 87t148 32q59 0 107.5 -19.5t83.5 -54.5l75 73h65l-111 -108q53 -76 53 -184q0 -74 -27.5 -143t-77.5 -124.5t-118.5 -88t-150.5 -32.5q-58 0 -106.5 19t-83.5 54l-75 -73h-65zM151 292
q0 -73 26 -131l390 381q-27 39 -68.5 61t-92.5 22q-74 0 -132 -44.5t-90.5 -120t-32.5 -168.5zM364 38q56 0 102 26t79.5 72.5t52 106t18.5 127.5q0 73 -26 131l-389 -381q28 -38 69.5 -60t93.5 -22zM445 710l106 152h78q-3 -15 -11 -30.5t-32 -32.5l-131 -89h-10z" />
    <glyph glyph-name="uni01A0" unicode="&#x1a0;" horiz-adv-x="766" 
d="M332 -10q-82 0 -143 37t-95 103t-34 152q0 75 28 145t78.5 125t118.5 87t148 32q67 0 121 -25q15 -4 29 -4q29 0 42.5 14t17.5 39l8 51l7 6h30q12 0 17.5 -3t5.5 -13q0 -29 -15 -54.5t-41.5 -41.5t-58.5 -16h-4q54 -38 84 -101.5t30 -144.5q0 -74 -27.5 -143
t-77.5 -124.5t-118.5 -88t-150.5 -32.5zM364 38q56 0 102 26t79.5 72.5t52 106t18.5 127.5q0 76 -26.5 133t-74 89.5t-109.5 32.5q-74 0 -132 -44.5t-90.5 -120t-32.5 -168.5q0 -75 27 -132.5t74.5 -89.5t111.5 -32z" />
    <glyph glyph-name="uni1EDA" unicode="&#x1eda;" horiz-adv-x="766" 
d="M332 -10q-82 0 -143 37t-95 103t-34 152q0 75 28 145t78.5 125t118.5 87t148 32q67 0 121 -25q15 -4 29 -4q29 0 42.5 14t17.5 39l8 51l7 6h30q12 0 17.5 -3t5.5 -13q0 -29 -15 -54.5t-41.5 -41.5t-58.5 -16h-4q54 -38 84 -101.5t30 -144.5q0 -74 -27.5 -143
t-77.5 -124.5t-118.5 -88t-150.5 -32.5zM364 38q56 0 102 26t79.5 72.5t52 106t18.5 127.5q0 76 -26.5 133t-74 89.5t-109.5 32.5q-74 0 -132 -44.5t-90.5 -120t-32.5 -168.5q0 -75 27 -132.5t74.5 -89.5t111.5 -32zM445 710l106 152h78q-3 -15 -11 -30.5t-32 -32.5
l-131 -89h-10z" />
    <glyph glyph-name="uni1EE2" unicode="&#x1ee2;" horiz-adv-x="766" 
d="M332 -10q-82 0 -143 37t-95 103t-34 152q0 75 28 145t78.5 125t118.5 87t148 32q67 0 121 -25q15 -4 29 -4q29 0 42.5 14t17.5 39l8 51l7 6h30q12 0 17.5 -3t5.5 -13q0 -29 -15 -54.5t-41.5 -41.5t-58.5 -16h-4q54 -38 84 -101.5t30 -144.5q0 -74 -27.5 -143
t-77.5 -124.5t-118.5 -88t-150.5 -32.5zM364 38q56 0 102 26t79.5 72.5t52 106t18.5 127.5q0 76 -26.5 133t-74 89.5t-109.5 32.5q-74 0 -132 -44.5t-90.5 -120t-32.5 -168.5q0 -75 27 -132.5t74.5 -89.5t111.5 -32zM300 -209q-23 0 -40 17t-17 40t17 40t40 17t40 -17
t17 -40t-17 -40t-40 -17z" />
    <glyph glyph-name="uni1EDC" unicode="&#x1edc;" horiz-adv-x="766" 
d="M332 -10q-82 0 -143 37t-95 103t-34 152q0 75 28 145t78.5 125t118.5 87t148 32q67 0 121 -25q15 -4 29 -4q29 0 42.5 14t17.5 39l8 51l7 6h30q12 0 17.5 -3t5.5 -13q0 -29 -15 -54.5t-41.5 -41.5t-58.5 -16h-4q54 -38 84 -101.5t30 -144.5q0 -74 -27.5 -143
t-77.5 -124.5t-118.5 -88t-150.5 -32.5zM364 38q56 0 102 26t79.5 72.5t52 106t18.5 127.5q0 76 -26.5 133t-74 89.5t-109.5 32.5q-74 0 -132 -44.5t-90.5 -120t-32.5 -168.5q0 -75 27 -132.5t74.5 -89.5t111.5 -32zM445 710l-129 89q-20 14 -21.5 31t0.5 32h70l90 -152h-10
z" />
    <glyph glyph-name="uni1EDE" unicode="&#x1ede;" horiz-adv-x="766" 
d="M332 -10q-82 0 -143 37t-95 103t-34 152q0 75 28 145t78.5 125t118.5 87t148 32q67 0 121 -25q15 -4 29 -4q29 0 42.5 14t17.5 39l8 51l7 6h30q12 0 17.5 -3t5.5 -13q0 -29 -15 -54.5t-41.5 -41.5t-58.5 -16h-4q54 -38 84 -101.5t30 -144.5q0 -74 -27.5 -143
t-77.5 -124.5t-118.5 -88t-150.5 -32.5zM364 38q56 0 102 26t79.5 72.5t52 106t18.5 127.5q0 76 -26.5 133t-74 89.5t-109.5 32.5q-74 0 -132 -44.5t-90.5 -120t-32.5 -168.5q0 -75 27 -132.5t74.5 -89.5t111.5 -32zM413 702l-5 6v1q38 12 57.5 27.5t19.5 42.5
q0 17 -14.5 28.5t-49.5 18.5l18 49q52 -5 72.5 -27t20.5 -48q0 -74 -119 -98z" />
    <glyph glyph-name="uni1EE0" unicode="&#x1ee0;" horiz-adv-x="766" 
d="M332 -10q-82 0 -143 37t-95 103t-34 152q0 75 28 145t78.5 125t118.5 87t148 32q67 0 121 -25q15 -4 29 -4q29 0 42.5 14t17.5 39l8 51l7 6h30q12 0 17.5 -3t5.5 -13q0 -29 -15 -54.5t-41.5 -41.5t-58.5 -16h-4q54 -38 84 -101.5t30 -144.5q0 -74 -27.5 -143
t-77.5 -124.5t-118.5 -88t-150.5 -32.5zM364 38q56 0 102 26t79.5 72.5t52 106t18.5 127.5q0 76 -26.5 133t-74 89.5t-109.5 32.5q-74 0 -132 -44.5t-90.5 -120t-32.5 -168.5q0 -75 27 -132.5t74.5 -89.5t111.5 -32zM307 726q25 52 43 76t32.5 31t31.5 7q25 0 44.5 -15
t36.5 -29.5t37 -14.5q17 0 31.5 9.5t38.5 49.5h16q-25 -52 -43 -76t-33 -31t-31 -7q-25 0 -44 15t-36 29.5t-37 14.5q-17 0 -32 -9.5t-39 -49.5h-16z" />
    <glyph glyph-name="uni0152" unicode="&#x152;" horiz-adv-x="948" 
d="M387 0q-116 0 -188 35.5t-105.5 100t-33.5 150.5q0 108 48 192.5t134.5 133t203.5 48.5h467l-31 -172h-16l-37 122h-223l-43 -244h161l62 85h16l-39 -219h-16l-31 84h-162l-47 -266h267l80 132h16l-32 -182h-451zM389 50h33l98 560h-78q-92 0 -156.5 -39t-98.5 -111
t-34 -171q0 -121 58.5 -180t177.5 -59z" />
    <glyph glyph-name="uni0154" unicode="&#x154;" horiz-adv-x="624" 
d="M10 0l3 16l83 40l96 548l-69 40l3 16h204q105 0 165.5 -41t60.5 -111q0 -68 -45.5 -116.5t-112.5 -67.5l129 -272l57 -36l-3 -16h-130l-132 306h-94l-44 -249l65 -41l-3 -16h-233zM325 610h-46l-45 -254h84q46 0 78 19.5t49.5 51t17.5 67.5q0 54 -37 85t-101 31zM341 710
l106 152h78q-3 -15 -11 -30.5t-32 -32.5l-131 -89h-10z" />
    <glyph glyph-name="uni0158" unicode="&#x158;" horiz-adv-x="624" 
d="M10 0l3 16l83 40l96 548l-69 40l3 16h204q105 0 165.5 -41t60.5 -111q0 -68 -45.5 -116.5t-112.5 -67.5l129 -272l57 -36l-3 -16h-130l-132 306h-94l-44 -249l65 -41l-3 -16h-233zM325 610h-46l-45 -254h84q46 0 78 19.5t49.5 51t17.5 67.5q0 54 -37 85t-101 31zM333 710
l-95 152h10l110 -82l150 82h10l-157 -152h-28z" />
    <glyph glyph-name="uni0156" unicode="&#x156;" horiz-adv-x="624" 
d="M10 0l3 16l83 40l96 548l-69 40l3 16h204q105 0 165.5 -41t60.5 -111q0 -68 -45.5 -116.5t-112.5 -67.5l129 -272l57 -36l-3 -16h-130l-132 306h-94l-44 -249l65 -41l-3 -16h-233zM325 610h-46l-45 -254h84q46 0 78 19.5t49.5 51t17.5 67.5q0 54 -37 85t-101 31z
M222 -239q-8 0 -17.5 0.5t-17.5 2.5l3 11q7 -1 12 -1.5t11 -0.5q36 0 56.5 14t20.5 40q0 25 -20 35.5t-63 10.5l5 28q1 9 8 15t24 6q52 0 77 -21t25 -53q0 -44 -35 -65.5t-89 -21.5z" />
    <glyph glyph-name="uni0210" unicode="&#x210;" horiz-adv-x="624" 
d="M10 0l3 16l83 40l96 548l-69 40l3 16h204q105 0 165.5 -41t60.5 -111q0 -68 -45.5 -116.5t-112.5 -67.5l129 -272l57 -36l-3 -16h-130l-132 306h-94l-44 -249l65 -41l-3 -16h-233zM325 610h-46l-45 -254h84q46 0 78 19.5t49.5 51t17.5 67.5q0 54 -37 85t-101 31zM385 710
l-92 96q-16 17 -18.5 29t0.5 27h55l65 -152h-10zM283 710l-113 96q-19 16 -21 29t1 27h55l88 -152h-10z" />
    <glyph glyph-name="uni0212" unicode="&#x212;" horiz-adv-x="624" 
d="M10 0l3 16l83 40l96 548l-69 40l3 16h204q105 0 165.5 -41t60.5 -111q0 -68 -45.5 -116.5t-112.5 -67.5l129 -272l57 -36l-3 -16h-130l-132 306h-94l-44 -249l65 -41l-3 -16h-233zM325 610h-46l-45 -254h84q46 0 78 19.5t49.5 51t17.5 67.5q0 54 -37 85t-101 31zM206 710
q47 152 164 152q64 0 87.5 -38t26.5 -114h-10q-7 42 -21.5 62t-36 26.5t-50.5 6.5t-54.5 -5.5t-49 -25.5t-46.5 -64h-10z" />
    <glyph glyph-name="uni1E5A" unicode="&#x1e5a;" horiz-adv-x="624" 
d="M10 0l3 16l83 40l96 548l-69 40l3 16h204q105 0 165.5 -41t60.5 -111q0 -68 -45.5 -116.5t-112.5 -67.5l129 -272l57 -36l-3 -16h-130l-132 306h-94l-44 -249l65 -41l-3 -16h-233zM325 610h-46l-45 -254h84q46 0 78 19.5t49.5 51t17.5 67.5q0 54 -37 85t-101 31z
M270 -209q-23 0 -40 17t-17 40t17 40t40 17t40 -17t17 -40t-17 -40t-40 -17z" />
    <glyph glyph-name="uni1E5E" unicode="&#x1e5e;" horiz-adv-x="624" 
d="M10 0l3 16l83 40l96 548l-69 40l3 16h204q105 0 165.5 -41t60.5 -111q0 -68 -45.5 -116.5t-112.5 -67.5l129 -272l57 -36l-3 -16h-130l-132 306h-94l-44 -249l65 -41l-3 -16h-233zM325 610h-46l-45 -254h84q46 0 78 19.5t49.5 51t17.5 67.5q0 54 -37 85t-101 31z
M138 -171l8 44h253l-8 -44h-253z" />
    <glyph glyph-name="uni1E9E" unicode="&#x1e9e;" horiz-adv-x="978" 
d="M177 -10q-59 0 -98 11.5t-79 34.5l19 164h16l39 -117q27 -27 54.5 -39t56.5 -12q71 0 107 41.5t36 107.5q0 41 -26.5 70t-95.5 67q-56 32 -82 68t-26 85q0 57 31 102t79.5 71t101.5 26q44 0 79 -11t70 -31l-18 -160h-16l-37 116q-17 16 -39.5 29t-57.5 13
q-31 0 -57.5 -16.5t-43 -47t-16.5 -70.5q0 -36 22.5 -62.5t75.5 -56.5q52 -29 82 -54.5t43.5 -54t13.5 -65.5q0 -62 -33 -109t-86.5 -73.5t-114.5 -26.5zM666 -10q-59 0 -98 11.5t-79 34.5l19 164h16l39 -117q27 -27 54.5 -39t56.5 -12q71 0 107 41.5t36 107.5
q0 41 -26.5 70t-95.5 67q-56 32 -82 68t-26 85q0 57 31 102t79.5 71t101.5 26q44 0 79 -11t70 -31l-18 -160h-16l-37 116q-17 16 -39.5 29t-57.5 13q-31 0 -57.5 -16.5t-43 -47t-16.5 -70.5q0 -36 22.5 -62.5t75.5 -56.5q52 -29 82 -54.5t43.5 -54t13.5 -65.5
q0 -62 -33 -109t-86.5 -73.5t-114.5 -26.5z" />
    <glyph glyph-name="uni015A" unicode="&#x15a;" horiz-adv-x="489" 
d="M177 -10q-59 0 -98 11.5t-79 34.5l19 164h16l39 -117q27 -27 54.5 -39t56.5 -12q71 0 107 41.5t36 107.5q0 41 -26.5 70t-95.5 67q-56 32 -82 68t-26 85q0 57 31 102t79.5 71t101.5 26q44 0 79 -11t70 -31l-18 -160h-16l-37 116q-17 16 -39.5 29t-57.5 13
q-31 0 -57.5 -16.5t-43 -47t-16.5 -70.5q0 -36 22.5 -62.5t75.5 -56.5q52 -29 82 -54.5t43.5 -54t13.5 -65.5q0 -62 -33 -109t-86.5 -73.5t-114.5 -26.5zM313 710l106 152h78q-3 -15 -11 -30.5t-32 -32.5l-131 -89h-10z" />
    <glyph glyph-name="uni015C" unicode="&#x15c;" horiz-adv-x="489" 
d="M177 -10q-59 0 -98 11.5t-79 34.5l19 164h16l39 -117q27 -27 54.5 -39t56.5 -12q71 0 107 41.5t36 107.5q0 41 -26.5 70t-95.5 67q-56 32 -82 68t-26 85q0 57 31 102t79.5 71t101.5 26q44 0 79 -11t70 -31l-18 -160h-16l-37 116q-17 16 -39.5 29t-57.5 13
q-31 0 -57.5 -16.5t-43 -47t-16.5 -70.5q0 -36 22.5 -62.5t75.5 -56.5q52 -29 82 -54.5t43.5 -54t13.5 -65.5q0 -62 -33 -109t-86.5 -73.5t-114.5 -26.5zM173 710l157 152h28l95 -152h-10l-110 82l-150 -82h-10z" />
    <glyph glyph-name="uni0160" unicode="&#x160;" horiz-adv-x="489" 
d="M177 -10q-59 0 -98 11.5t-79 34.5l19 164h16l39 -117q27 -27 54.5 -39t56.5 -12q71 0 107 41.5t36 107.5q0 41 -26.5 70t-95.5 67q-56 32 -82 68t-26 85q0 57 31 102t79.5 71t101.5 26q44 0 79 -11t70 -31l-18 -160h-16l-37 116q-17 16 -39.5 29t-57.5 13
q-31 0 -57.5 -16.5t-43 -47t-16.5 -70.5q0 -36 22.5 -62.5t75.5 -56.5q52 -29 82 -54.5t43.5 -54t13.5 -65.5q0 -62 -33 -109t-86.5 -73.5t-114.5 -26.5zM305 710l-95 152h10l110 -82l150 82h10l-157 -152h-28z" />
    <glyph glyph-name="uni015E" unicode="&#x15e;" horiz-adv-x="489" 
d="M141 -240q-25 0 -46 8t-32 22l2 11h3q13 -6 27 -10t34 -4q64 0 64 48q0 25 -19.5 40t-66.5 30l54 85q-51 2 -87 13t-74 33l19 164h16l39 -117q21 -20 48.5 -35.5t62.5 -15.5q50 0 81.5 21t46.5 55t15 73q0 35 -15.5 57.5t-43 40.5t-63.5 39q-52 30 -80 64t-28 89
q0 47 20.5 84t53.5 62.5t69.5 39t68.5 13.5q44 0 79 -11t70 -31l-18 -160h-16l-37 116q-17 16 -39.5 29t-57.5 13q-31 0 -57.5 -16.5t-43 -47t-16.5 -70.5t24 -65.5t74 -53.5q70 -39 104.5 -76t34.5 -98q0 -51 -20 -89t-53 -64t-71.5 -39.5t-75.5 -16.5l-29 -45
q45 -17 64 -39t19 -57q0 -37 -27.5 -63t-76.5 -26z" />
    <glyph glyph-name="uni0218" unicode="&#x218;" horiz-adv-x="489" 
d="M177 -10q-59 0 -98 11.5t-79 34.5l19 164h16l39 -117q27 -27 54.5 -39t56.5 -12q71 0 107 41.5t36 107.5q0 41 -26.5 70t-95.5 67q-56 32 -82 68t-26 85q0 57 31 102t79.5 71t101.5 26q44 0 79 -11t70 -31l-18 -160h-16l-37 116q-17 16 -39.5 29t-57.5 13
q-31 0 -57.5 -16.5t-43 -47t-16.5 -70.5q0 -36 22.5 -62.5t75.5 -56.5q52 -29 82 -54.5t43.5 -54t13.5 -65.5q0 -62 -33 -109t-86.5 -73.5t-114.5 -26.5zM107 -239q-8 0 -17.5 0.5t-17.5 2.5l3 11q7 -1 12 -1.5t11 -0.5q36 0 56.5 14t20.5 40q0 25 -20 35.5t-63 10.5l5 28
q1 9 8 15t24 6q52 0 77 -21t25 -53q0 -44 -35 -65.5t-89 -21.5z" />
    <glyph glyph-name="uni1E60" unicode="&#x1e60;" horiz-adv-x="489" 
d="M177 -10q-59 0 -98 11.5t-79 34.5l19 164h16l39 -117q27 -27 54.5 -39t56.5 -12q71 0 107 41.5t36 107.5q0 41 -26.5 70t-95.5 67q-56 32 -82 68t-26 85q0 57 31 102t79.5 71t101.5 26q44 0 79 -11t70 -31l-18 -160h-16l-37 116q-17 16 -39.5 29t-57.5 13
q-31 0 -57.5 -16.5t-43 -47t-16.5 -70.5q0 -36 22.5 -62.5t75.5 -56.5q52 -29 82 -54.5t43.5 -54t13.5 -65.5q0 -62 -33 -109t-86.5 -73.5t-114.5 -26.5zM331 729q-23 0 -40 17t-17 40t17 40t40 17t40 -17t17 -40t-17 -40t-40 -17z" />
    <glyph glyph-name="uni1E62" unicode="&#x1e62;" horiz-adv-x="489" 
d="M177 -10q-59 0 -98 11.5t-79 34.5l19 164h16l39 -117q27 -27 54.5 -39t56.5 -12q71 0 107 41.5t36 107.5q0 41 -26.5 70t-95.5 67q-56 32 -82 68t-26 85q0 57 31 102t79.5 71t101.5 26q44 0 79 -11t70 -31l-18 -160h-16l-37 116q-17 16 -39.5 29t-57.5 13
q-31 0 -57.5 -16.5t-43 -47t-16.5 -70.5q0 -36 22.5 -62.5t75.5 -56.5q52 -29 82 -54.5t43.5 -54t13.5 -65.5q0 -62 -33 -109t-86.5 -73.5t-114.5 -26.5zM155 -209q-23 0 -40 17t-17 40t17 40t40 17t40 -17t17 -40t-17 -40t-40 -17z" />
    <glyph glyph-name="uni1E64" unicode="&#x1e64;" horiz-adv-x="489" 
d="M177 -10q-59 0 -98 11.5t-79 34.5l19 164h16l39 -117q27 -27 54.5 -39t56.5 -12q71 0 107 41.5t36 107.5q0 41 -26.5 70t-95.5 67q-56 32 -82 68t-26 85q0 57 31 102t79.5 71t101.5 26q44 0 79 -11t70 -31l-18 -160h-16l-37 116q-17 16 -39.5 29t-57.5 13
q-31 0 -57.5 -16.5t-43 -47t-16.5 -70.5q0 -36 22.5 -62.5t75.5 -56.5q52 -29 82 -54.5t43.5 -54t13.5 -65.5q0 -62 -33 -109t-86.5 -73.5t-114.5 -26.5zM298 805q-23 0 -40 17t-17 40t17 40t40 17t40 -17t17 -40t-17 -40t-40 -17zM313 710l106 152h78q-3 -15 -11 -30.5
t-32 -32.5l-131 -89h-10z" />
    <glyph glyph-name="uni1E66" unicode="&#x1e66;" horiz-adv-x="489" 
d="M177 -10q-59 0 -98 11.5t-79 34.5l19 164h16l39 -117q27 -27 54.5 -39t56.5 -12q71 0 107 41.5t36 107.5q0 41 -26.5 70t-95.5 67q-56 32 -82 68t-26 85q0 57 31 102t79.5 71t101.5 26q44 0 79 -11t70 -31l-18 -160h-16l-37 116q-17 16 -39.5 29t-57.5 13
q-31 0 -57.5 -16.5t-43 -47t-16.5 -70.5q0 -36 22.5 -62.5t75.5 -56.5q52 -29 82 -54.5t43.5 -54t13.5 -65.5q0 -62 -33 -109t-86.5 -73.5t-114.5 -26.5zM368 900q-23 0 -40 17t-17 40t17 40t40 17t40 -17t17 -40t-17 -40t-40 -17zM305 710l-95 152h10l110 -82l150 82h10
l-157 -152h-28z" />
    <glyph glyph-name="uni1E68" unicode="&#x1e68;" horiz-adv-x="489" 
d="M177 -10q-59 0 -98 11.5t-79 34.5l19 164h16l39 -117q27 -27 54.5 -39t56.5 -12q71 0 107 41.5t36 107.5q0 41 -26.5 70t-95.5 67q-56 32 -82 68t-26 85q0 57 31 102t79.5 71t101.5 26q44 0 79 -11t70 -31l-18 -160h-16l-37 116q-17 16 -39.5 29t-57.5 13
q-31 0 -57.5 -16.5t-43 -47t-16.5 -70.5q0 -36 22.5 -62.5t75.5 -56.5q52 -29 82 -54.5t43.5 -54t13.5 -65.5q0 -62 -33 -109t-86.5 -73.5t-114.5 -26.5zM331 729q-23 0 -40 17t-17 40t17 40t40 17t40 -17t17 -40t-17 -40t-40 -17zM155 -209q-23 0 -40 17t-17 40t17 40
t40 17t40 -17t17 -40t-17 -40t-40 -17z" />
    <glyph glyph-name="uni0164" unicode="&#x164;" horiz-adv-x="645" 
d="M133 0l4 16l101 40l99 554h-155l-91 -152h-16l35 202h555l-36 -202h-16l-38 152h-152l-99 -554l88 -40l-3 -16h-276zM383 710l-95 152h10l110 -82l150 82h10l-157 -152h-28z" />
    <glyph glyph-name="uni021A" unicode="&#x21a;" horiz-adv-x="645" 
d="M133 0l4 16l101 40l99 554h-155l-91 -152h-16l35 202h555l-36 -202h-16l-38 152h-152l-99 -554l88 -40l-3 -16h-276zM196 -239q-8 0 -17.5 0.5t-17.5 2.5l3 11q7 -1 12 -1.5t11 -0.5q36 0 56.5 14t20.5 40q0 25 -20 35.5t-63 10.5l5 28q1 9 8 15t24 6q52 0 77 -21t25 -53
q0 -44 -35 -65.5t-89 -21.5z" />
    <glyph glyph-name="uni0166" unicode="&#x166;" horiz-adv-x="645" 
d="M184 322l8 41h101l44 247h-155l-91 -152h-16l35 202h555l-36 -202h-16l-38 152h-152l-44 -247h100l-8 -41h-99l-48 -266l88 -40l-3 -16h-276l4 16l101 40l48 266h-102z" />
    <glyph glyph-name="uni0162" unicode="&#x162;" horiz-adv-x="645" 
d="M133 0l4 16l101 40l99 554h-155l-91 -152h-16l35 202h555l-36 -202h-16l-38 152h-152l-99 -554l88 -40l-3 -16h-123l-35 -55q45 -17 64 -39t19 -57q0 -37 -27.5 -63t-76.5 -26q-26 0 -47 8t-31 22l2 11h3q13 -6 27 -10t34 -4q64 0 64 48q0 25 -19.5 40t-66.5 30l60 95
h-123z" />
    <glyph glyph-name="uni1E6C" unicode="&#x1e6c;" horiz-adv-x="645" 
d="M133 0l4 16l101 40l99 554h-155l-91 -152h-16l35 202h555l-36 -202h-16l-38 152h-152l-99 -554l88 -40l-3 -16h-276zM244 -209q-23 0 -40 17t-17 40t17 40t40 17t40 -17t17 -40t-17 -40t-40 -17z" />
    <glyph glyph-name="uni1E6E" unicode="&#x1e6e;" horiz-adv-x="645" 
d="M133 0l4 16l101 40l99 554h-155l-91 -152h-16l35 202h555l-36 -202h-16l-38 152h-152l-99 -554l88 -40l-3 -16h-276zM112 -171l8 44h253l-8 -44h-253z" />
    <glyph glyph-name="uni00D9" unicode="&#xd9;" horiz-adv-x="783" 
d="M342 -10q-96 0 -156 47t-60 149q0 16 2 33.5t5 36.5l61 348l-69 40l3 16h238l-4 -16l-82 -40l-59 -333q-4 -19 -6.5 -39t-2.5 -36q0 -81 41 -117t115 -36q42 0 81 21t68 64t40 108l65 370l-89 38l4 16h236l-3 -16l-82 -39l-61 -349q-17 -96 -56.5 -154.5t-98 -85
t-130.5 -26.5zM459 710l-129 89q-20 14 -21.5 31t0.5 32h70l90 -152h-10z" />
    <glyph glyph-name="uni00DA" unicode="&#xda;" horiz-adv-x="783" 
d="M342 -10q-96 0 -156 47t-60 149q0 16 2 33.5t5 36.5l61 348l-69 40l3 16h238l-4 -16l-82 -40l-59 -333q-4 -19 -6.5 -39t-2.5 -36q0 -81 41 -117t115 -36q42 0 81 21t68 64t40 108l65 370l-89 38l4 16h236l-3 -16l-82 -39l-61 -349q-17 -96 -56.5 -154.5t-98 -85
t-130.5 -26.5zM459 710l106 152h78q-3 -15 -11 -30.5t-32 -32.5l-131 -89h-10z" />
    <glyph glyph-name="uni00DB" unicode="&#xdb;" horiz-adv-x="783" 
d="M342 -10q-96 0 -156 47t-60 149q0 16 2 33.5t5 36.5l61 348l-69 40l3 16h238l-4 -16l-82 -40l-59 -333q-4 -19 -6.5 -39t-2.5 -36q0 -81 41 -117t115 -36q42 0 81 21t68 64t40 108l65 370l-89 38l4 16h236l-3 -16l-82 -39l-61 -349q-17 -96 -56.5 -154.5t-98 -85
t-130.5 -26.5zM319 710l157 152h28l95 -152h-10l-110 82l-150 -82h-10z" />
    <glyph glyph-name="uni0168" unicode="&#x168;" horiz-adv-x="783" 
d="M342 -10q-96 0 -156 47t-60 149q0 16 2 33.5t5 36.5l61 348l-69 40l3 16h238l-4 -16l-82 -40l-59 -333q-4 -19 -6.5 -39t-2.5 -36q0 -81 41 -117t115 -36q42 0 81 21t68 64t40 108l65 370l-89 38l4 16h236l-3 -16l-82 -39l-61 -349q-17 -96 -56.5 -154.5t-98 -85
t-130.5 -26.5zM321 726q25 52 43 76t32.5 31t31.5 7q25 0 44.5 -15t36.5 -29.5t37 -14.5q17 0 31.5 9.5t38.5 49.5h16q-25 -52 -43 -76t-33 -31t-31 -7q-25 0 -44 15t-36 29.5t-37 14.5q-17 0 -32 -9.5t-39 -49.5h-16z" />
    <glyph glyph-name="uni00DC" unicode="&#xdc;" horiz-adv-x="783" 
d="M342 -10q-96 0 -156 47t-60 149q0 16 2 33.5t5 36.5l61 348l-69 40l3 16h238l-4 -16l-82 -40l-59 -333q-4 -19 -6.5 -39t-2.5 -36q0 -81 41 -117t115 -36q42 0 81 21t68 64t40 108l65 370l-89 38l4 16h236l-3 -16l-82 -39l-61 -349q-17 -96 -56.5 -154.5t-98 -85
t-130.5 -26.5zM393 741q-19 0 -32 13t-13 32t13 32t32 13t32 -13t13 -32t-13 -32t-32 -13zM563 741q-19 0 -32 13t-13 32t13 32t32 13t32 -13t13 -32t-13 -32t-32 -13z" />
    <glyph glyph-name="uni016A" unicode="&#x16a;" horiz-adv-x="783" 
d="M342 -10q-96 0 -156 47t-60 149q0 16 2 33.5t5 36.5l61 348l-69 40l3 16h238l-4 -16l-82 -40l-59 -333q-4 -19 -6.5 -39t-2.5 -36q0 -81 41 -117t115 -36q42 0 81 21t68 64t40 108l65 370l-89 38l4 16h236l-3 -16l-82 -39l-61 -349q-17 -96 -56.5 -154.5t-98 -85
t-130.5 -26.5zM346 767l8 44h253l-9 -44h-252z" />
    <glyph glyph-name="uni016C" unicode="&#x16c;" horiz-adv-x="783" 
d="M342 -10q-96 0 -156 47t-60 149q0 16 2 33.5t5 36.5l61 348l-69 40l3 16h238l-4 -16l-82 -40l-59 -333q-4 -19 -6.5 -39t-2.5 -36q0 -81 41 -117t115 -36q42 0 81 21t68 64t40 108l65 370l-89 38l4 16h236l-3 -16l-82 -39l-61 -349q-17 -96 -56.5 -154.5t-98 -85
t-130.5 -26.5zM464 710q-64 0 -87.5 38t-26.5 114h10q7 -42 21.5 -62t36 -26.5t50.5 -6.5t54.5 5.5t49 25.5t46.5 64h10q-47 -152 -164 -152z" />
    <glyph glyph-name="uni016E" unicode="&#x16e;" horiz-adv-x="783" 
d="M342 -10q-96 0 -156 47t-60 149q0 16 2 33.5t5 36.5l61 348l-69 40l3 16h238l-4 -16l-82 -40l-59 -333q-4 -19 -6.5 -39t-2.5 -36q0 -81 41 -117t115 -36q42 0 81 21t68 64t40 108l65 370l-89 38l4 16h236l-3 -16l-82 -39l-61 -349q-17 -96 -56.5 -154.5t-98 -85
t-130.5 -26.5zM464 710q-35 0 -51 19t-16 49q0 39 26 68.5t70 29.5q34 0 50.5 -19t16.5 -49q0 -38 -26 -68t-70 -30zM469 732q25 0 38 22t13 53q0 24 -7 36t-25 12q-23 0 -37.5 -20t-14.5 -54q0 -49 33 -49z" />
    <glyph glyph-name="uni0170" unicode="&#x170;" horiz-adv-x="783" 
d="M342 -10q-96 0 -156 47t-60 149q0 16 2 33.5t5 36.5l61 348l-69 40l3 16h238l-4 -16l-82 -40l-59 -333q-4 -19 -6.5 -39t-2.5 -36q0 -81 41 -117t115 -36q42 0 81 21t68 64t40 108l65 370l-89 38l4 16h236l-3 -16l-82 -39l-61 -349q-17 -96 -56.5 -154.5t-98 -85
t-130.5 -26.5zM400 710l81 152h56q2 -15 -1 -31t-22 -32l-104 -89h-10zM509 710l99 152h56q2 -15 -0.5 -32t-21.5 -31l-124 -89h-9z" />
    <glyph glyph-name="uni0172" unicode="&#x172;" horiz-adv-x="783" 
d="M407 -193q-33 -47 -87 -47q-38 0 -59.5 21.5t-21.5 59.5q0 35 22.5 71.5t63.5 77.5q-89 4 -144 51t-55 145q0 16 2 33.5t5 36.5l61 348l-69 40l3 16h238l-4 -16l-82 -40l-59 -333q-4 -19 -5.5 -37t-1.5 -34q0 -87 43.5 -122t110.5 -35q36 0 75.5 19.5t70.5 61.5t43 112
l65 370l-89 38l4 16h236l-3 -16l-82 -39l-61 -349q-16 -94 -55 -151.5t-94.5 -84.5t-121.5 -30q-56 -73 -56 -130q0 -29 15 -42.5t41 -13.5q10 0 23 3.5t27 12.5h3z" />
    <glyph glyph-name="uni1EE4" unicode="&#x1ee4;" horiz-adv-x="783" 
d="M342 -10q-96 0 -156 47t-60 149q0 16 2 33.5t5 36.5l61 348l-69 40l3 16h238l-4 -16l-82 -40l-59 -333q-4 -19 -6.5 -39t-2.5 -36q0 -81 41 -117t115 -36q42 0 81 21t68 64t40 108l65 370l-89 38l4 16h236l-3 -16l-82 -39l-61 -349q-17 -96 -56.5 -154.5t-98 -85
t-130.5 -26.5zM320 -209q-23 0 -40 17t-17 40t17 40t40 17t40 -17t17 -40t-17 -40t-40 -17z" />
    <glyph glyph-name="uni0214" unicode="&#x214;" horiz-adv-x="783" 
d="M342 -10q-96 0 -156 47t-60 149q0 16 2 33.5t5 36.5l61 348l-69 40l3 16h238l-4 -16l-82 -40l-59 -333q-4 -19 -6.5 -39t-2.5 -36q0 -81 41 -117t115 -36q42 0 81 21t68 64t40 108l65 370l-89 38l4 16h236l-3 -16l-82 -39l-61 -349q-17 -96 -56.5 -154.5t-98 -85
t-130.5 -26.5zM503 710l-92 96q-16 17 -18.5 29t0.5 27h55l65 -152h-10zM401 710l-113 96q-19 16 -21 29t1 27h55l88 -152h-10z" />
    <glyph glyph-name="uni0216" unicode="&#x216;" horiz-adv-x="783" 
d="M342 -10q-96 0 -156 47t-60 149q0 16 2 33.5t5 36.5l61 348l-69 40l3 16h238l-4 -16l-82 -40l-59 -333q-4 -19 -6.5 -39t-2.5 -36q0 -81 41 -117t115 -36q42 0 81 21t68 64t40 108l65 370l-89 38l4 16h236l-3 -16l-82 -39l-61 -349q-17 -96 -56.5 -154.5t-98 -85
t-130.5 -26.5zM324 710q47 152 164 152q64 0 87.5 -38t26.5 -114h-10q-7 42 -21.5 62t-36 26.5t-50.5 6.5t-54.5 -5.5t-49 -25.5t-46.5 -64h-10z" />
    <glyph glyph-name="uni1EE6" unicode="&#x1ee6;" horiz-adv-x="783" 
d="M342 -10q-96 0 -156 47t-60 149q0 16 2 33.5t5 36.5l61 348l-69 40l3 16h238l-4 -16l-82 -40l-59 -333q-4 -19 -6.5 -39t-2.5 -36q0 -81 41 -117t115 -36q42 0 81 21t68 64t40 108l65 370l-89 38l4 16h236l-3 -16l-82 -39l-61 -349q-17 -96 -56.5 -154.5t-98 -85
t-130.5 -26.5zM427 702l-5 6v1q38 12 57.5 27.5t19.5 42.5q0 17 -14.5 28.5t-49.5 18.5l18 49q52 -5 72.5 -27t20.5 -48q0 -74 -119 -98z" />
    <glyph glyph-name="uni1E78" unicode="&#x1e78;" horiz-adv-x="783" 
d="M342 -10q-96 0 -156 47t-60 149q0 16 2 33.5t5 36.5l61 348l-69 40l3 16h238l-4 -16l-82 -40l-59 -333q-4 -19 -6.5 -39t-2.5 -36q0 -81 41 -117t115 -36q42 0 81 21t68 64t40 108l65 370l-89 38l4 16h236l-3 -16l-82 -39l-61 -349q-17 -96 -56.5 -154.5t-98 -85
t-130.5 -26.5zM320 726q25 52 43 76t32.5 31t31.5 7q25 0 44.5 -15t36.5 -29.5t37 -14.5q17 0 31.5 9.5t38.5 49.5h16q-25 -52 -43 -76t-33 -31t-31 -7q-25 0 -44 15t-36 29.5t-37 14.5q-17 0 -32 -9.5t-39 -49.5h-16zM489 862l106 152h78q-3 -15 -11 -30.5t-32 -32.5
l-131 -89h-10z" />
    <glyph glyph-name="uni1E7A" unicode="&#x1e7a;" horiz-adv-x="783" 
d="M342 -10q-96 0 -156 47t-60 149q0 16 2 33.5t5 36.5l61 348l-69 40l3 16h238l-4 -16l-82 -40l-59 -333q-4 -19 -6.5 -39t-2.5 -36q0 -81 41 -117t115 -36q42 0 81 21t68 64t40 108l65 370l-89 38l4 16h236l-3 -16l-82 -39l-61 -349q-17 -96 -56.5 -154.5t-98 -85
t-130.5 -26.5zM345 767l8 44h253l-9 -44h-252zM420 906q-19 0 -32 13t-13 32t13 32t32 13t32 -13t13 -32t-13 -32t-32 -13zM590 906q-19 0 -32 13t-13 32t13 32t32 13t32 -13t13 -32t-13 -32t-32 -13z" />
    <glyph glyph-name="uni01AF" unicode="&#x1af;" horiz-adv-x="783" 
d="M342 -10q-96 0 -156 47t-60 149q0 16 2 33.5t5 36.5l61 348l-69 40l3 16h238l-4 -16l-82 -40l-59 -333q-4 -19 -5.5 -37t-1.5 -34q0 -87 43.5 -122t110.5 -35q36 0 75.5 19.5t70.5 61.5t43 112l65 370l-89 38l4 16h237q28 0 40.5 13t16.5 38l5 35l7 6h30q12 0 17.5 -3
t5.5 -13q0 -34 -27 -63t-78 -29h-21l-82 -39l-61 -349q-17 -98 -58 -156t-99.5 -84t-127.5 -26z" />
    <glyph glyph-name="uni1EE8" unicode="&#x1ee8;" horiz-adv-x="783" 
d="M342 -10q-96 0 -156 47t-60 149q0 16 2 33.5t5 36.5l61 348l-69 40l3 16h238l-4 -16l-82 -40l-59 -333q-4 -19 -5.5 -37t-1.5 -34q0 -87 43.5 -122t110.5 -35q36 0 75.5 19.5t70.5 61.5t43 112l65 370l-89 38l4 16h237q28 0 40.5 13t16.5 38l5 35l7 6h30q12 0 17.5 -3
t5.5 -13q0 -34 -27 -63t-78 -29h-21l-82 -39l-61 -349q-17 -98 -58 -156t-99.5 -84t-127.5 -26zM459 710l106 152h78q-3 -15 -11 -30.5t-32 -32.5l-131 -89h-10z" />
    <glyph glyph-name="uni1EF0" unicode="&#x1ef0;" horiz-adv-x="783" 
d="M342 -10q-96 0 -156 47t-60 149q0 16 2 33.5t5 36.5l61 348l-69 40l3 16h238l-4 -16l-82 -40l-59 -333q-4 -19 -5.5 -37t-1.5 -34q0 -87 43.5 -122t110.5 -35q36 0 75.5 19.5t70.5 61.5t43 112l65 370l-89 38l4 16h237q28 0 40.5 13t16.5 38l5 35l7 6h30q12 0 17.5 -3
t5.5 -13q0 -34 -27 -63t-78 -29h-21l-82 -39l-61 -349q-17 -98 -58 -156t-99.5 -84t-127.5 -26zM320 -209q-23 0 -40 17t-17 40t17 40t40 17t40 -17t17 -40t-17 -40t-40 -17z" />
    <glyph glyph-name="uni1EEA" unicode="&#x1eea;" horiz-adv-x="783" 
d="M342 -10q-96 0 -156 47t-60 149q0 16 2 33.5t5 36.5l61 348l-69 40l3 16h238l-4 -16l-82 -40l-59 -333q-4 -19 -5.5 -37t-1.5 -34q0 -87 43.5 -122t110.5 -35q36 0 75.5 19.5t70.5 61.5t43 112l65 370l-89 38l4 16h237q28 0 40.5 13t16.5 38l5 35l7 6h30q12 0 17.5 -3
t5.5 -13q0 -34 -27 -63t-78 -29h-21l-82 -39l-61 -349q-17 -98 -58 -156t-99.5 -84t-127.5 -26zM459 710l-129 89q-20 14 -21.5 31t0.5 32h70l90 -152h-10z" />
    <glyph glyph-name="uni1EEC" unicode="&#x1eec;" horiz-adv-x="783" 
d="M342 -10q-96 0 -156 47t-60 149q0 16 2 33.5t5 36.5l61 348l-69 40l3 16h238l-4 -16l-82 -40l-59 -333q-4 -19 -5.5 -37t-1.5 -34q0 -87 43.5 -122t110.5 -35q36 0 75.5 19.5t70.5 61.5t43 112l65 370l-89 38l4 16h237q28 0 40.5 13t16.5 38l5 35l7 6h30q12 0 17.5 -3
t5.5 -13q0 -34 -27 -63t-78 -29h-21l-82 -39l-61 -349q-17 -98 -58 -156t-99.5 -84t-127.5 -26zM427 702l-5 6v1q38 12 57.5 27.5t19.5 42.5q0 17 -14.5 28.5t-49.5 18.5l18 49q52 -5 72.5 -27t20.5 -48q0 -74 -119 -98z" />
    <glyph glyph-name="uni1EEE" unicode="&#x1eee;" horiz-adv-x="783" 
d="M342 -10q-96 0 -156 47t-60 149q0 16 2 33.5t5 36.5l61 348l-69 40l3 16h238l-4 -16l-82 -40l-59 -333q-4 -19 -5.5 -37t-1.5 -34q0 -87 43.5 -122t110.5 -35q36 0 75.5 19.5t70.5 61.5t43 112l65 370l-89 38l4 16h237q28 0 40.5 13t16.5 38l5 35l7 6h30q12 0 17.5 -3
t5.5 -13q0 -34 -27 -63t-78 -29h-21l-82 -39l-61 -349q-17 -98 -58 -156t-99.5 -84t-127.5 -26zM321 726q25 52 43 76t32.5 31t31.5 7q25 0 44.5 -15t36.5 -29.5t37 -14.5q17 0 31.5 9.5t38.5 49.5h16q-25 -52 -43 -76t-33 -31t-31 -7q-25 0 -44 15t-36 29.5t-37 14.5
q-17 0 -32 -9.5t-39 -49.5h-16z" />
    <glyph glyph-name="uni1E80" unicode="&#x1e80;" horiz-adv-x="947" 
d="M226 -5l-70 611l-66 38l4 16h241l-3 -16l-91 -36l46 -450h7l249 507h35l85 -506h5l197 451l-81 34l3 16h210l-3 -16l-68 -33l-281 -616h-35l-87 499h-7l-254 -499h-36zM563 710l-129 89q-20 14 -21.5 31t0.5 32h70l90 -152h-10z" />
    <glyph glyph-name="uni1E82" unicode="&#x1e82;" horiz-adv-x="947" 
d="M226 -5l-70 611l-66 38l4 16h241l-3 -16l-91 -36l46 -450h7l249 507h35l85 -506h5l197 451l-81 34l3 16h210l-3 -16l-68 -33l-281 -616h-35l-87 499h-7l-254 -499h-36zM563 710l106 152h78q-3 -15 -11 -30.5t-32 -32.5l-131 -89h-10z" />
    <glyph glyph-name="uni0174" unicode="&#x174;" horiz-adv-x="947" 
d="M226 -5l-70 611l-66 38l4 16h241l-3 -16l-91 -36l46 -450h7l249 507h35l85 -506h5l197 451l-81 34l3 16h210l-3 -16l-68 -33l-281 -616h-35l-87 499h-7l-254 -499h-36zM423 710l157 152h28l95 -152h-10l-110 82l-150 -82h-10z" />
    <glyph glyph-name="uni1E84" unicode="&#x1e84;" horiz-adv-x="947" 
d="M226 -5l-70 611l-66 38l4 16h241l-3 -16l-91 -36l46 -450h7l249 507h35l85 -506h5l197 451l-81 34l3 16h210l-3 -16l-68 -33l-281 -616h-35l-87 499h-7l-254 -499h-36zM497 741q-19 0 -32 13t-13 32t13 32t32 13t32 -13t13 -32t-13 -32t-32 -13zM667 741q-19 0 -32 13
t-13 32t13 32t32 13t32 -13t13 -32t-13 -32t-32 -13z" />
    <glyph glyph-name="uni1EF2" unicode="&#x1ef2;" horiz-adv-x="679" 
d="M166 0l3 16l92 40l45 251l-158 303l-53 34l4 16h226l-4 -16l-81 -32l-1 -4l132 -251l202 249l1 4l-70 34l4 16h206l-3 -16l-64 -31l-256 -305l-45 -252l79 -40l-3 -16h-256zM416 710l-129 89q-20 14 -21.5 31t0.5 32h70l90 -152h-10z" />
    <glyph glyph-name="uni00DD" unicode="&#xdd;" horiz-adv-x="679" 
d="M166 0l3 16l92 40l45 251l-158 303l-53 34l4 16h226l-4 -16l-81 -32l-1 -4l132 -251l202 249l1 4l-70 34l4 16h206l-3 -16l-64 -31l-256 -305l-45 -252l79 -40l-3 -16h-256zM416 710l106 152h78q-3 -15 -11 -30.5t-32 -32.5l-131 -89h-10z" />
    <glyph glyph-name="uni0176" unicode="&#x176;" horiz-adv-x="679" 
d="M166 0l3 16l92 40l45 251l-158 303l-53 34l4 16h226l-4 -16l-81 -32l-1 -4l132 -251l202 249l1 4l-70 34l4 16h206l-3 -16l-64 -31l-256 -305l-45 -252l79 -40l-3 -16h-256zM276 710l157 152h28l95 -152h-10l-110 82l-150 -82h-10z" />
    <glyph glyph-name="uni0178" unicode="&#x178;" horiz-adv-x="679" 
d="M166 0l3 16l92 40l45 251l-158 303l-53 34l4 16h226l-4 -16l-81 -32l-1 -4l132 -251l202 249l1 4l-70 34l4 16h206l-3 -16l-64 -31l-256 -305l-45 -252l79 -40l-3 -16h-256zM350 741q-19 0 -32 13t-13 32t13 32t32 13t32 -13t13 -32t-13 -32t-32 -13zM520 741
q-19 0 -32 13t-13 32t13 32t32 13t32 -13t13 -32t-13 -32t-32 -13z" />
    <glyph glyph-name="uni1EF8" unicode="&#x1ef8;" horiz-adv-x="679" 
d="M166 0l3 16l92 40l45 251l-158 303l-53 34l4 16h226l-4 -16l-81 -32l-1 -4l132 -251l202 249l1 4l-70 34l4 16h206l-3 -16l-64 -31l-256 -305l-45 -252l79 -40l-3 -16h-256zM278 726q25 52 43 76t32.5 31t31.5 7q25 0 44.5 -15t36.5 -29.5t37 -14.5q17 0 31.5 9.5
t38.5 49.5h16q-25 -52 -43 -76t-33 -31t-31 -7q-25 0 -44 15t-36 29.5t-37 14.5q-17 0 -32 -9.5t-39 -49.5h-16z" />
    <glyph glyph-name="uni0232" unicode="&#x232;" horiz-adv-x="679" 
d="M166 0l3 16l92 40l45 251l-158 303l-53 34l4 16h226l-4 -16l-81 -32l-1 -4l132 -251l202 249l1 4l-70 34l4 16h206l-3 -16l-64 -31l-256 -305l-45 -252l79 -40l-3 -16h-256zM303 767l8 44h253l-9 -44h-252z" />
    <glyph glyph-name="uni1EF4" unicode="&#x1ef4;" horiz-adv-x="679" 
d="M166 0l3 16l92 40l45 251l-158 303l-53 34l4 16h226l-4 -16l-81 -32l-1 -4l132 -251l202 249l1 4l-70 34l4 16h206l-3 -16l-64 -31l-256 -305l-45 -252l79 -40l-3 -16h-256zM269 -209q-23 0 -40 17t-17 40t17 40t40 17t40 -17t17 -40t-17 -40t-40 -17z" />
    <glyph glyph-name="uni1EF6" unicode="&#x1ef6;" horiz-adv-x="679" 
d="M166 0l3 16l92 40l45 251l-158 303l-53 34l4 16h226l-4 -16l-81 -32l-1 -4l132 -251l202 249l1 4l-70 34l4 16h206l-3 -16l-64 -31l-256 -305l-45 -252l79 -40l-3 -16h-256zM384 702l-5 6v1q38 12 57.5 27.5t19.5 42.5q0 17 -14.5 28.5t-49.5 18.5l18 49q52 -5 72.5 -27
t20.5 -48q0 -74 -119 -98z" />
    <glyph glyph-name="uni1E8E" unicode="&#x1e8e;" horiz-adv-x="679" 
d="M166 0l3 16l92 40l45 251l-158 303l-53 34l4 16h226l-4 -16l-81 -32l-1 -4l132 -251l202 249l1 4l-70 34l4 16h206l-3 -16l-64 -31l-256 -305l-45 -252l79 -40l-3 -16h-256zM434 729q-23 0 -40 17t-17 40t17 40t40 17t40 -17t17 -40t-17 -40t-40 -17z" />
    <glyph glyph-name="uni0179" unicode="&#x179;" horiz-adv-x="618" 
d="M35 0l6 35l428 575h-239l-84 -132h-16l32 182h421l-6 -35l-430 -575h263l85 142h16l-34 -192h-442zM377 710l106 152h78q-3 -15 -11 -30.5t-32 -32.5l-131 -89h-10z" />
    <glyph glyph-name="uni017D" unicode="&#x17d;" horiz-adv-x="618" 
d="M35 0l6 35l428 575h-239l-84 -132h-16l32 182h421l-6 -35l-430 -575h263l85 142h16l-34 -192h-442zM369 710l-95 152h10l110 -82l150 82h10l-157 -152h-28z" />
    <glyph glyph-name="uni017B" unicode="&#x17b;" horiz-adv-x="618" 
d="M35 0l6 35l428 575h-239l-84 -132h-16l32 182h421l-6 -35l-430 -575h263l85 142h16l-34 -192h-442zM395 729q-23 0 -40 17t-17 40t17 40t40 17t40 -17t17 -40t-17 -40t-40 -17z" />
    <glyph glyph-name="uni1E92" unicode="&#x1e92;" horiz-adv-x="618" 
d="M35 0l6 35l428 575h-239l-84 -132h-16l32 182h421l-6 -35l-430 -575h263l85 142h16l-34 -192h-442zM243 -209q-23 0 -40 17t-17 40t17 40t40 17t40 -17t17 -40t-17 -40t-40 -17z" />
    <glyph glyph-name="uni018F" unicode="&#x18f;" horiz-adv-x="617" 
d="M237 -10q-90 0 -141 56t-51 159q0 20 1.5 42t6.5 46l9 7h422q8 49 8 104q0 94 -44 148.5t-139 54.5q-63 0 -113 -25.5t-100 -70.5h-4l3 18q41 61 107 101t146 40q107 0 165.5 -64t58.5 -174q0 -89 -24 -168.5t-68.5 -141t-106 -97t-136.5 -35.5zM122 209q0 -48 12 -86
t40.5 -60t80.5 -22q85 0 140 58t79 151h-350q0 -10 -1 -20.5t-1 -20.5z" />
    <glyph glyph-name="uni014A" unicode="&#x14a;" horiz-adv-x="776" 
d="M10 0l3 16l85 40l96 546l-70 42l3 16h140l278 -498l78 444l-92 38l4 16h236l-3 -16l-84 -39l-110 -631q-12 -70 -36 -110.5t-53 -63.5q-23 -19 -56 -29.5t-63 -10.5q-17 0 -23.5 6t-2.5 22l12 50l4 4h31q57 0 83.5 25.5t37.5 86.5l14 73l-280 497l-83 -469l92 -39l-4 -16
h-237z" />
    <glyph glyph-name="uni00D0" unicode="&#xd0;" horiz-adv-x="732" 
d="M10 0l3 16l83 40l47 266h-74l8 41h73l42 241l-69 40l3 16h221q119 0 193 -34.5t108 -95t34 -138.5q0 -49 -14.5 -102.5t-45 -105t-78 -93t-112.5 -66.5t-150 -25h-272zM393 322h-165l-48 -272h110q99 0 165.5 41t100 115t33.5 174q0 106 -61.5 168t-194.5 62h-54
l-44 -247h166z" />
    <glyph glyph-name="uni00DE" unicode="&#xde;" horiz-adv-x="621" 
d="M362 660l-3 -16l-81 -40l-13 -76h59q111 0 178.5 -39t67.5 -124q0 -53 -34.5 -99.5t-99 -75.5t-154.5 -29h-82l-19 -105l77 -40l-3 -16h-245l3 16l83 40l96 548l-72 40l3 16h239zM319 478h-63l-48 -267h97q87 0 129 41.5t42 105.5q0 63 -41 91.5t-116 28.5z" />
    <glyph glyph-name="uni01C4" unicode="&#x1c4;" horiz-adv-x="1340" 
d="M10 0l3 16l83 40l96 548l-69 40l3 16h221q119 0 193 -34.5t108 -95t34 -138.5q0 -49 -14.5 -102.5t-45 -105t-78 -93t-112.5 -66.5t-150 -25h-272zM333 610h-54l-99 -560h110q99 0 165.5 41t100 115t33.5 174q0 106 -61.5 168t-194.5 62zM757 0l6 35l428 575h-239
l-84 -132h-16l32 182h421l-6 -35l-430 -575h263l85 142h16l-34 -192h-442zM1091 710l-95 152h10l110 -82l150 82h10l-157 -152h-28z" />
    <glyph glyph-name="uni01C7" unicode="&#x1c7;" horiz-adv-x="973" 
d="M10 0l3 16l83 40l96 548l-69 40l3 16h247l-3 -16l-92 -40l-97 -554h231l93 172h16l-39 -222h-472zM564 -173q-14 0 -22.5 9.5t-0.5 33.5l13 39h6q15 -5 24 -7t22 -2q20 0 37 10t31 42t25 99l98 553l-69 40l3 16h237l-3 -16l-82 -40l-65 -364q-20 -112 -52.5 -201.5
t-82.5 -137.5q-33 -31 -52 -47t-34 -21.5t-33 -5.5z" />
    <glyph glyph-name="uni01CA" unicode="&#x1ca;" horiz-adv-x="1141" 
d="M10 0l3 16l85 40l96 546l-70 42l3 16h140l278 -498l78 444l-92 38l4 16h236l-3 -16l-84 -39l-107 -610h-37l-298 529l-83 -469l92 -39l-4 -16h-237zM732 -173q-14 0 -22.5 9.5t-0.5 33.5l13 39h6q15 -5 24 -7t22 -2q20 0 37 10t31 42t25 99l98 553l-69 40l3 16h237
l-3 -16l-82 -40l-65 -364q-20 -112 -52.5 -201.5t-82.5 -137.5q-33 -31 -52 -47t-34 -21.5t-33 -5.5z" />
    <glyph glyph-name="uni0402" unicode="&#x402;" horiz-adv-x="791" 
d="M123 0l4 16l101 40l99 554h-145l-91 -152h-16l35 202h555l-36 -202h-16l-38 152h-162l-50 -281q33 22 79 37t94 15q91 0 134.5 -52.5t25.5 -156.5q-8 -50 -25.5 -101.5t-42 -96.5t-54.5 -73q-35 -32 -56 -48t-37 -21t-36 -5q-13 0 -21.5 6t-6.5 22q1 2 3.5 10t16.5 44h6
q17 -5 26 -7t23 -2q22 0 39.5 10t32 42t25.5 99l17 100q16 91 -11.5 128t-102.5 37q-37 0 -72 -8t-66 -26l-40 -226l88 -40l-3 -16h-276z" />
    <glyph glyph-name="uni0404" unicode="&#x404;" horiz-adv-x="669" 
d="M320 -10q-83 0 -141 34.5t-88.5 95t-30.5 139.5q0 85 31 160t84.5 131t123 88t146.5 32q57 0 96.5 -11t87.5 -37l-26 -175h-16l-40 124q-25 26 -50.5 39.5t-63.5 13.5q-77 0 -134 -34.5t-92 -93.5t-48 -132h235l65 83h16l-38 -214h-16l-36 81h-231q-1 -14 -1 -28
q0 -118 54.5 -184t139.5 -66q43 0 80 17t66 36l80 109h16l-38 -159q-31 -15 -63.5 -26t-72.5 -17t-95 -6z" />
    <glyph glyph-name="uni0405" unicode="&#x405;" horiz-adv-x="489" 
d="M177 -10q-59 0 -98 11.5t-79 34.5l19 164h16l39 -117q27 -27 54.5 -39t56.5 -12q71 0 107 41.5t36 107.5q0 41 -26.5 70t-95.5 67q-56 32 -82 68t-26 85q0 57 31 102t79.5 71t101.5 26q44 0 79 -11t70 -31l-18 -160h-16l-37 116q-17 16 -39.5 29t-57.5 13
q-31 0 -57.5 -16.5t-43 -47t-16.5 -70.5q0 -36 22.5 -62.5t75.5 -56.5q52 -29 82 -54.5t43.5 -54t13.5 -65.5q0 -62 -33 -109t-86.5 -73.5t-114.5 -26.5z" />
    <glyph glyph-name="uni0406" unicode="&#x406;" horiz-adv-x="365" 
d="M10 0l3 16l76 40l97 548l-72 40l3 16h238l-3 -16l-81 -40l-97 -548l77 -40l-3 -16h-238z" />
    <glyph glyph-name="uni0407" unicode="&#x407;" horiz-adv-x="365" 
d="M10 0l3 16l76 40l97 548l-72 40l3 16h238l-3 -16l-81 -40l-97 -548l77 -40l-3 -16h-238zM175 741q-19 0 -32 13t-13 32t13 32t32 13t32 -13t13 -32t-13 -32t-32 -13zM345 741q-19 0 -32 13t-13 32t13 32t32 13t32 -13t13 -32t-13 -32t-32 -13z" />
    <glyph glyph-name="uni0408" unicode="&#x408;" horiz-adv-x="375" 
d="M-34 -173q-14 0 -22.5 9.5t-0.5 33.5l13 39h6q15 -5 24 -7t22 -2q20 0 37 10t31 42t25 99l98 553l-69 40l3 16h237l-3 -16l-82 -40l-65 -364q-20 -112 -52.5 -201.5t-82.5 -137.5q-33 -31 -52 -47t-34 -21.5t-33 -5.5z" />
    <glyph glyph-name="uni0409" unicode="&#x409;" horiz-adv-x="972" 
d="M294 556q-29 -166 -61 -277.5t-77 -187.5q-38 -61 -73 -81t-63 -20q-22 0 -27 6t-2 23l10 55l4 4h10q55 0 96.5 62t72.5 170t54 246l8 48l-73 40l3 16h523l-3 -16l-91 -40l-38 -216h102q118 0 178 -48t60 -132q0 -91 -75.5 -149.5t-231.5 -58.5h-256l3 16l76 40l98 554
h-218zM507 50h102q104 0 156 42.5t52 114.5q0 131 -166 131h-93z" />
    <glyph glyph-name="uni040A" unicode="&#x40a;" horiz-adv-x="1037" 
d="M10 0l3 16l76 40l97 548l-72 40l3 16h238l-3 -16l-81 -40l-41 -229h314l41 229l-72 40l3 16h248l-3 -16l-91 -40l-41 -229h105q118 0 178 -45.5t60 -124.5q0 -89 -75.5 -147t-231.5 -58h-256l3 16l76 40l48 269h-314l-48 -269l77 -40l-3 -16h-238zM572 50h102
q104 0 156 42t52 112q0 121 -166 121h-95z" />
    <glyph glyph-name="uni040B" unicode="&#x40b;" horiz-adv-x="846" 
d="M123 0l4 16l101 40l99 554h-145l-91 -152h-16l35 202h555l-36 -202h-16l-38 152h-162l-50 -281q33 22 79 37t94 15q83 0 126.5 -47.5t25.5 -151.5l-22 -126l73 -40l-3 -16h-166l30 173q14 77 -11.5 110t-96.5 33q-37 0 -72 -8t-66 -26l-40 -226l88 -40l-3 -16h-276z" />
    <glyph glyph-name="uni040F" unicode="&#x40f;" horiz-adv-x="764" 
d="M270 0h-260l3 16l81 40l97 548l-77 40l3 16h238l-3 -16l-76 -40l-98 -554h314l98 554l-77 40l3 16h238l-3 -16l-76 -40l-97 -548l72 -40l-3 -16h-265l-77 -167h-16z" />
    <glyph glyph-name="uni0410" unicode="&#x410;" horiz-adv-x="715" 
d="M-15 0l4 16l59 31l353 618h43l131 -613l60 -36l-4 -16h-237l3 16l91 35l-37 187h-237l-107 -190l81 -32l-3 -16h-200zM242 288h199l-52 262z" />
    <glyph glyph-name="uni0411" unicode="&#x411;" horiz-adv-x="636" 
d="M117 660h464l-30 -172h-16l-38 122h-225l-41 -232h104q115 0 174.5 -46.5t59.5 -128.5q0 -89 -74.5 -146t-228.5 -57h-256l3 16l76 40l97 548l-72 40zM173 50h102q102 0 153 41t51 111q0 126 -162 126h-95z" />
    <glyph glyph-name="uni0412" unicode="&#x412;" horiz-adv-x="626" 
d="M10 0l3 16l83 40l96 548l-69 40l3 16h216q100 0 159.5 -35t59.5 -105q0 -53 -39.5 -101t-112.5 -66q78 -13 117.5 -52.5t39.5 -100.5q0 -48 -32 -94t-96 -76t-159 -30h-269zM339 610h-61l-43 -245h64q85 0 127 39.5t42 98.5q0 53 -30 80t-99 27zM314 315h-88l-46 -265
h108q93 0 138.5 41t45.5 109q0 60 -38 87.5t-120 27.5z" />
    <glyph glyph-name="uni0413" unicode="&#x413;" horiz-adv-x="593" 
d="M10 0l3 16l83 40l96 548l-69 40l3 16h445l-30 -172h-16l-38 122h-208l-98 -554l89 -40l-3 -16h-257z" />
    <glyph glyph-name="uni0403" unicode="&#x403;" horiz-adv-x="593" 
d="M10 0l3 16l83 40l96 548l-69 40l3 16h445l-30 -172h-16l-38 122h-208l-98 -554l89 -40l-3 -16h-257zM328 710l106 152h78q-3 -15 -11 -30.5t-32 -32.5l-131 -89h-10z" />
    <glyph glyph-name="uni0492" unicode="&#x492;" horiz-adv-x="593" 
d="M10 0l3 16l83 40l47 266h-75l8 41h74l42 241l-69 40l3 16h445l-30 -172h-16l-38 122h-208l-44 -247h166l-8 -41h-165l-47 -266l89 -40l-3 -16h-257z" />
    <glyph glyph-name="uni0414" unicode="&#x414;" horiz-adv-x="759" 
d="M90 0l-109 -167h-16l38 217h73q41 71 70 146t51.5 163t42.5 197l9 48l-73 40l3 16h550l-3 -16l-81 -40l-98 -554h100l-38 -217h-16l-47 167h-456zM298 556q-20 -110 -41.5 -198t-49 -163t-65.5 -145h320l99 560h-253z" />
    <glyph glyph-name="uni0415" unicode="&#x415;" horiz-adv-x="621" 
d="M10 0l3 16l83 40l96 548l-69 40l3 16h460l-31 -172h-16l-37 122h-223l-43 -244h161l62 85h16l-39 -219h-16l-31 84h-162l-47 -266h267l80 132h16l-32 -182h-501z" />
    <glyph glyph-name="uni0401" unicode="&#x401;" horiz-adv-x="621" 
d="M10 0l3 16l83 40l96 548l-69 40l3 16h460l-31 -172h-16l-37 122h-223l-43 -244h161l62 85h16l-39 -219h-16l-31 84h-162l-47 -266h267l80 132h16l-32 -182h-501zM328 741q-19 0 -32 13t-13 32t13 32t32 13t32 -13t13 -32t-13 -32t-32 -13zM498 741q-19 0 -32 13t-13 32
t13 32t32 13t32 -13t13 -32t-13 -32t-32 -13z" />
    <glyph glyph-name="uni0416" unicode="&#x416;" horiz-adv-x="1005" 
d="M336 0l2 16l84 40l95 548l-68 40l2 16h238l-3 -16l-83 -40l-96 -548l69 -40l-3 -16h-237zM795 0l-238 338l301 272l-62 34l3 16h200l-4 -16l-61 -23l-293 -265l218 -304l61 -36l-3 -16h-122zM113 0h-134l3 16l76 36l330 310l-196 258l-53 24l2 16h200l-3 -16l-74 -34
l205 -272z" />
    <glyph glyph-name="uni0417" unicode="&#x417;" horiz-adv-x="622" 
d="M365 625q-36 0 -65 -9.5t-62 -33.5l-89 -132h-18l36 175q44 19 90.5 32t120.5 13q62 0 103 -20.5t61 -54t20 -72.5q0 -37 -18 -73t-54 -64t-90 -41q75 -13 109.5 -51t34.5 -92q0 -51 -34 -99.5t-96 -80.5t-147 -32q-56 0 -95 6.5t-67.5 17.5t-54.5 25l17 159h17l48 -122
q20 -16 50 -28.5t84 -12.5q61 0 101.5 23t61 58.5t20.5 72.5q0 59 -37.5 92.5t-114.5 33.5h-79l10 50h76q54 0 90.5 23.5t55.5 59.5t19 72q0 42 -25.5 73.5t-78.5 31.5z" />
    <glyph glyph-name="uni0418" unicode="&#x418;" horiz-adv-x="784" 
d="M10 0l3 16l76 40l97 548l-72 40l3 16h238l-3 -16l-81 -40l-77 -436l402 387l9 49l-72 40l3 16h238l-3 -16l-81 -40l-97 -548l77 -40l-3 -16h-238l3 16l76 40l74 420l-402 -385l-6 -35l77 -40l-3 -16h-238z" />
    <glyph glyph-name="uni0419" unicode="&#x419;" horiz-adv-x="784" 
d="M10 0l3 16l76 40l97 548l-72 40l3 16h238l-3 -16l-81 -40l-77 -436l402 387l9 49l-72 40l3 16h238l-3 -16l-81 -40l-97 -548l77 -40l-3 -16h-238l3 16l76 40l74 420l-402 -385l-6 -35l77 -40l-3 -16h-238zM308 862h86q-9 -53 3.5 -89.5t58.5 -36.5t71.5 36.5t34.5 89.5
h86q-11 -63 -61.5 -107.5t-134.5 -44.5t-119.5 44.5t-24.5 107.5z" />
    <glyph glyph-name="uni04E2" unicode="&#x4e2;" horiz-adv-x="784" 
d="M10 0l3 16l76 40l97 548l-72 40l3 16h238l-3 -16l-81 -40l-77 -436l402 387l9 49l-72 40l3 16h238l-3 -16l-81 -40l-97 -548l77 -40l-3 -16h-238l3 16l76 40l74 420l-402 -385l-6 -35l77 -40l-3 -16h-238zM326 767l8 44h253l-9 -44h-252z" />
    <glyph glyph-name="uni041A" unicode="&#x41a;" horiz-adv-x="700" 
d="M10 0l3 16l83 40l96 548l-69 40l3 16h238l-4 -16l-82 -40l-97 -548l70 -40l-4 -16h-237zM480 0l-248 338l311 272l-62 34l3 16h200l-4 -16l-61 -24l-301 -262l234 -306l61 -36l-3 -16h-130z" />
    <glyph glyph-name="uni040C" unicode="&#x40c;" horiz-adv-x="700" 
d="M10 0l3 16l83 40l96 548l-69 40l3 16h238l-4 -16l-82 -40l-97 -548l70 -40l-4 -16h-237zM480 0l-248 338l311 272l-62 34l3 16h200l-4 -16l-61 -24l-301 -262l234 -306l61 -36l-3 -16h-130zM425 710l106 152h78q-3 -15 -11 -30.5t-32 -32.5l-131 -89h-10z" />
    <glyph glyph-name="uni041B" unicode="&#x41b;" horiz-adv-x="722" 
d="M367 0l3 16l76 40l98 554h-241l-9 -54q-29 -166 -61 -277.5t-77 -187.5q-38 -61 -73 -81t-63 -20q-22 0 -27 6t-2 23l10 55l4 4h10q55 0 96.5 62t72.5 170t54 246l8 48l-73 40l3 16h536l-3 -16l-81 -40l-97 -548l77 -40l-3 -16h-238z" />
    <glyph glyph-name="uni041C" unicode="&#x41c;" horiz-adv-x="922" 
d="M10 0l3 16l82 40l118 547l-83 41l4 16h178l132 -539l300 539h168l-4 -16l-84 -39l-64 -549l60 -40l-3 -16h-221l3 16l77 39l60 489l-307 -549h-42l-132 549l-101 -489l70 -39l-3 -16h-211z" />
    <glyph glyph-name="uni041D" unicode="&#x41d;" horiz-adv-x="774" 
d="M10 0l3 16l76 40l97 548l-72 40l3 16h238l-3 -16l-81 -40l-42 -239h324l42 239l-72 40l3 16h238l-3 -16l-81 -40l-97 -548l77 -40l-3 -16h-238l3 16l76 40l46 259h-324l-46 -259l77 -40l-3 -16h-238z" />
    <glyph glyph-name="uni041E" unicode="&#x41e;" horiz-adv-x="766" 
d="M332 -10q-82 0 -143 37t-95 103t-34 152q0 75 28 145t78.5 125t118.5 87t148 32q83 0 144 -37t95 -103.5t34 -152.5q0 -74 -27.5 -143t-77.5 -124.5t-118.5 -88t-150.5 -32.5zM364 38q56 0 102 26t79.5 72.5t52 106t18.5 127.5q0 76 -26.5 133t-74 89.5t-109.5 32.5
q-74 0 -132 -44.5t-90.5 -120t-32.5 -168.5q0 -75 27 -132.5t74.5 -89.5t111.5 -32z" />
    <glyph glyph-name="uni041F" unicode="&#x41f;" horiz-adv-x="764" 
d="M10 0l3 16l76 40l97 548l-72 40l3 16h637l-3 -16l-81 -40l-97 -548l77 -40l-3 -16h-238l3 16l76 40l98 554h-314l-98 -554l77 -40l-3 -16h-238z" />
    <glyph glyph-name="uni0420" unicode="&#x420;" horiz-adv-x="621" 
d="M10 0l3 16l83 40l96 548l-69 40l3 16h219q111 0 178.5 -39t67.5 -124q0 -53 -34.5 -99.5t-99.5 -75.5t-154 -29h-80l-42 -237l79 -40l-3 -16h-247zM279 610l-47 -267h94q87 0 129 41.5t42 105.5q0 63 -41 91.5t-116 28.5h-61z" />
    <glyph glyph-name="uni0421" unicode="&#x421;" horiz-adv-x="669" 
d="M320 -10q-83 0 -141 34.5t-88.5 95t-30.5 139.5q0 85 31 160t84.5 131t123 88t146.5 32q57 0 96.5 -11t87.5 -37l-26 -175h-16l-40 124q-25 26 -50.5 39.5t-63.5 13.5q-68 0 -120 -27t-87.5 -74.5t-54 -108t-18.5 -128.5q0 -118 54.5 -184t139.5 -66q43 0 80 17t66 36
l80 109h16l-38 -159q-31 -15 -63.5 -26t-72.5 -17t-95 -6z" />
    <glyph glyph-name="uni0422" unicode="&#x422;" horiz-adv-x="645" 
d="M133 0l4 16l101 40l99 554h-155l-91 -152h-16l35 202h555l-36 -202h-16l-38 152h-152l-99 -554l88 -40l-3 -16h-276z" />
    <glyph glyph-name="uni0423" unicode="&#x423;" horiz-adv-x="693" 
d="M389 202q-55 -82 -93 -128t-70.5 -65t-69.5 -19q-22 0 -27 6t-2 23l10 55l4 4h10q47 0 78 18.5t56 53.5l-141 458l-64 36l3 16h242l-3 -16l-92 -37l-1 -5l111 -363h10l241 367v4l-76 34l3 16h210l-3 -16l-59 -29z" />
    <glyph glyph-name="uni040E" unicode="&#x40e;" horiz-adv-x="693" 
d="M389 202q-55 -82 -93 -128t-70.5 -65t-69.5 -19q-22 0 -27 6t-2 23l10 55l4 4h10q47 0 78 18.5t56 53.5l-141 458l-64 36l3 16h242l-3 -16l-92 -37l-1 -5l111 -363h10l241 367v4l-76 34l3 16h210l-3 -16l-59 -29zM287 862h86q-9 -53 3.5 -89.5t58.5 -36.5t71.5 36.5
t34.5 89.5h86q-11 -63 -61.5 -107.5t-134.5 -44.5t-119.5 44.5t-24.5 107.5z" />
    <glyph glyph-name="uni04EE" unicode="&#x4ee;" horiz-adv-x="693" 
d="M389 202q-55 -82 -93 -128t-70.5 -65t-69.5 -19q-22 0 -27 6t-2 23l10 55l4 4h10q47 0 78 18.5t56 53.5l-141 458l-64 36l3 16h242l-3 -16l-92 -37l-1 -5l111 -363h10l241 367v4l-76 34l3 16h210l-3 -16l-59 -29zM311 767l8 44h253l-9 -44h-252z" />
    <glyph glyph-name="uni0424" unicode="&#x424;" horiz-adv-x="837" 
d="M243 -20l3 16l76 40l8 44q-147 3 -221 60.5t-74 158.5q0 74 46 136.5t132 102t204 42.5l8 44l-72 40l3 16h238l-3 -16l-81 -40l-8 -44q147 -3 221 -60.5t74 -158.5q0 -74 -46 -136.5t-132 -102t-204 -42.5l-8 -44l77 -40l-3 -16h-238zM707 351q0 85 -55 133.5t-157 53.5
l-73 -415q97 0 160.5 31.5t94 83t30.5 113.5zM125 309q0 -85 55 -133.5t157 -53.5l73 415q-97 0 -160.5 -31.5t-94 -83t-30.5 -113.5z" />
    <glyph glyph-name="uni0425" unicode="&#x425;" horiz-adv-x="702" 
d="M-25 0l4 16l73 35l262 285l-150 275l-54 33l3 16h237l-3 -16l-93 -33l-1 -5l125 -224l200 224v4l-69 34l3 16h205l-3 -16l-61 -32l-251 -273l160 -286l60 -37l-3 -16h-242l3 16l87 34l1 4l-130 238l-214 -238v-4l75 -34l-3 -16h-221z" />
    <glyph glyph-name="uni0426" unicode="&#x426;" horiz-adv-x="784" 
d="M584 0h-574l3 16l81 40l97 548l-77 40l3 16h238l-3 -16l-76 -40l-98 -554h314l98 554l-77 40l3 16h238l-3 -16l-76 -40l-98 -554h100l-38 -217h-16z" />
    <glyph glyph-name="uni0427" unicode="&#x427;" horiz-adv-x="721" 
d="M366 0l3 16l76 40l44 249q-35 -12 -73 -19.5t-80 -7.5q-78 0 -130 20.5t-73 69t-5 132.5l19 104l-72 40l3 16h238l-3 -16l-81 -40l-19 -105q-17 -94 13.5 -132t114.5 -38q45 0 82 5.5t75 18.5l44 251l-72 40l3 16h238l-3 -16l-81 -40l-97 -548l77 -40l-3 -16h-238z" />
    <glyph glyph-name="uni0428" unicode="&#x428;" horiz-adv-x="1049" 
d="M355 660l-3 -16l-76 -40l-98 -554h257l98 554l-77 40l3 16h238l-3 -16l-76 -40l-98 -554h257l98 554l-77 40l3 16h238l-3 -16l-76 -40l-97 -548l72 -40l-3 -16h-922l3 16l81 40l97 548l-77 40l3 16h238z" />
    <glyph glyph-name="uni0429" unicode="&#x429;" horiz-adv-x="1069" 
d="M355 660l-3 -16l-76 -40l-98 -554h257l98 554l-77 40l3 16h238l-3 -16l-76 -40l-98 -554h257l98 554l-77 40l3 16h238l-3 -16l-76 -40l-98 -554h100l-38 -217h-16l-39 167h-859l3 16l81 40l97 548l-77 40l3 16h238z" />
    <glyph glyph-name="uni042A" unicode="&#x42a;" horiz-adv-x="732" 
d="M459 660l-3 -16l-91 -40l-38 -216h102q118 0 178 -48t60 -132q0 -91 -75.5 -149.5t-231.5 -58.5h-256l3 16l76 40l98 554h-107l-93 -152h-16l35 202h359zM267 50h102q104 0 156 42.5t52 114.5q0 131 -166 131h-93z" />
    <glyph glyph-name="uni042B" unicode="&#x42b;" horiz-adv-x="1003" 
d="M117 660h248l-3 -16l-91 -40l-38 -216h102q118 0 178 -48t60 -132q0 -91 -75.5 -149.5t-231.5 -58.5h-256l3 16l76 40l97 548l-72 40zM173 50h102q104 0 156 42.5t52 114.5q0 131 -166 131h-93zM648 0l3 16l76 40l97 548l-72 40l3 16h238l-3 -16l-81 -40l-97 -548l77 -40
l-3 -16h-238z" />
    <glyph glyph-name="uni042C" unicode="&#x42c;" horiz-adv-x="638" 
d="M117 660h248l-3 -16l-91 -40l-38 -216h102q118 0 178 -48t60 -132q0 -91 -75.5 -149.5t-231.5 -58.5h-256l3 16l76 40l97 548l-72 40zM173 50h102q104 0 156 42.5t52 114.5q0 131 -166 131h-93z" />
    <glyph glyph-name="uni042D" unicode="&#x42d;" horiz-adv-x="681" 
d="M270 446l36 -81h222v9q0 118 -53 184t-136 66q-41 0 -74.5 -16.5t-61.5 -36.5l-80 -109h-16l38 159q46 22 93.5 35.5t121.5 13.5q84 0 142.5 -34.5t88.5 -95t30 -139.5q0 -91 -30.5 -166t-83 -130t-119.5 -85t-141 -30q-45 0 -77 4.5t-60 15t-60 28.5l26 175h16l40 -124
q25 -26 51.5 -39.5t72.5 -13.5q77 0 133.5 36.5t91 100t44.5 142.5h-228l-65 -83h-16l38 214h16z" />
    <glyph glyph-name="uni042E" unicode="&#x42e;" horiz-adv-x="1026" 
d="M10 0l3 16l76 40l97 548l-72 40l3 16h238l-3 -16l-81 -40l-42 -239h120q13 63 44.5 118t78.5 97.5t105.5 66.5t125.5 24q79 0 138.5 -37t92 -103.5t32.5 -152.5q0 -74 -26.5 -143t-75.5 -124.5t-115.5 -88t-146.5 -32.5q-79 0 -138 37t-91.5 103t-32.5 152q0 17 1 33
h-121l-46 -259l77 -40l-3 -16h-238zM634 38q53 0 97.5 26t77 72.5t50 106t17.5 127.5q0 76 -25 133t-70 89.5t-105 32.5q-72 0 -127 -44.5t-86.5 -120t-31.5 -168.5q0 -75 25.5 -132.5t71.5 -89.5t106 -32z" />
    <glyph glyph-name="uni042F" unicode="&#x42f;" horiz-adv-x="683" 
d="M116 0h-139l3 16l72 36l222 245q-68 17 -101 59t-33 101q0 89 75.5 146t231.5 57h226l-3 -16l-76 -40l-97 -548l72 -40l-3 -16h-248l3 16l91 40l40 227h-94zM396 333h65l49 277h-72q-104 0 -156 -41t-52 -111q0 -125 166 -125z" />
    <glyph glyph-name="uni0490" unicode="&#x490;" horiz-adv-x="592" 
d="M10 0l3 16l83 40l96 548l-69 40l3 16h355l102 167h16l-37 -217h-283l-98 -554l89 -40l-3 -16h-257z" />
    <glyph glyph-name="uni049A" unicode="&#x49a;" horiz-adv-x="720" 
d="M10 0l3 16l83 40l96 548l-69 40l3 16h238l-4 -16l-82 -40l-97 -548l70 -40l-4 -16h-237zM480 0l-248 338l311 272l-62 34l3 16h200l-4 -16l-61 -24l-301 -262l236 -308h100l-38 -217h-16l-39 167h-81z" />
    <glyph glyph-name="uni0496" unicode="&#x496;" horiz-adv-x="1025" 
d="M336 0l2 16l84 40l95 548l-68 40l2 16h238l-3 -16l-83 -40l-96 -548l69 -40l-3 -16h-237zM795 0l-238 338l301 272l-62 34l3 16h200l-4 -16l-61 -23l-293 -264l220 -307h98l-38 -217h-16l-39 167h-71zM113 0h-134l3 16l73 36l332 312l-195 256l-53 24l2 16h200l-3 -16
l-74 -34l205 -272z" />
    <glyph glyph-name="uni04B2" unicode="&#x4b2;" horiz-adv-x="730" 
d="M-25 0l4 16l73 35l262 285l-150 275l-54 33l3 16h237l-3 -16l-93 -33l-1 -5l125 -224l200 224v4l-69 34l3 16h205l-3 -16l-61 -32l-251 -273l162 -289h100l-38 -217h-16l-39 167h-194l3 16l87 34l1 4l-130 238l-214 -238v-4l75 -34l-3 -16h-221z" />
    <glyph glyph-name="uni04A2" unicode="&#x4a2;" horiz-adv-x="794" 
d="M10 0l3 16l76 40l97 548l-72 40l3 16h238l-3 -16l-81 -40l-42 -239h324l42 239l-72 40l3 16h238l-3 -16l-81 -40l-98 -554h100l-38 -217h-16l-39 167h-170l3 16l76 40l46 259h-324l-46 -259l77 -40l-3 -16h-238z" />
    <glyph glyph-name="uni04B6" unicode="&#x4b6;" horiz-adv-x="764" 
d="M389 0l3 16l76 40l44 249q-35 -12 -73 -19.5t-80 -7.5q-78 0 -130 20.5t-72.5 69t-5.5 132.5l19 104l-72 40l3 16h238l-3 -16l-81 -40l-19 -105q-17 -94 13.5 -132t114.5 -38q45 0 82 5.5t75 18.5l44 251l-72 40l3 16h238l-3 -16l-81 -40l-98 -554h100l-38 -217h-16
l-39 167h-170z" />
    <glyph glyph-name="uni04AE" unicode="&#x4ae;" horiz-adv-x="679" 
d="M166 0l3 16l92 40l45 251l-158 303l-53 34l4 16h226l-4 -16l-81 -32l-1 -4l132 -251l202 249l1 4l-70 34l4 16h206l-3 -16l-64 -31l-256 -305l-45 -252l79 -40l-3 -16h-256z" />
    <glyph glyph-name="uni04B0" unicode="&#x4b0;" horiz-adv-x="679" 
d="M166 0l3 16l92 40l36 203h-149l8 50h149l-157 301l-53 34l4 16h226l-4 -16l-81 -32l-1 -4l132 -251l202 249l1 4l-70 34l4 16h206l-3 -16l-64 -31l-255 -304h148l-8 -50h-150l-36 -203l79 -40l-3 -16h-256z" />
    <glyph glyph-name="uni04BA" unicode="&#x4ba;" horiz-adv-x="721" 
d="M392 660l-3 -16l-76 -40l-44 -249q35 12 73 19.5t80 7.5q78 0 130 -20.5t73 -69t5 -132.5l-19 -104l72 -40l-3 -16h-238l3 16l81 40l19 105q17 94 -13.5 132t-114.5 38q-45 0 -82 -5.5t-75 -18.5l-44 -251l72 -40l-3 -16h-238l3 16l81 40l97 548l-77 40l3 16h238z" />
    <glyph glyph-name="uni04C0" unicode="&#x4c0;" horiz-adv-x="365" 
d="M10 0l3 16l76 40l97 548l-72 40l3 16h238l-3 -16l-81 -40l-97 -548l77 -40l-3 -16h-238z" />
    <glyph glyph-name="uni04D8" unicode="&#x4d8;" horiz-adv-x="617" 
d="M237 -10q-90 0 -141 56t-51 159q0 20 1.5 42t6.5 46l9 7h422q8 49 8 104q0 94 -44 148.5t-139 54.5q-63 0 -113 -25.5t-100 -70.5h-4l3 18q41 61 107 101t146 40q107 0 165.5 -64t58.5 -174q0 -89 -24 -168.5t-68.5 -141t-106 -97t-136.5 -35.5zM122 209q0 -48 12 -86
t40.5 -60t80.5 -22q85 0 140 58t79 151h-350q0 -10 -1 -20.5t-1 -20.5z" />
    <glyph glyph-name="uni04E8" unicode="&#x4e8;" horiz-adv-x="766" 
d="M332 -10q-82 0 -143 37t-95 103t-34 152q0 75 28 145t78.5 125t118.5 87t148 32q83 0 144 -37t95 -103.5t34 -152.5q0 -74 -27.5 -143t-77.5 -124.5t-118.5 -88t-150.5 -32.5zM406 625q-64 0 -116 -33.5t-86.5 -91.5t-46.5 -133h459v3q0 76 -26.5 133t-74 89.5
t-109.5 32.5zM364 38q67 0 119.5 37.5t86.5 100.5t43 141h-461q-1 -12 -1 -25q0 -75 27 -132.5t74.5 -89.5t111.5 -32z" />
    <glyph glyph-name="uni0462" unicode="&#x462;" horiz-adv-x="716" 
d="M135 492l-84 -112h-16l28 162h200l11 62l-72 40l3 16h248l-3 -16l-91 -40l-11 -62h234l-29 -162h-16l-45 112h-153l-25 -144h109q113 0 170.5 -40.5t57.5 -115.5q0 -54 -32.5 -97.5t-98.5 -69t-166 -25.5h-256l3 16l76 40l77 436h-119zM261 50h102q99 0 148.5 39
t49.5 102q0 107 -156 107h-100z" />
    <glyph glyph-name="uni0472" unicode="&#x472;" horiz-adv-x="766" 
d="M332 -10q-82 0 -143 37t-95 103t-34 152q0 75 28 145t78.5 125t118.5 87t148 32q83 0 144 -37t95 -103.5t34 -152.5q0 -74 -27.5 -143t-77.5 -124.5t-118.5 -88t-150.5 -32.5zM406 625q-68 0 -122 -37t-88 -101.5t-42 -145.5q55 32 109.5 37.5t106 -3t97 -19t83.5 -12.5
t66 19v7q0 76 -26.5 133t-74 89.5t-109.5 32.5zM364 38q67 0 120.5 38t87 102t41.5 143q-41 -27 -83 -34.5t-83.5 -3t-81.5 14t-77.5 17.5t-71.5 7t-65 -19v-11q0 -75 27 -132.5t74.5 -89.5t111.5 -32z" />
    <glyph glyph-name="uni0474" unicode="&#x474;" horiz-adv-x="747" 
d="M587 472l-263 -477h-43l-131 614l-60 35l4 16h237l-3 -16l-89 -34l100 -482h5l171 331q29 55 56 94t52 64q29 29 57 41t57 12q23 0 27.5 -6t1.5 -23l-9 -55l-5 -4h-10q-58 0 -92 -29t-63 -81z" />
    <glyph glyph-name="uni0414.bgr" horiz-adv-x="684" 
d="M58 0l-112 -167h-16l38 217h69l342 615h43l131 -615h81l-38 -217h-16l-44 167h-478zM96 50h368l-100 482h-6z" />
    <glyph glyph-name="uni0416.bgr" horiz-adv-x="1005" 
d="M336 0l2 16l84 40l95 548l-68 40l2 16h238l-3 -16l-83 -40l-96 -548l69 -40l-3 -16h-237zM795 0l-238 338l301 272l-62 34l3 16h200l-4 -16l-61 -23l-293 -265l218 -304l61 -36l-3 -16h-122zM113 0h-134l3 16l76 36l330 310l-196 258l-53 24l2 16h200l-3 -16l-74 -34
l205 -272z" />
    <glyph glyph-name="uni041A.bgr" horiz-adv-x="700" 
d="M10 0l3 16l83 40l96 548l-69 40l3 16h238l-4 -16l-82 -40l-97 -548l70 -40l-4 -16h-237zM480 0l-248 338l311 272l-62 34l3 16h200l-4 -16l-61 -24l-301 -262l234 -306l61 -36l-3 -16h-130z" />
    <glyph glyph-name="uni041B.bgr" horiz-adv-x="700" 
d="M456 665l131 -614l60 -35l-4 -16h-237l3 16l89 34l-100 482h-6l-262 -482l80 -34l-3 -16h-200l4 16l59 32l343 617h43z" />
    <glyph glyph-name="uni0061" unicode="a" horiz-adv-x="507" 
d="M136 -10q-40 0 -64.5 34.5t-24.5 103.5q0 62 19.5 121t54 107t79.5 76t96 28q25 0 48 -6t41 -16l35 22h25l-61 -341q-5 -30 -1.5 -43t16.5 -13q17 0 37 18.5t38 56.5l13 -6q-29 -75 -62.5 -108.5t-68.5 -33.5t-48 27t-5 72l5 26h-4q-38 -58 -80 -91.5t-88 -33.5zM123 167
q0 -56 12.5 -83.5t47.5 -27.5q24 0 48 16t46 41t39 51l37 206q-19 25 -38.5 38t-47.5 13q-43 0 -75.5 -37t-50.5 -95t-18 -122z" />
    <glyph glyph-name="uni0062" unicode="b" horiz-adv-x="493" 
d="M194 -10q-26 0 -50 6.5t-42 17.5l-51 -24h-6l120 690l-77 34v6l163 30h3l-72 -415h5q21 31 46 59.5t55 47t66 18.5q40 0 64.5 -34.5t24.5 -103.5q0 -62 -19.5 -121t-54 -107t-79.5 -76t-96 -28zM307 394q-28 0 -64 -29.5t-70 -80.5l-35 -202q22 -29 41 -41t44 -12
q39 0 72 33.5t52.5 91t19.5 129.5q0 61 -13.5 86t-46.5 25z" />
    <glyph glyph-name="uni0063" unicode="c" horiz-adv-x="427" 
d="M198 -10q-72 0 -110 43.5t-38 126.5q0 52 20.5 104.5t56 97t80 71.5t91.5 27q37 0 60 -13.5t37 -35.5q6 -9 8 -15t2 -13t-3.5 -14t-11.5 -12l-29 -17h-7l-20 29q-16 24 -32.5 35.5t-47.5 11.5q-33 0 -62.5 -32t-48 -81.5t-18.5 -103.5q0 -71 24.5 -109t79.5 -38
q17 0 38 6.5t46 27t55 62.5h2l10 -8q-43 -76 -87 -113t-95 -37z" />
    <glyph glyph-name="uni0064" unicode="d" horiz-adv-x="515" 
d="M139 -10q-40 0 -64.5 34.5t-24.5 103.5q0 62 19.5 121t54 107t79.5 76t96 28q36 0 69 -13l41 233l-87 34v6l173 30h3l-111 -631q-5 -30 -2 -43t17 -13q17 0 37 18.5t38 56.5l13 -6q-29 -75 -62.5 -108.5t-68.5 -33.5t-48 27t-5 72l5 26h-4q-84 -125 -168 -125zM126 167
q0 -63 14 -87t46 -24q29 0 65 29.5t68 78.5l36 205q-21 28 -40.5 40t-44.5 12q-40 0 -72.5 -35t-52 -92.5t-19.5 -126.5z" />
    <glyph glyph-name="uni0065" unicode="e" horiz-adv-x="443" 
d="M199 -10q-77 0 -113 42.5t-36 115.5q0 59 19.5 114.5t54 100t80 71t98.5 26.5q50 0 75.5 -23t25.5 -54q0 -34 -24 -62.5t-83.5 -52t-167.5 -41.5q-2 -20 -2 -42q0 -61 26 -97t82 -36q33 0 65 18t66 59h2l10 -8q-34 -59 -81.5 -95t-96.5 -36zM275 425q-54 0 -91.5 -44.5
t-50.5 -117.5q75 13 117 28t59 35.5t17 51.5q0 20 -13 33.5t-38 13.5z" />
    <glyph glyph-name="uni0066" unicode="f" horiz-adv-x="319" 
d="M-77 -240q-23 0 -36 10.5t-13 23.5q0 9 6 21l14 30h6l19 -11q15 -9 41 -9q45 0 70.5 44t36.5 114l62 423h-79v44h85l6 40q3 20 18 52t40 67.5t57.5 67.5t70 52.5t77.5 20.5q9 0 19 -2.5t16 -5.5q13 -7 18 -12.5t5 -12.5q0 -4 -2.5 -10.5t-5.5 -11.5l-16 -30h-7l-23 11
q-25 11 -60 11q-52 0 -83 -44t-41 -113l-12 -80h113v-44h-119l-57 -385q-3 -19 -16 -51.5t-34.5 -68.5t-49 -68t-59.5 -52.5t-67 -20.5z" />
    <glyph glyph-name="uni0067" unicode="g" horiz-adv-x="442" 
d="M208 153q-30 0 -55 9q-23 -11 -32.5 -27.5t-9.5 -34.5q0 -20 20 -31t51.5 -18t67.5 -14.5t67.5 -20t51.5 -34t20 -57.5q0 -40 -25 -78t-74.5 -62.5t-125.5 -24.5q-89 0 -131.5 29t-42.5 73q0 32 9.5 50t31.5 40l80 45v2q-31 9 -51.5 25t-20.5 47q0 21 5 35t19 30l67 34v3
q-27 16 -42.5 43.5t-15.5 62.5q0 42 24.5 83.5t67 69.5t97.5 28q27 0 56 -10h151v-44h-89l-4 -3q21 -28 21 -74q0 -28 -13 -58.5t-38 -57.5t-59.5 -43.5t-77.5 -16.5zM226 192q28 0 49.5 21t34 51.5t12.5 60.5q0 43 -21 69.5t-55 26.5q-30 0 -52.5 -19.5t-34.5 -49.5
t-12 -62q0 -44 21.5 -71t57.5 -27zM65 -127q0 -37 31.5 -59.5t84.5 -22.5q69 0 102 31t33 74q0 28 -16.5 44.5t-43.5 25.5t-58.5 14.5t-61.5 12.5q-46 -32 -58.5 -61.5t-12.5 -58.5z" />
    <glyph glyph-name="uni0068" unicode="h" horiz-adv-x="517" 
d="M106 0h-76l119 678l-78 35v6l164 30h3l-69 -394h2q35 39 61.5 62t52 33t57.5 10q49 0 75.5 -40t14.5 -108l-35 -193q-5 -30 -2 -43t17 -13q17 0 37 18.5t38 56.5l13 -6q-29 -75 -62.5 -108.5t-68.5 -33.5t-48 27t-5 72l39 220q5 35 -8.5 62.5t-57.5 27.5q-22 0 -45 -14.5
t-45 -35t-38 -38.5z" />
    <glyph glyph-name="uni0069" unicode="i" horiz-adv-x="288" 
d="M196 585q-23 0 -40 17t-17 40t17 40t40 17t40 -17t17 -40t-17 -40t-40 -17zM125 -10q-35 0 -48 27t-5 72l53 301l-87 34v6l173 30h3l-61 -341q-5 -30 -2 -43t17 -13q17 0 37 18.5t38 56.5l13 -6q-29 -75 -62.5 -108.5t-68.5 -33.5z" />
    <glyph glyph-name="uni006A" unicode="j" horiz-adv-x="288" 
d="M196 585q-23 0 -40 17t-17 40t17 40t40 17t40 -17t17 -40t-17 -40t-40 -17zM-76 -230v16q34 22 59.5 48.5t43 63.5t27.5 92l71 400l-87 34v6l173 30h3l-82 -460q-14 -74 -68.5 -131.5t-139.5 -98.5z" />
    <glyph glyph-name="uni006B" unicode="k" horiz-adv-x="467" 
d="M30 0l119 678l-78 35v6l164 30h3l-132 -749h-76zM338 -10q-24 0 -37.5 12t-24.5 32t-25 45l-95 173v5q73 77 117.5 121t71.5 63t49 19q12 0 20.5 -2.5t13.5 -6.5q7 -5 10.5 -12.5t-0.5 -16.5l-17 -42l-5 -4l-18 7q-5 2 -11.5 3t-20.5 1q-9 0 -21.5 -3.5t-26.5 -15.5
l-95 -83l101 -176q15 -25 25.5 -35.5t24.5 -10.5q18 0 32.5 18.5t32.5 56.5l13 -6q-32 -76 -56 -109t-58 -33z" />
    <glyph glyph-name="uni006C" unicode="l" horiz-adv-x="258" 
d="M101 -10q-35 0 -48 27t-5 72l103 591l-87 34v6l173 30h3l-111 -631q-5 -30 -2 -43t17 -13q17 0 37 18.5t38 56.5l13 -6q-29 -75 -62.5 -108.5t-68.5 -33.5z" />
    <glyph glyph-name="uni006D" unicode="m" horiz-adv-x="773" 
d="M43 0l69 389l-78 35v6l142 30h3v-105h4q35 39 60 62t49 33t56 10q37 0 61 -28t26 -77h5q35 39 60 62t48.5 33t56.5 10q45 0 70 -40t13 -108l-35 -193q-5 -30 -2 -43t17 -13q17 0 37 18.5t38 56.5l13 -6q-29 -75 -62.5 -108.5t-68.5 -33.5t-48 27t-5 72l39 220
q6 35 -6.5 62.5t-52.5 27.5q-22 0 -43.5 -14.5t-41.5 -35t-36 -38.5l-56 -311h-76l55 309q6 35 -6.5 62.5t-52.5 27.5q-22 0 -44 -15t-42.5 -35.5t-36.5 -39.5l-53 -309h-76z" />
    <glyph glyph-name="uni006E" unicode="n" horiz-adv-x="530" 
d="M43 0l69 389l-78 35v6l142 30h3v-105h4q35 39 62 62t52 33t58 10q49 0 75.5 -40t14.5 -108l-35 -193q-5 -30 -1.5 -43t16.5 -13q17 0 37 18.5t38 56.5l13 -6q-29 -75 -62.5 -108.5t-68.5 -33.5t-48 27t-5 72l39 220q5 35 -8.5 62.5t-57.5 27.5q-22 0 -45.5 -15
t-45.5 -35.5t-39 -39.5l-53 -309h-76z" />
    <glyph glyph-name="uni006F" unicode="o" horiz-adv-x="509" 
d="M220 -10q-87 0 -128.5 54t-41.5 140q0 47 17 95.5t49 89.5t76 66t97 25q87 0 128.5 -54t41.5 -140q0 -45 -16.5 -93.5t-48 -90t-75.5 -67t-99 -25.5zM231 28q43 0 75 33.5t49 89t17 121.5q0 74 -19.5 112.5t-72.5 38.5q-42 0 -74.5 -30.5t-50.5 -84.5t-18 -127
q0 -74 20 -113.5t74 -39.5z" />
    <glyph glyph-name="uni0070" unicode="p" horiz-adv-x="508" 
d="M-27 -230v16l55 28l102 575l-78 35v6l142 30h3v-125h4q37 58 79.5 91.5t88.5 33.5q40 0 64.5 -35t24.5 -103q0 -62 -19.5 -121t-54 -107t-79.5 -76t-96 -28q-19 0 -37 3.5t-33 9.5l-31 -188l80 -29v-16h-215zM322 394q-24 0 -48 -16t-46 -41t-40 -52l-35 -203
q19 -26 37.5 -39.5t47.5 -13.5q43 0 75.5 37t50.5 95t18 122q0 56 -12.5 83.5t-47.5 27.5z" />
    <glyph glyph-name="uni0071" unicode="q" horiz-adv-x="473" 
d="M183 -230v16l69 27l55 302h-3q-38 -58 -80 -91.5t-88 -33.5q-40 0 -64.5 34.5t-24.5 103.5q0 62 19.5 121t54 107t79.5 76t96 28q26 0 50 -6.5t42 -17.5l51 24h6l-117 -644l70 -30v-16h-215zM123 167q0 -57 12.5 -84t47.5 -27q24 0 47.5 15.5t45.5 40t39 51.5l37 206
q-19 25 -37.5 38.5t-47.5 13.5q-43 0 -75.5 -37t-50.5 -95t-18 -122z" />
    <glyph glyph-name="uni0072" unicode="r" horiz-adv-x="345" 
d="M43 0l69 389l-78 35v6l141 30h3v-123h4q32 59 54.5 84.5t40 32t31.5 6.5q18 0 33 -11.5t15 -26.5q0 -5 -3 -11l-25 -51h-6l-11 8q-8 6 -17.5 8.5t-18.5 2.5q-18 0 -32.5 -7.5t-32 -31t-44.5 -70.5l-47 -270h-76z" />
    <glyph glyph-name="uni0073" unicode="s" horiz-adv-x="353" 
d="M141 -10q-51 0 -83 14.5t-46 36.5q-6 9 -8 15t-2 13q0 6 2 12.5t10 10.5l22 12h7l17 -29q15 -25 40 -37.5t50 -12.5q38 0 62.5 20t24.5 58q0 39 -25.5 60t-57.5 40q-38 23 -57 42t-26 39t-7 48q0 29 22 58.5t58 49.5t76 20q44 0 69 -13.5t39 -34.5q9 -14 9 -26
q0 -7 -3.5 -14t-10.5 -11l-19 -10h-7l-22 31q-14 20 -31.5 30.5t-43.5 10.5q-29 0 -49.5 -17.5t-20.5 -45.5q0 -32 19.5 -53t45.5 -36q36 -21 59.5 -40t35.5 -43t12 -61q0 -35 -21 -66.5t-57.5 -51t-82.5 -19.5z" />
    <glyph glyph-name="uni0074" unicode="t" horiz-adv-x="314" 
d="M131 -10q-33 0 -50 21t-17 59q0 8 1 18t3 20l53 298h-74v6l85 38l86 110h6l-19 -110h125v-44h-133l-45 -254q-2 -13 -3 -23.5t-1 -18.5q0 -24 8 -34t21 -10q23 0 49.5 26t48.5 75l13 -6q-33 -95 -73.5 -133t-83.5 -38z" />
    <glyph glyph-name="uni0075" unicode="u" horiz-adv-x="522" 
d="M159 -10q-37 0 -60.5 29t-23.5 79q0 10 1.5 20t2.5 20l45 251l-78 35v6l160 30h4l-52 -306q-4 -25 -4 -36q0 -28 13.5 -47.5t44.5 -19.5q21 0 42.5 15t41.5 36t36 39l43 248l-69 35v6l152 30h4l-60 -341q-5 -30 -1.5 -43t18.5 -13q17 0 37 18.5t38 56.5l13 -6
q-29 -75 -62.5 -108.5t-68.5 -33.5t-47.5 27t-5.5 72l1 6h-3q-34 -38 -59 -61t-48.5 -33.5t-54.5 -10.5z" />
    <glyph glyph-name="uni0076" unicode="v" horiz-adv-x="448" 
d="M197 0l-89 394l-85 30v6l148 30h3l76 -349h4l75 112q35 53 42.5 82t7.5 48q0 16 -8 25.5t-20 16.5l-13 8v4l16 30q8 14 13.5 18.5t16.5 4.5q16 0 29.5 -13t21.5 -31t8 -35q0 -24 -16 -59t-56 -94l-153 -228h-21z" />
    <glyph glyph-name="uni0077" unicode="w" horiz-adv-x="664" 
d="M186 0l-78 394l-85 30v6l148 30h3l61 -338h3l151 328h14l80 -340h4l60 113q29 55 38.5 83t9.5 47q0 16 -8 25.5t-20 16.5l-13 8v4l16 30q8 14 13.5 18.5t16.5 4.5q16 0 29.5 -13t21.5 -31t8 -35q0 -24 -18.5 -57.5t-53.5 -95.5l-132 -228h-21l-78 296l-149 -296h-21z" />
    <glyph glyph-name="uni0078" unicode="x" horiz-adv-x="448" 
d="M2 0q0 12 9 25t30.5 35.5t58 61.5t92.5 104l-67 167l-77 31v6l128 30h2l72 -182q37 49 58.5 78.5t32.5 46t16 27t10 20.5h58q0 -11 -7.5 -22.5t-26 -31t-50.5 -53.5t-81 -91l74 -186l75 -30v-6l-123 -30h-3l-81 200q-44 -58 -70 -92.5t-39 -53.5t-19 -30.5t-11 -23.5h-61
z" />
    <glyph glyph-name="uni0079" unicode="y" horiz-adv-x="447" 
d="M-5 -240q-28 0 -28 29v48l7 6h48q25 0 39.5 2t25 10t23 25.5t31.5 49.5l47 76l-86 386l-85 32v6l148 30h3l76 -355h4l72 118q33 54 43 82.5t10 47.5q0 16 -8 25.5t-20 16.5l-13 8v4l16 30q8 14 13.5 18.5t16.5 4.5q17 0 30.5 -12.5t21 -31t7.5 -35.5q0 -24 -17.5 -58.5
t-54.5 -94.5l-193 -307q-14 -23 -23 -38t-18.5 -30t-27.5 -36q-25 -29 -54 -43t-54 -14z" />
    <glyph glyph-name="uni007A" unicode="z" horiz-adv-x="401" 
d="M32 -1l-16 16l277 369h-161l-42 -70h-16l21 136h268l11 -19l-234 -315l148 -40l45 80h16l-31 -161l-183 49q-9 2 -16.5 3.5t-14.5 1.5q-16 0 -29 -8t-28 -25z" />
    <glyph glyph-name="uni00E0" unicode="&#xe0;" horiz-adv-x="507" 
d="M136 -10q-40 0 -64.5 34.5t-24.5 103.5q0 62 19.5 121t54 107t79.5 76t96 28q25 0 48 -6t41 -16l35 22h25l-61 -341q-5 -30 -1.5 -43t16.5 -13q17 0 37 18.5t38 56.5l13 -6q-29 -75 -62.5 -108.5t-68.5 -33.5t-48 27t-5 72l5 26h-4q-38 -58 -80 -91.5t-88 -33.5zM123 167
q0 -56 12.5 -83.5t47.5 -27.5q24 0 48 16t46 41t39 51l37 206q-19 25 -38.5 38t-47.5 13q-43 0 -75.5 -37t-50.5 -95t-18 -122zM304 530l-129 114q-19 16 -21 32t0 31h70l90 -177h-10z" />
    <glyph glyph-name="uni00E1" unicode="&#xe1;" horiz-adv-x="507" 
d="M136 -10q-40 0 -64.5 34.5t-24.5 103.5q0 62 19.5 121t54 107t79.5 76t96 28q25 0 48 -6t41 -16l35 22h25l-61 -341q-5 -30 -1.5 -43t16.5 -13q17 0 37 18.5t38 56.5l13 -6q-29 -75 -62.5 -108.5t-68.5 -33.5t-48 27t-5 72l5 26h-4q-38 -58 -80 -91.5t-88 -33.5zM123 167
q0 -56 12.5 -83.5t47.5 -27.5q24 0 48 16t46 41t39 51l37 206q-19 25 -38.5 38t-47.5 13q-43 0 -75.5 -37t-50.5 -95t-18 -122zM305 530l106 177h78q-3 -15 -12 -29t-31 -34l-131 -114h-10z" />
    <glyph glyph-name="uni00E2" unicode="&#xe2;" horiz-adv-x="507" 
d="M136 -10q-40 0 -64.5 34.5t-24.5 103.5q0 62 19.5 121t54 107t79.5 76t96 28q25 0 48 -6t41 -16l35 22h25l-61 -341q-5 -30 -1.5 -43t16.5 -13q17 0 37 18.5t38 56.5l13 -6q-29 -75 -62.5 -108.5t-68.5 -33.5t-48 27t-5 72l5 26h-4q-38 -58 -80 -91.5t-88 -33.5zM123 167
q0 -56 12.5 -83.5t47.5 -27.5q24 0 48 16t46 41t39 51l37 206q-19 25 -38.5 38t-47.5 13q-43 0 -75.5 -37t-50.5 -95t-18 -122zM168 530l158 177h28l94 -177h-10l-110 102l-150 -102h-10z" />
    <glyph glyph-name="uni00E3" unicode="&#xe3;" horiz-adv-x="507" 
d="M136 -10q-40 0 -64.5 34.5t-24.5 103.5q0 62 19.5 121t54 107t79.5 76t96 28q25 0 48 -6t41 -16l35 22h25l-61 -341q-5 -30 -1.5 -43t16.5 -13q17 0 37 18.5t38 56.5l13 -6q-29 -75 -62.5 -108.5t-68.5 -33.5t-48 27t-5 72l5 26h-4q-38 -58 -80 -91.5t-88 -33.5zM123 167
q0 -56 12.5 -83.5t47.5 -27.5q24 0 48 16t46 41t39 51l37 206q-19 25 -38.5 38t-47.5 13q-43 0 -75.5 -37t-50.5 -95t-18 -122zM170 556q27 56 45.5 82.5t33.5 34t33 7.5t31.5 -10t25 -23.5t24 -23.5t28.5 -10q17 0 32.5 11t41.5 56h16q-27 -56 -45.5 -82.5t-34 -34
t-32.5 -7.5q-18 0 -31.5 10t-25 23.5t-24 23.5t-28.5 10q-17 0 -32.5 -11t-41.5 -56h-16z" />
    <glyph glyph-name="uni00E4" unicode="&#xe4;" horiz-adv-x="507" 
d="M136 -10q-40 0 -64.5 34.5t-24.5 103.5q0 62 19.5 121t54 107t79.5 76t96 28q25 0 48 -6t41 -16l35 22h25l-61 -341q-5 -30 -1.5 -43t16.5 -13q17 0 37 18.5t38 56.5l13 -6q-29 -75 -62.5 -108.5t-68.5 -33.5t-48 27t-5 72l5 26h-4q-38 -58 -80 -91.5t-88 -33.5zM123 167
q0 -56 12.5 -83.5t47.5 -27.5q24 0 48 16t46 41t39 51l37 206q-19 25 -38.5 38t-47.5 13q-43 0 -75.5 -37t-50.5 -95t-18 -122zM240 573q-19 0 -32 13t-13 32t13 32t32 13t32 -13t13 -32t-13 -32t-32 -13zM410 573q-19 0 -32 13t-13 32t13 32t32 13t32 -13t13 -32t-13 -32
t-32 -13z" />
    <glyph glyph-name="uni0101" unicode="&#x101;" horiz-adv-x="507" 
d="M136 -10q-40 0 -64.5 34.5t-24.5 103.5q0 62 19.5 121t54 107t79.5 76t96 28q25 0 48 -6t41 -16l35 22h25l-61 -341q-5 -30 -1.5 -43t16.5 -13q17 0 37 18.5t38 56.5l13 -6q-29 -75 -62.5 -108.5t-68.5 -33.5t-48 27t-5 72l5 26h-4q-38 -58 -80 -91.5t-88 -33.5zM123 167
q0 -56 12.5 -83.5t47.5 -27.5q24 0 48 16t46 41t39 51l37 206q-19 25 -38.5 38t-47.5 13q-43 0 -75.5 -37t-50.5 -95t-18 -122zM195 595l8 44h253l-9 -44h-252z" />
    <glyph glyph-name="uni0103" unicode="&#x103;" horiz-adv-x="507" 
d="M136 -10q-40 0 -64.5 34.5t-24.5 103.5q0 62 19.5 121t54 107t79.5 76t96 28q25 0 48 -6t41 -16l35 22h25l-61 -341q-5 -30 -1.5 -43t16.5 -13q17 0 37 18.5t38 56.5l13 -6q-29 -75 -62.5 -108.5t-68.5 -33.5t-48 27t-5 72l5 26h-4q-38 -58 -80 -91.5t-88 -33.5zM123 167
q0 -56 12.5 -83.5t47.5 -27.5q24 0 48 16t46 41t39 51l37 206q-19 25 -38.5 38t-47.5 13q-43 0 -75.5 -37t-50.5 -95t-18 -122zM314 540q-64 0 -87.5 41.5t-26.5 125.5h10q8 -49 22.5 -72.5t35.5 -30.5t50 -7t53.5 6.5t48 30t48.5 73.5h10q-26 -84 -65.5 -125.5t-98.5 -41.5
z" />
    <glyph glyph-name="uni00E5" unicode="&#xe5;" horiz-adv-x="507" 
d="M136 -10q-40 0 -64.5 34.5t-24.5 103.5q0 62 19.5 121t54 107t79.5 76t96 28q25 0 48 -6t41 -16l35 22h25l-61 -341q-5 -30 -1.5 -43t16.5 -13q17 0 37 18.5t38 56.5l13 -6q-29 -75 -62.5 -108.5t-68.5 -33.5t-48 27t-5 72l5 26h-4q-38 -58 -80 -91.5t-88 -33.5zM123 167
q0 -56 12.5 -83.5t47.5 -27.5q24 0 48 16t46 41t39 51l37 206q-19 25 -38.5 38t-47.5 13q-43 0 -75.5 -37t-50.5 -95t-18 -122zM311 535q-35 0 -51 19t-16 49q0 39 26 68.5t70 29.5q34 0 50.5 -19t16.5 -49q0 -38 -26 -68t-70 -30zM316 557q25 0 38 22t13 53q0 24 -7 36
t-25 12q-23 0 -37.5 -20t-14.5 -54q0 -49 33 -49z" />
    <glyph glyph-name="uni01FB" unicode="&#x1fb;" horiz-adv-x="507" 
d="M136 -10q-40 0 -64.5 34.5t-24.5 103.5q0 62 19.5 121t54 107t79.5 76t96 28q25 0 48 -6t41 -16l35 22h25l-61 -341q-5 -30 -1.5 -43t16.5 -13q17 0 37 18.5t38 56.5l13 -6q-29 -75 -62.5 -108.5t-68.5 -33.5t-48 27t-5 72l5 26h-4q-38 -58 -80 -91.5t-88 -33.5zM123 167
q0 -56 12.5 -83.5t47.5 -27.5q24 0 48 16t46 41t39 51l37 206q-19 25 -38.5 38t-47.5 13q-43 0 -75.5 -37t-50.5 -95t-18 -122zM311 535q-35 0 -51 19t-16 49q0 39 26 68.5t70 29.5q34 0 50.5 -19t16.5 -49q0 -38 -26 -68t-70 -30zM316 557q25 0 38 22t13 53q0 24 -7 36
t-25 12q-23 0 -37.5 -20t-14.5 -54q0 -49 33 -49zM345 753l106 177h78q-3 -15 -12 -29t-31 -34l-131 -114h-10z" />
    <glyph glyph-name="uni1EA1" unicode="&#x1ea1;" horiz-adv-x="507" 
d="M136 -10q-40 0 -64.5 34.5t-24.5 103.5q0 62 19.5 121t54 107t79.5 76t96 28q25 0 48 -6t41 -16l35 22h25l-61 -341q-5 -30 -1.5 -43t16.5 -13q17 0 37 18.5t38 56.5l13 -6q-29 -75 -62.5 -108.5t-68.5 -33.5t-48 27t-5 72l5 26h-4q-38 -58 -80 -91.5t-88 -33.5zM123 167
q0 -56 12.5 -83.5t47.5 -27.5q24 0 48 16t46 41t39 51l37 206q-19 25 -38.5 38t-47.5 13q-43 0 -75.5 -37t-50.5 -95t-18 -122zM212 -209q-23 0 -40 17t-17 40t17 40t40 17t40 -17t17 -40t-17 -40t-40 -17z" />
    <glyph glyph-name="uni0105" unicode="&#x105;" horiz-adv-x="507" 
d="M136 -10q-40 0 -64.5 34.5t-24.5 103.5q0 62 19.5 121t54 107t79.5 76t96 28q25 0 48 -6t41 -16l35 22h25l-61 -341q-5 -30 -1.5 -43t16.5 -13q17 0 37 18.5t38 56.5l13 -6q-22 -58 -53 -95q-44 -49 -69.5 -93t-25.5 -84q0 -29 15 -42.5t41 -13.5q11 0 24 3.5t26 12.5h3
l-2 -13q-33 -47 -87 -47q-37 0 -59 21.5t-22 59.5q0 32 20.5 67t65.5 82h-8q-35 0 -48 27t-5 72l5 26h-4q-38 -58 -80 -91.5t-88 -33.5zM123 167q0 -56 12.5 -83.5t47.5 -27.5q24 0 48 16t46 41t39 51l36 205q-19 25 -37.5 38.5t-47.5 13.5q-43 0 -75.5 -37t-50.5 -95
t-18 -122z" />
    <glyph glyph-name="uni0201" unicode="&#x201;" horiz-adv-x="507" 
d="M136 -10q-40 0 -64.5 34.5t-24.5 103.5q0 62 19.5 121t54 107t79.5 76t96 28q25 0 48 -6t41 -16l35 22h25l-61 -341q-5 -30 -1.5 -43t16.5 -13q17 0 37 18.5t38 56.5l13 -6q-29 -75 -62.5 -108.5t-68.5 -33.5t-48 27t-5 72l5 26h-4q-38 -58 -80 -91.5t-88 -33.5zM123 167
q0 -56 12.5 -83.5t47.5 -27.5q24 0 48 16t46 41t39 51l37 206q-19 25 -38.5 38t-47.5 13q-43 0 -75.5 -37t-50.5 -95t-18 -122zM352 530l-95 119q-13 17 -15.5 29.5t0.5 28.5h55l65 -177h-10zM250 530l-116 119q-16 16 -18 30.5t1 27.5h55l88 -177h-10z" />
    <glyph glyph-name="uni0203" unicode="&#x203;" horiz-adv-x="507" 
d="M136 -10q-40 0 -64.5 34.5t-24.5 103.5q0 62 19.5 121t54 107t79.5 76t96 28q25 0 48 -6t41 -16l35 22h25l-61 -341q-5 -30 -1.5 -43t16.5 -13q17 0 37 18.5t38 56.5l13 -6q-29 -75 -62.5 -108.5t-68.5 -33.5t-48 27t-5 72l5 26h-4q-38 -58 -80 -91.5t-88 -33.5zM123 167
q0 -56 12.5 -83.5t47.5 -27.5q24 0 48 16t46 41t39 51l37 206q-19 25 -38.5 38t-47.5 13q-43 0 -75.5 -37t-50.5 -95t-18 -122zM171 540q26 84 65.5 125.5t98.5 41.5q64 0 87.5 -41.5t26.5 -125.5h-10q-8 49 -22.5 72.5t-35.5 30.5t-50 7t-53.5 -6.5t-48 -30t-48.5 -73.5
h-10z" />
    <glyph glyph-name="uni1EAF" unicode="&#x1eaf;" horiz-adv-x="507" 
d="M136 -10q-40 0 -64.5 34.5t-24.5 103.5q0 62 19.5 121t54 107t79.5 76t96 28q25 0 48 -6t41 -16l35 22h25l-61 -341q-5 -30 -1.5 -43t16.5 -13q17 0 37 18.5t38 56.5l13 -6q-29 -75 -62.5 -108.5t-68.5 -33.5t-48 27t-5 72l5 26h-4q-38 -58 -80 -91.5t-88 -33.5zM123 167
q0 -56 12.5 -83.5t47.5 -27.5q24 0 48 16t46 41t39 51l37 206q-19 25 -38.5 38t-47.5 13q-43 0 -75.5 -37t-50.5 -95t-18 -122zM314 540q-64 0 -87.5 41.5t-26.5 125.5h10q8 -49 22.5 -72.5t35.5 -30.5t50 -7t53.5 6.5t48 30t48.5 73.5h10q-26 -84 -65.5 -125.5t-98.5 -41.5
zM308 670l106 152h78q-3 -15 -11 -30.5t-32 -32.5l-131 -89h-10z" />
    <glyph glyph-name="uni1EB7" unicode="&#x1eb7;" horiz-adv-x="507" 
d="M136 -10q-40 0 -64.5 34.5t-24.5 103.5q0 62 19.5 121t54 107t79.5 76t96 28q25 0 48 -6t41 -16l35 22h25l-61 -341q-5 -30 -1.5 -43t16.5 -13q17 0 37 18.5t38 56.5l13 -6q-29 -75 -62.5 -108.5t-68.5 -33.5t-48 27t-5 72l5 26h-4q-38 -58 -80 -91.5t-88 -33.5zM123 167
q0 -56 12.5 -83.5t47.5 -27.5q24 0 48 16t46 41t39 51l37 206q-19 25 -38.5 38t-47.5 13q-43 0 -75.5 -37t-50.5 -95t-18 -122zM314 540q-64 0 -87.5 41.5t-26.5 125.5h10q8 -49 22.5 -72.5t35.5 -30.5t50 -7t53.5 6.5t48 30t48.5 73.5h10q-26 -84 -65.5 -125.5t-98.5 -41.5
zM212 -209q-23 0 -40 17t-17 40t17 40t40 17t40 -17t17 -40t-17 -40t-40 -17z" />
    <glyph glyph-name="uni1EB1" unicode="&#x1eb1;" horiz-adv-x="507" 
d="M136 -10q-40 0 -64.5 34.5t-24.5 103.5q0 62 19.5 121t54 107t79.5 76t96 28q25 0 48 -6t41 -16l35 22h25l-61 -341q-5 -30 -1.5 -43t16.5 -13q17 0 37 18.5t38 56.5l13 -6q-29 -75 -62.5 -108.5t-68.5 -33.5t-48 27t-5 72l5 26h-4q-38 -58 -80 -91.5t-88 -33.5zM123 167
q0 -56 12.5 -83.5t47.5 -27.5q24 0 48 16t46 41t39 51l37 206q-19 25 -38.5 38t-47.5 13q-43 0 -75.5 -37t-50.5 -95t-18 -122zM314 540q-64 0 -87.5 41.5t-26.5 125.5h10q8 -49 22.5 -72.5t35.5 -30.5t50 -7t53.5 6.5t48 30t48.5 73.5h10q-26 -84 -65.5 -125.5t-98.5 -41.5
zM376 670l-129 89q-20 14 -21.5 31t0.5 32h70l90 -152h-10z" />
    <glyph glyph-name="uni1EB3" unicode="&#x1eb3;" horiz-adv-x="507" 
d="M136 -10q-40 0 -64.5 34.5t-24.5 103.5q0 62 19.5 121t54 107t79.5 76t96 28q25 0 48 -6t41 -16l35 22h25l-61 -341q-5 -30 -1.5 -43t16.5 -13q17 0 37 18.5t38 56.5l13 -6q-29 -75 -62.5 -108.5t-68.5 -33.5t-48 27t-5 72l5 26h-4q-38 -58 -80 -91.5t-88 -33.5zM123 167
q0 -56 12.5 -83.5t47.5 -27.5q24 0 48 16t46 41t39 51l37 206q-19 25 -38.5 38t-47.5 13q-43 0 -75.5 -37t-50.5 -95t-18 -122zM314 540q-64 0 -87.5 41.5t-26.5 125.5h10q8 -49 22.5 -72.5t35.5 -30.5t50 -7t53.5 6.5t48 30t48.5 73.5h10q-26 -84 -65.5 -125.5t-98.5 -41.5
zM300 662l-5 6v1q38 12 57.5 27.5t19.5 42.5q0 17 -14.5 28.5t-49.5 18.5l18 49q52 -5 72.5 -27t20.5 -48q0 -74 -119 -98z" />
    <glyph glyph-name="uni1EB5" unicode="&#x1eb5;" horiz-adv-x="507" 
d="M136 -10q-40 0 -64.5 34.5t-24.5 103.5q0 62 19.5 121t54 107t79.5 76t96 28q25 0 48 -6t41 -16l35 22h25l-61 -341q-5 -30 -1.5 -43t16.5 -13q17 0 37 18.5t38 56.5l13 -6q-29 -75 -62.5 -108.5t-68.5 -33.5t-48 27t-5 72l5 26h-4q-38 -58 -80 -91.5t-88 -33.5zM123 167
q0 -56 12.5 -83.5t47.5 -27.5q24 0 48 16t46 41t39 51l37 206q-19 25 -38.5 38t-47.5 13q-43 0 -75.5 -37t-50.5 -95t-18 -122zM314 540q-64 0 -87.5 41.5t-26.5 125.5h10q8 -49 22.5 -72.5t35.5 -30.5t50 -7t53.5 6.5t48 30t48.5 73.5h10q-26 -84 -65.5 -125.5t-98.5 -41.5
zM196 726q25 52 43 76t32.5 31t31.5 7q25 0 44.5 -15t36.5 -29.5t37 -14.5q17 0 31.5 9.5t38.5 49.5h16q-25 -52 -43 -76t-33 -31t-31 -7q-25 0 -44 15t-36 29.5t-37 14.5q-17 0 -32 -9.5t-39 -49.5h-16z" />
    <glyph glyph-name="uni1EA5" unicode="&#x1ea5;" horiz-adv-x="507" 
d="M136 -10q-40 0 -64.5 34.5t-24.5 103.5q0 62 19.5 121t54 107t79.5 76t96 28q25 0 48 -6t41 -16l35 22h25l-61 -341q-5 -30 -1.5 -43t16.5 -13q17 0 37 18.5t38 56.5l13 -6q-29 -75 -62.5 -108.5t-68.5 -33.5t-48 27t-5 72l5 26h-4q-38 -58 -80 -91.5t-88 -33.5zM123 167
q0 -56 12.5 -83.5t47.5 -27.5q24 0 48 16t46 41t39 51l37 206q-19 25 -38.5 38t-47.5 13q-43 0 -75.5 -37t-50.5 -95t-18 -122zM435 637l64 143h77q-3 -15 -11.5 -29.5t-29.5 -32.5l-92 -81h-8zM168 530l158 177h28l94 -177h-10l-110 102l-150 -102h-10z" />
    <glyph glyph-name="uni1EAD" unicode="&#x1ead;" horiz-adv-x="507" 
d="M136 -10q-40 0 -64.5 34.5t-24.5 103.5q0 62 19.5 121t54 107t79.5 76t96 28q25 0 48 -6t41 -16l35 22h25l-61 -341q-5 -30 -1.5 -43t16.5 -13q17 0 37 18.5t38 56.5l13 -6q-29 -75 -62.5 -108.5t-68.5 -33.5t-48 27t-5 72l5 26h-4q-38 -58 -80 -91.5t-88 -33.5zM123 167
q0 -56 12.5 -83.5t47.5 -27.5q24 0 48 16t46 41t39 51l37 206q-19 25 -38.5 38t-47.5 13q-43 0 -75.5 -37t-50.5 -95t-18 -122zM168 530l158 177h28l94 -177h-10l-110 102l-150 -102h-10zM212 -209q-23 0 -40 17t-17 40t17 40t40 17t40 -17t17 -40t-17 -40t-40 -17z" />
    <glyph glyph-name="uni1EA7" unicode="&#x1ea7;" horiz-adv-x="507" 
d="M136 -10q-40 0 -64.5 34.5t-24.5 103.5q0 62 19.5 121t54 107t79.5 76t96 28q25 0 48 -6t41 -16l35 22h25l-61 -341q-5 -30 -1.5 -43t16.5 -13q17 0 37 18.5t38 56.5l13 -6q-29 -75 -62.5 -108.5t-68.5 -33.5t-48 27t-5 72l5 26h-4q-38 -58 -80 -91.5t-88 -33.5zM123 167
q0 -56 12.5 -83.5t47.5 -27.5q24 0 48 16t46 41t39 51l37 206q-19 25 -38.5 38t-47.5 13q-43 0 -75.5 -37t-50.5 -95t-18 -122zM200 637l-95 80q-18 16 -20.5 32t-0.5 31h67l59 -143h-10zM168 530l158 177h28l94 -177h-10l-110 102l-150 -102h-10z" />
    <glyph glyph-name="uni1EA9" unicode="&#x1ea9;" horiz-adv-x="507" 
d="M136 -10q-40 0 -64.5 34.5t-24.5 103.5q0 62 19.5 121t54 107t79.5 76t96 28q25 0 48 -6t41 -16l35 22h25l-61 -341q-5 -30 -1.5 -43t16.5 -13q17 0 37 18.5t38 56.5l13 -6q-29 -75 -62.5 -108.5t-68.5 -33.5t-48 27t-5 72l5 26h-4q-38 -58 -80 -91.5t-88 -33.5zM123 167
q0 -56 12.5 -83.5t47.5 -27.5q24 0 48 16t46 41t39 51l37 206q-19 25 -38.5 38t-47.5 13q-43 0 -75.5 -37t-50.5 -95t-18 -122zM168 530l158 177h28l94 -177h-10l-110 102l-150 -102h-10zM304 734v1q38 12 57.5 27.5t19.5 42.5q0 17 -14.5 28.5t-49.5 18.5l18 49
q52 -5 72.5 -27t20.5 -48q0 -74 -119 -98z" />
    <glyph glyph-name="uni1EAB" unicode="&#x1eab;" horiz-adv-x="507" 
d="M136 -10q-40 0 -64.5 34.5t-24.5 103.5q0 62 19.5 121t54 107t79.5 76t96 28q25 0 48 -6t41 -16l35 22h25l-61 -341q-5 -30 -1.5 -43t16.5 -13q17 0 37 18.5t38 56.5l13 -6q-29 -75 -62.5 -108.5t-68.5 -33.5t-48 27t-5 72l5 26h-4q-38 -58 -80 -91.5t-88 -33.5zM123 167
q0 -56 12.5 -83.5t47.5 -27.5q24 0 48 16t46 41t39 51l37 206q-19 25 -38.5 38t-47.5 13q-43 0 -75.5 -37t-50.5 -95t-18 -122zM168 530l158 177h28l94 -177h-10l-110 102l-150 -102h-10zM210 726q25 52 43 76t32.5 31t31.5 7q25 0 44.5 -15t36.5 -29.5t37 -14.5
q17 0 31.5 9.5t38.5 49.5h16q-25 -52 -43 -76t-33 -31t-31 -7q-25 0 -44 15t-36 29.5t-37 14.5q-17 0 -32 -9.5t-39 -49.5h-16z" />
    <glyph glyph-name="uni1EA3" unicode="&#x1ea3;" horiz-adv-x="507" 
d="M136 -10q-40 0 -64.5 34.5t-24.5 103.5q0 62 19.5 121t54 107t79.5 76t96 28q25 0 48 -6t41 -16l35 22h25l-61 -341q-5 -30 -1.5 -43t16.5 -13q17 0 37 18.5t38 56.5l13 -6q-29 -75 -62.5 -108.5t-68.5 -33.5t-48 27t-5 72l5 26h-4q-38 -58 -80 -91.5t-88 -33.5zM123 167
q0 -56 12.5 -83.5t47.5 -27.5q24 0 48 16t46 41t39 51l37 206q-19 25 -38.5 38t-47.5 13q-43 0 -75.5 -37t-50.5 -95t-18 -122zM269 540v1q38 12 57.5 27.5t19.5 42.5q0 17 -14.5 28.5t-49.5 18.5l18 49q52 -5 72.5 -27t20.5 -48q0 -74 -119 -98z" />
    <glyph glyph-name="uni00E6" unicode="&#xe6;" horiz-adv-x="712" 
d="M136 -10q-40 0 -64.5 34.5t-24.5 103.5q0 62 19.5 121t54 107t79.5 76t96 28q44 0 77.5 -13t65.5 -36q28 23 61.5 36t70.5 13q51 0 76 -24t25 -53q0 -34 -24 -62.5t-83.5 -52t-167.5 -41.5q-2 -20 -2 -42q0 -36 9.5 -66.5t33.5 -48.5t65 -18q33 0 65 18t66 59h2l10 -8
q-20 -35 -48.5 -65t-62 -48t-67.5 -18q-71 0 -107.5 36.5t-40.5 100.5h-5q-47 -71 -90 -104t-89 -33zM544 425q-57 0 -93 -46.5t-49 -115.5q75 13 117 28t59 35.5t17 51.5q0 20 -13 33.5t-38 13.5zM183 56q33 0 67 31t69 82q1 45 19.5 95t46.5 89q-31 38 -61 53t-57 15
q-43 0 -75.5 -37t-50.5 -95t-18 -122q0 -56 12.5 -83.5t47.5 -27.5z" />
    <glyph glyph-name="uni01FD" unicode="&#x1fd;" horiz-adv-x="712" 
d="M136 -10q-40 0 -64.5 34.5t-24.5 103.5q0 62 19.5 121t54 107t79.5 76t96 28q44 0 77.5 -13t65.5 -36q28 23 61.5 36t70.5 13q51 0 76 -24t25 -53q0 -34 -24 -62.5t-83.5 -52t-167.5 -41.5q-2 -20 -2 -42q0 -36 9.5 -66.5t33.5 -48.5t65 -18q33 0 65 18t66 59h2l10 -8
q-20 -35 -48.5 -65t-62 -48t-67.5 -18q-71 0 -107.5 36.5t-40.5 100.5h-5q-47 -71 -90 -104t-89 -33zM544 425q-57 0 -93 -46.5t-49 -115.5q75 13 117 28t59 35.5t17 51.5q0 20 -13 33.5t-38 13.5zM183 56q33 0 67 31t69 82q1 45 19.5 95t46.5 89q-31 38 -61 53t-57 15
q-43 0 -75.5 -37t-50.5 -95t-18 -122q0 -56 12.5 -83.5t47.5 -27.5zM415 530l106 177h78q-3 -15 -12 -29t-31 -34l-131 -114h-10z" />
    <glyph glyph-name="uni0107" unicode="&#x107;" horiz-adv-x="427" 
d="M198 -10q-72 0 -110 43.5t-38 126.5q0 52 20.5 104.5t56 97t80 71.5t91.5 27q37 0 60 -13.5t37 -35.5q6 -9 8 -15t2 -13t-3.5 -14t-11.5 -12l-29 -17h-7l-20 29q-16 24 -32.5 35.5t-47.5 11.5q-33 0 -62.5 -32t-48 -81.5t-18.5 -103.5q0 -71 24.5 -109t79.5 -38
q17 0 38 6.5t46 27t55 62.5h2l10 -8q-43 -76 -87 -113t-95 -37zM305 530l106 177h78q-3 -15 -12 -29t-31 -34l-131 -114h-10z" />
    <glyph glyph-name="uni0109" unicode="&#x109;" horiz-adv-x="427" 
d="M198 -10q-72 0 -110 43.5t-38 126.5q0 52 20.5 104.5t56 97t80 71.5t91.5 27q37 0 60 -13.5t37 -35.5q6 -9 8 -15t2 -13t-3.5 -14t-11.5 -12l-29 -17h-7l-20 29q-16 24 -32.5 35.5t-47.5 11.5q-33 0 -62.5 -32t-48 -81.5t-18.5 -103.5q0 -71 24.5 -109t79.5 -38
q17 0 38 6.5t46 27t55 62.5h2l10 -8q-43 -76 -87 -113t-95 -37zM168 530l158 177h28l94 -177h-10l-110 102l-150 -102h-10z" />
    <glyph glyph-name="uni010D" unicode="&#x10d;" horiz-adv-x="427" 
d="M198 -10q-72 0 -110 43.5t-38 126.5q0 52 20.5 104.5t56 97t80 71.5t91.5 27q37 0 60 -13.5t37 -35.5q6 -9 8 -15t2 -13t-3.5 -14t-11.5 -12l-29 -17h-7l-20 29q-16 24 -32.5 35.5t-47.5 11.5q-33 0 -62.5 -32t-48 -81.5t-18.5 -103.5q0 -71 24.5 -109t79.5 -38
q17 0 38 6.5t46 27t55 62.5h2l10 -8q-43 -76 -87 -113t-95 -37zM297 530l-95 177h10l110 -102l150 102h10l-157 -177h-28z" />
    <glyph glyph-name="uni010B" unicode="&#x10b;" horiz-adv-x="427" 
d="M198 -10q-72 0 -110 43.5t-38 126.5q0 52 20.5 104.5t56 97t80 71.5t91.5 27q37 0 60 -13.5t37 -35.5q6 -9 8 -15t2 -13t-3.5 -14t-11.5 -12l-29 -17h-7l-20 29q-16 24 -32.5 35.5t-47.5 11.5q-33 0 -62.5 -32t-48 -81.5t-18.5 -103.5q0 -71 24.5 -109t79.5 -38
q17 0 38 6.5t46 27t55 62.5h2l10 -8q-43 -76 -87 -113t-95 -37zM324 561q-23 0 -40 17t-17 40t17 40t40 17t40 -17t17 -40t-17 -40t-40 -17z" />
    <glyph glyph-name="uni00E7" unicode="&#xe7;" horiz-adv-x="427" 
d="M156 -240q-26 0 -47 8t-31 22l2 11h3q13 -6 27 -10t34 -4q64 0 64 48q0 25 -19.5 40t-66.5 30l55 86q-127 13 -127 169q0 52 20.5 104.5t56 97t80 71.5t91.5 27q37 0 60 -13.5t37 -35.5q6 -9 8 -15t2 -13t-3.5 -14t-11.5 -12l-29 -17h-7l-20 29q-16 24 -32.5 35.5
t-47.5 11.5q-33 0 -62.5 -32t-48 -81.5t-18.5 -103.5q0 -71 24.5 -109t79.5 -38q17 0 38 6.5t46 27t55 62.5h2l10 -8q-41 -73 -83.5 -110t-90.5 -40l-29 -45q45 -17 64 -39t19 -57q0 -37 -27.5 -63t-76.5 -26z" />
    <glyph glyph-name="uni1E09" unicode="&#x1e09;" horiz-adv-x="427" 
d="M305 530l106 177h78q-3 -15 -12 -29t-31 -34l-131 -114h-10zM155 -240q-25 0 -46 8t-32 22l2 11h3q13 -6 27 -10t34 -4q64 0 64 48q0 25 -19.5 40t-66.5 30l55 86q-126 13 -126 169q0 52 20.5 104.5t56 97t80 71.5t91.5 27q37 0 60 -13.5t37 -35.5q6 -9 8 -15t2 -13
t-3.5 -14t-11.5 -12l-29 -17h-7l-20 29q-16 24 -32.5 35.5t-47.5 11.5q-33 0 -62.5 -32t-48 -81.5t-18.5 -103.5q0 -71 24.5 -109t79.5 -38q17 0 38 6.5t46 27t55 62.5h2l10 -8q-41 -73 -83.5 -110t-91.5 -40l-29 -45q45 -17 64 -39t19 -57q0 -37 -27.5 -63t-76.5 -26z" />
    <glyph glyph-name="uni010F" unicode="&#x10f;" horiz-adv-x="515" 
d="M139 -10q-40 0 -64.5 34.5t-24.5 103.5q0 62 19.5 121t54 107t79.5 76t96 28q36 0 69 -13l41 233l-87 34v6l173 30h3l-111 -631q-5 -30 -2 -43t17 -13q17 0 37 18.5t38 56.5l13 -6q-29 -75 -62.5 -108.5t-68.5 -33.5t-48 27t-5 72l5 26h-4q-84 -125 -168 -125zM126 167
q0 -63 14 -87t46 -24q29 0 65 29.5t68 78.5l36 205q-21 28 -40.5 40t-44.5 12q-40 0 -72.5 -35t-52 -92.5t-19.5 -126.5zM525 553l57 187h73q2 -15 -1.5 -31.5t-19.5 -35.5l-99 -120h-10z" />
    <glyph glyph-name="uni0111" unicode="&#x111;" horiz-adv-x="515" 
d="M139 -10q-40 0 -64.5 34.5t-24.5 103.5q0 62 19.5 121t54 107t79.5 76t96 28q36 0 69 -13l17 96h-127l7 39h127l17 98l-87 34v6l173 30h3l-30 -168h72l-7 -39h-71l-75 -424q-5 -30 -2 -43t17 -13q17 0 37 18.5t38 56.5l13 -6q-29 -75 -62.5 -108.5t-68.5 -33.5t-48 27
t-5 72l5 26h-4q-84 -125 -168 -125zM126 167q0 -63 14 -87t46 -24q29 0 65 29.5t68 78.5l36 205q-21 28 -40.5 40t-44.5 12q-40 0 -72.5 -35t-52 -92.5t-19.5 -126.5z" />
    <glyph glyph-name="uni1E0D" unicode="&#x1e0d;" horiz-adv-x="515" 
d="M139 -10q-40 0 -64.5 34.5t-24.5 103.5q0 62 19.5 121t54 107t79.5 76t96 28q36 0 69 -13l41 233l-87 34v6l173 30h3l-111 -631q-5 -30 -2 -43t17 -13q17 0 37 18.5t38 56.5l13 -6q-29 -75 -62.5 -108.5t-68.5 -33.5t-48 27t-5 72l5 26h-4q-84 -125 -168 -125zM126 167
q0 -63 14 -87t46 -24q29 0 65 29.5t68 78.5l36 205q-21 28 -40.5 40t-44.5 12q-40 0 -72.5 -35t-52 -92.5t-19.5 -126.5zM206 -209q-23 0 -40 17t-17 40t17 40t40 17t40 -17t17 -40t-17 -40t-40 -17z" />
    <glyph glyph-name="uni1E0F" unicode="&#x1e0f;" horiz-adv-x="515" 
d="M139 -10q-40 0 -64.5 34.5t-24.5 103.5q0 62 19.5 121t54 107t79.5 76t96 28q36 0 69 -13l41 233l-87 34v6l173 30h3l-111 -631q-5 -30 -2 -43t17 -13q17 0 37 18.5t38 56.5l13 -6q-29 -75 -62.5 -108.5t-68.5 -33.5t-48 27t-5 72l5 26h-4q-84 -125 -168 -125zM126 167
q0 -63 14 -87t46 -24q29 0 65 29.5t68 78.5l36 205q-21 28 -40.5 40t-44.5 12q-40 0 -72.5 -35t-52 -92.5t-19.5 -126.5zM74 -171l8 44h253l-8 -44h-253z" />
    <glyph glyph-name="uni00E8" unicode="&#xe8;" horiz-adv-x="443" 
d="M199 -10q-77 0 -113 42.5t-36 115.5q0 59 19.5 114.5t54 100t80 71t98.5 26.5q50 0 75.5 -23t25.5 -54q0 -34 -24 -62.5t-83.5 -52t-167.5 -41.5q-2 -20 -2 -42q0 -61 26 -97t82 -36q33 0 65 18t66 59h2l10 -8q-34 -59 -81.5 -95t-96.5 -36zM275 425q-54 0 -91.5 -44.5
t-50.5 -117.5q75 13 117 28t59 35.5t17 51.5q0 20 -13 33.5t-38 13.5zM307 530l-129 114q-19 16 -21 32t0 31h70l90 -177h-10z" />
    <glyph glyph-name="uni00E9" unicode="&#xe9;" horiz-adv-x="443" 
d="M199 -10q-77 0 -113 42.5t-36 115.5q0 59 19.5 114.5t54 100t80 71t98.5 26.5q50 0 75.5 -23t25.5 -54q0 -34 -24 -62.5t-83.5 -52t-167.5 -41.5q-2 -20 -2 -42q0 -61 26 -97t82 -36q33 0 65 18t66 59h2l10 -8q-34 -59 -81.5 -95t-96.5 -36zM275 425q-54 0 -91.5 -44.5
t-50.5 -117.5q75 13 117 28t59 35.5t17 51.5q0 20 -13 33.5t-38 13.5zM308 530l106 177h78q-3 -15 -12 -29t-31 -34l-131 -114h-10z" />
    <glyph glyph-name="uni00EA" unicode="&#xea;" horiz-adv-x="443" 
d="M199 -10q-77 0 -113 42.5t-36 115.5q0 59 19.5 114.5t54 100t80 71t98.5 26.5q50 0 75.5 -23t25.5 -54q0 -34 -24 -62.5t-83.5 -52t-167.5 -41.5q-2 -20 -2 -42q0 -61 26 -97t82 -36q33 0 65 18t66 59h2l10 -8q-34 -59 -81.5 -95t-96.5 -36zM275 425q-54 0 -91.5 -44.5
t-50.5 -117.5q75 13 117 28t59 35.5t17 51.5q0 20 -13 33.5t-38 13.5zM171 530l158 177h28l94 -177h-10l-110 102l-150 -102h-10z" />
    <glyph glyph-name="uni011B" unicode="&#x11b;" horiz-adv-x="443" 
d="M199 -10q-77 0 -113 42.5t-36 115.5q0 59 19.5 114.5t54 100t80 71t98.5 26.5q50 0 75.5 -23t25.5 -54q0 -34 -24 -62.5t-83.5 -52t-167.5 -41.5q-2 -20 -2 -42q0 -61 26 -97t82 -36q33 0 65 18t66 59h2l10 -8q-34 -59 -81.5 -95t-96.5 -36zM275 425q-54 0 -91.5 -44.5
t-50.5 -117.5q75 13 117 28t59 35.5t17 51.5q0 20 -13 33.5t-38 13.5zM300 530l-95 177h10l110 -102l150 102h10l-157 -177h-28z" />
    <glyph glyph-name="uni1EBD" unicode="&#x1ebd;" horiz-adv-x="443" 
d="M199 -10q-77 0 -113 42.5t-36 115.5q0 59 19.5 114.5t54 100t80 71t98.5 26.5q50 0 75.5 -23t25.5 -54q0 -34 -24 -62.5t-83.5 -52t-167.5 -41.5q-2 -20 -2 -42q0 -61 26 -97t82 -36q33 0 65 18t66 59h2l10 -8q-34 -59 -81.5 -95t-96.5 -36zM275 425q-54 0 -91.5 -44.5
t-50.5 -117.5q75 13 117 28t59 35.5t17 51.5q0 20 -13 33.5t-38 13.5zM173 556q27 56 45.5 82.5t33.5 34t33 7.5t31.5 -10t25 -23.5t24 -23.5t28.5 -10q17 0 32.5 11t41.5 56h16q-27 -56 -45.5 -82.5t-34 -34t-32.5 -7.5q-18 0 -31.5 10t-25 23.5t-24 23.5t-28.5 10
q-17 0 -32.5 -11t-41.5 -56h-16z" />
    <glyph glyph-name="uni00EB" unicode="&#xeb;" horiz-adv-x="443" 
d="M199 -10q-77 0 -113 42.5t-36 115.5q0 59 19.5 114.5t54 100t80 71t98.5 26.5q50 0 75.5 -23t25.5 -54q0 -34 -24 -62.5t-83.5 -52t-167.5 -41.5q-2 -20 -2 -42q0 -61 26 -97t82 -36q33 0 65 18t66 59h2l10 -8q-34 -59 -81.5 -95t-96.5 -36zM275 425q-54 0 -91.5 -44.5
t-50.5 -117.5q75 13 117 28t59 35.5t17 51.5q0 20 -13 33.5t-38 13.5zM243 573q-19 0 -32 13t-13 32t13 32t32 13t32 -13t13 -32t-13 -32t-32 -13zM413 573q-19 0 -32 13t-13 32t13 32t32 13t32 -13t13 -32t-13 -32t-32 -13z" />
    <glyph glyph-name="uni0113" unicode="&#x113;" horiz-adv-x="443" 
d="M199 -10q-77 0 -113 42.5t-36 115.5q0 59 19.5 114.5t54 100t80 71t98.5 26.5q50 0 75.5 -23t25.5 -54q0 -34 -24 -62.5t-83.5 -52t-167.5 -41.5q-2 -20 -2 -42q0 -61 26 -97t82 -36q33 0 65 18t66 59h2l10 -8q-34 -59 -81.5 -95t-96.5 -36zM275 425q-54 0 -91.5 -44.5
t-50.5 -117.5q75 13 117 28t59 35.5t17 51.5q0 20 -13 33.5t-38 13.5zM198 595l8 44h253l-9 -44h-252z" />
    <glyph glyph-name="uni0115" unicode="&#x115;" horiz-adv-x="443" 
d="M199 -10q-77 0 -113 42.5t-36 115.5q0 59 19.5 114.5t54 100t80 71t98.5 26.5q50 0 75.5 -23t25.5 -54q0 -34 -24 -62.5t-83.5 -52t-167.5 -41.5q-2 -20 -2 -42q0 -61 26 -97t82 -36q33 0 65 18t66 59h2l10 -8q-34 -59 -81.5 -95t-96.5 -36zM275 425q-54 0 -91.5 -44.5
t-50.5 -117.5q75 13 117 28t59 35.5t17 51.5q0 20 -13 33.5t-38 13.5zM317 540q-64 0 -87.5 41.5t-26.5 125.5h10q8 -49 22.5 -72.5t35.5 -30.5t50 -7t53.5 6.5t48 30t48.5 73.5h10q-26 -84 -65.5 -125.5t-98.5 -41.5z" />
    <glyph glyph-name="uni0117" unicode="&#x117;" horiz-adv-x="443" 
d="M199 -10q-77 0 -113 42.5t-36 115.5q0 59 19.5 114.5t54 100t80 71t98.5 26.5q50 0 75.5 -23t25.5 -54q0 -34 -24 -62.5t-83.5 -52t-167.5 -41.5q-2 -20 -2 -42q0 -61 26 -97t82 -36q33 0 65 18t66 59h2l10 -8q-34 -59 -81.5 -95t-96.5 -36zM275 425q-54 0 -91.5 -44.5
t-50.5 -117.5q75 13 117 28t59 35.5t17 51.5q0 20 -13 33.5t-38 13.5zM327 561q-23 0 -40 17t-17 40t17 40t40 17t40 -17t17 -40t-17 -40t-40 -17z" />
    <glyph glyph-name="uni0119" unicode="&#x119;" horiz-adv-x="443" 
d="M199 -10q-77 0 -113 42.5t-36 115.5q0 59 19.5 114.5t54 100t80 71t98.5 26.5q50 0 75.5 -23t25.5 -54q0 -34 -24 -62.5t-83.5 -52t-167.5 -41.5q-2 -20 -2 -42q0 -61 26 -97t82 -36q33 0 65 18t66 59h2l10 -8q-17 -30 -38.5 -54.5t-43.5 -41.5q-41 -47 -63 -88t-22 -77
q0 -29 15 -42.5t41 -13.5q10 0 23 3.5t27 12.5h3l-2 -13q-33 -47 -87 -47q-38 0 -59.5 21.5t-21.5 59.5q0 33 22 69t70 85q-15 -3 -25 -4t-17 -1zM275 425q-54 0 -91.5 -44.5t-50.5 -117.5q75 13 117 28t59 35.5t17 51.5q0 20 -13 33.5t-38 13.5z" />
    <glyph glyph-name="uni1EB9" unicode="&#x1eb9;" horiz-adv-x="443" 
d="M199 -10q-77 0 -113 42.5t-36 115.5q0 59 19.5 114.5t54 100t80 71t98.5 26.5q50 0 75.5 -23t25.5 -54q0 -34 -24 -62.5t-83.5 -52t-167.5 -41.5q-2 -20 -2 -42q0 -61 26 -97t82 -36q33 0 65 18t66 59h2l10 -8q-34 -59 -81.5 -95t-96.5 -36zM275 425q-54 0 -91.5 -44.5
t-50.5 -117.5q75 13 117 28t59 35.5t17 51.5q0 20 -13 33.5t-38 13.5zM182 -209q-23 0 -40 17t-17 40t17 40t40 17t40 -17t17 -40t-17 -40t-40 -17z" />
    <glyph glyph-name="uni0205" unicode="&#x205;" horiz-adv-x="443" 
d="M199 -10q-77 0 -113 42.5t-36 115.5q0 59 19.5 114.5t54 100t80 71t98.5 26.5q50 0 75.5 -23t25.5 -54q0 -34 -24 -62.5t-83.5 -52t-167.5 -41.5q-2 -20 -2 -42q0 -61 26 -97t82 -36q33 0 65 18t66 59h2l10 -8q-34 -59 -81.5 -95t-96.5 -36zM275 425q-54 0 -91.5 -44.5
t-50.5 -117.5q75 13 117 28t59 35.5t17 51.5q0 20 -13 33.5t-38 13.5zM355 530l-95 119q-13 17 -15.5 29.5t0.5 28.5h55l65 -177h-10zM253 530l-116 119q-16 16 -18 30.5t1 27.5h55l88 -177h-10z" />
    <glyph glyph-name="uni0207" unicode="&#x207;" horiz-adv-x="443" 
d="M199 -10q-77 0 -113 42.5t-36 115.5q0 59 19.5 114.5t54 100t80 71t98.5 26.5q50 0 75.5 -23t25.5 -54q0 -34 -24 -62.5t-83.5 -52t-167.5 -41.5q-2 -20 -2 -42q0 -61 26 -97t82 -36q33 0 65 18t66 59h2l10 -8q-34 -59 -81.5 -95t-96.5 -36zM275 425q-54 0 -91.5 -44.5
t-50.5 -117.5q75 13 117 28t59 35.5t17 51.5q0 20 -13 33.5t-38 13.5zM174 540q26 84 65.5 125.5t98.5 41.5q64 0 87.5 -41.5t26.5 -125.5h-10q-8 49 -22.5 72.5t-35.5 30.5t-50 7t-53.5 -6.5t-48 -30t-48.5 -73.5h-10z" />
    <glyph glyph-name="uni1EBF" unicode="&#x1ebf;" horiz-adv-x="443" 
d="M199 -10q-77 0 -113 42.5t-36 115.5q0 59 19.5 114.5t54 100t80 71t98.5 26.5q50 0 75.5 -23t25.5 -54q0 -34 -24 -62.5t-83.5 -52t-167.5 -41.5q-2 -20 -2 -42q0 -61 26 -97t82 -36q33 0 65 18t66 59h2l10 -8q-34 -59 -81.5 -95t-96.5 -36zM275 425q-54 0 -91.5 -44.5
t-50.5 -117.5q75 13 117 28t59 35.5t17 51.5q0 20 -13 33.5t-38 13.5zM438 637l64 143h77q-3 -15 -11.5 -29.5t-29.5 -32.5l-92 -81h-8zM171 530l158 177h28l94 -177h-10l-110 102l-150 -102h-10z" />
    <glyph glyph-name="uni1EC7" unicode="&#x1ec7;" horiz-adv-x="443" 
d="M199 -10q-77 0 -113 42.5t-36 115.5q0 59 19.5 114.5t54 100t80 71t98.5 26.5q50 0 75.5 -23t25.5 -54q0 -34 -24 -62.5t-83.5 -52t-167.5 -41.5q-2 -20 -2 -42q0 -61 26 -97t82 -36q33 0 65 18t66 59h2l10 -8q-34 -59 -81.5 -95t-96.5 -36zM275 425q-54 0 -91.5 -44.5
t-50.5 -117.5q75 13 117 28t59 35.5t17 51.5q0 20 -13 33.5t-38 13.5zM171 530l158 177h28l94 -177h-10l-110 102l-150 -102h-10zM182 -209q-23 0 -40 17t-17 40t17 40t40 17t40 -17t17 -40t-17 -40t-40 -17z" />
    <glyph glyph-name="uni1EC1" unicode="&#x1ec1;" horiz-adv-x="443" 
d="M199 -10q-77 0 -113 42.5t-36 115.5q0 59 19.5 114.5t54 100t80 71t98.5 26.5q50 0 75.5 -23t25.5 -54q0 -34 -24 -62.5t-83.5 -52t-167.5 -41.5q-2 -20 -2 -42q0 -61 26 -97t82 -36q33 0 65 18t66 59h2l10 -8q-34 -59 -81.5 -95t-96.5 -36zM275 425q-54 0 -91.5 -44.5
t-50.5 -117.5q75 13 117 28t59 35.5t17 51.5q0 20 -13 33.5t-38 13.5zM203 637l-95 80q-18 16 -20.5 32t-0.5 31h67l59 -143h-10zM171 530l158 177h28l94 -177h-10l-110 102l-150 -102h-10z" />
    <glyph glyph-name="uni1EC3" unicode="&#x1ec3;" horiz-adv-x="443" 
d="M199 -10q-77 0 -113 42.5t-36 115.5q0 59 19.5 114.5t54 100t80 71t98.5 26.5q50 0 75.5 -23t25.5 -54q0 -34 -24 -62.5t-83.5 -52t-167.5 -41.5q-2 -20 -2 -42q0 -61 26 -97t82 -36q33 0 65 18t66 59h2l10 -8q-34 -59 -81.5 -95t-96.5 -36zM275 425q-54 0 -91.5 -44.5
t-50.5 -117.5q75 13 117 28t59 35.5t17 51.5q0 20 -13 33.5t-38 13.5zM171 530l158 177h28l94 -177h-10l-110 102l-150 -102h-10zM307 734v1q38 12 57.5 27.5t19.5 42.5q0 17 -14.5 28.5t-49.5 18.5l18 49q52 -5 72.5 -27t20.5 -48q0 -74 -119 -98z" />
    <glyph glyph-name="uni1EC5" unicode="&#x1ec5;" horiz-adv-x="443" 
d="M199 -10q-77 0 -113 42.5t-36 115.5q0 59 19.5 114.5t54 100t80 71t98.5 26.5q50 0 75.5 -23t25.5 -54q0 -34 -24 -62.5t-83.5 -52t-167.5 -41.5q-2 -20 -2 -42q0 -61 26 -97t82 -36q33 0 65 18t66 59h2l10 -8q-34 -59 -81.5 -95t-96.5 -36zM275 425q-54 0 -91.5 -44.5
t-50.5 -117.5q75 13 117 28t59 35.5t17 51.5q0 20 -13 33.5t-38 13.5zM171 530l158 177h28l94 -177h-10l-110 102l-150 -102h-10zM213 726q25 52 43 76t32.5 31t31.5 7q25 0 44.5 -15t36.5 -29.5t37 -14.5q17 0 31.5 9.5t38.5 49.5h16q-25 -52 -43 -76t-33 -31t-31 -7
q-25 0 -44 15t-36 29.5t-37 14.5q-17 0 -32 -9.5t-39 -49.5h-16z" />
    <glyph glyph-name="uni1EBB" unicode="&#x1ebb;" horiz-adv-x="443" 
d="M199 -10q-77 0 -113 42.5t-36 115.5q0 59 19.5 114.5t54 100t80 71t98.5 26.5q50 0 75.5 -23t25.5 -54q0 -34 -24 -62.5t-83.5 -52t-167.5 -41.5q-2 -20 -2 -42q0 -61 26 -97t82 -36q33 0 65 18t66 59h2l10 -8q-34 -59 -81.5 -95t-96.5 -36zM275 425q-54 0 -91.5 -44.5
t-50.5 -117.5q75 13 117 28t59 35.5t17 51.5q0 20 -13 33.5t-38 13.5zM272 540v1q38 12 57.5 27.5t19.5 42.5q0 17 -14.5 28.5t-49.5 18.5l18 49q52 -5 72.5 -27t20.5 -48q0 -74 -119 -98z" />
    <glyph glyph-name="uni1E15" unicode="&#x1e15;" horiz-adv-x="443" 
d="M199 -10q-77 0 -113 42.5t-36 115.5q0 59 19.5 114.5t54 100t80 71t98.5 26.5q50 0 75.5 -23t25.5 -54q0 -34 -24 -62.5t-83.5 -52t-167.5 -41.5q-2 -20 -2 -42q0 -61 26 -97t82 -36q33 0 65 18t66 59h2l10 -8q-34 -59 -81.5 -95t-96.5 -36zM275 425q-54 0 -91.5 -44.5
t-50.5 -117.5q75 13 117 28t59 35.5t17 51.5q0 20 -13 33.5t-38 13.5zM197 595l8 44h253l-9 -44h-252zM356 710l-129 89q-20 14 -21.5 31t0.5 32h70l90 -152h-10z" />
    <glyph glyph-name="uni1E17" unicode="&#x1e17;" horiz-adv-x="443" 
d="M199 -10q-77 0 -113 42.5t-36 115.5q0 59 19.5 114.5t54 100t80 71t98.5 26.5q50 0 75.5 -23t25.5 -54q0 -34 -24 -62.5t-83.5 -52t-167.5 -41.5q-2 -20 -2 -42q0 -61 26 -97t82 -36q33 0 65 18t66 59h2l10 -8q-34 -59 -81.5 -95t-96.5 -36zM275 425q-54 0 -91.5 -44.5
t-50.5 -117.5q75 13 117 28t59 35.5t17 51.5q0 20 -13 33.5t-38 13.5zM197 595l8 44h253l-9 -44h-252zM343 710l106 152h78q-3 -15 -11 -30.5t-32 -32.5l-131 -89h-10z" />
    <glyph glyph-name="uni1E1D" unicode="&#x1e1d;" horiz-adv-x="443" 
d="M317 540q-64 0 -87.5 41.5t-26.5 125.5h10q8 -49 22.5 -72.5t35.5 -30.5t50 -7t53.5 6.5t48 30t48.5 73.5h10q-26 -84 -65.5 -125.5t-98.5 -41.5zM168 -240q-26 0 -47 8t-31 22l2 11h3q13 -6 27 -10t34 -4q64 0 64 48q0 25 -19.5 40t-66.5 30l54 85q-71 3 -104.5 45.5
t-33.5 112.5q0 59 19.5 114.5t54 100t80 71t98.5 26.5q50 0 75.5 -23t25.5 -54q0 -34 -24 -62.5t-83.5 -52t-167.5 -41.5q-2 -20 -2 -42q0 -61 26 -97t82 -36q33 0 65 18t66 59h2l10 -8q-30 -53 -72 -87.5t-86 -41.5l-30 -47q45 -17 64 -39t19 -57q0 -37 -27.5 -63
t-76.5 -26zM275 425q-54 0 -91.5 -44.5t-50.5 -117.5q75 13 117 28t59 35.5t17 51.5q0 20 -13 33.5t-38 13.5z" />
    <glyph glyph-name="uni011D" unicode="&#x11d;" horiz-adv-x="442" 
d="M208 153q-30 0 -55 9q-23 -11 -32.5 -27.5t-9.5 -34.5q0 -20 20 -31t51.5 -18t67.5 -14.5t67.5 -20t51.5 -34t20 -57.5q0 -40 -25 -78t-74.5 -62.5t-125.5 -24.5q-89 0 -131.5 29t-42.5 73q0 32 9.5 50t31.5 40l80 45v2q-31 9 -51.5 25t-20.5 47q0 21 5 35t19 30l67 34v3
q-27 16 -42.5 43.5t-15.5 62.5q0 42 24.5 83.5t67 69.5t97.5 28q27 0 56 -10h151v-44h-89l-4 -3q21 -28 21 -74q0 -28 -13 -58.5t-38 -57.5t-59.5 -43.5t-77.5 -16.5zM226 192q28 0 49.5 21t34 51.5t12.5 60.5q0 43 -21 69.5t-55 26.5q-30 0 -52.5 -19.5t-34.5 -49.5
t-12 -62q0 -44 21.5 -71t57.5 -27zM65 -127q0 -37 31.5 -59.5t84.5 -22.5q69 0 102 31t33 74q0 28 -16.5 44.5t-43.5 25.5t-58.5 14.5t-61.5 12.5q-46 -32 -58.5 -61.5t-12.5 -58.5zM133 530l158 177h28l94 -177h-10l-110 102l-150 -102h-10z" />
    <glyph glyph-name="uni011F" unicode="&#x11f;" horiz-adv-x="442" 
d="M208 153q-30 0 -55 9q-23 -11 -32.5 -27.5t-9.5 -34.5q0 -20 20 -31t51.5 -18t67.5 -14.5t67.5 -20t51.5 -34t20 -57.5q0 -40 -25 -78t-74.5 -62.5t-125.5 -24.5q-89 0 -131.5 29t-42.5 73q0 32 9.5 50t31.5 40l80 45v2q-31 9 -51.5 25t-20.5 47q0 21 5 35t19 30l67 34v3
q-27 16 -42.5 43.5t-15.5 62.5q0 42 24.5 83.5t67 69.5t97.5 28q27 0 56 -10h151v-44h-89l-4 -3q21 -28 21 -74q0 -28 -13 -58.5t-38 -57.5t-59.5 -43.5t-77.5 -16.5zM226 192q28 0 49.5 21t34 51.5t12.5 60.5q0 43 -21 69.5t-55 26.5q-30 0 -52.5 -19.5t-34.5 -49.5
t-12 -62q0 -44 21.5 -71t57.5 -27zM65 -127q0 -37 31.5 -59.5t84.5 -22.5q69 0 102 31t33 74q0 28 -16.5 44.5t-43.5 25.5t-58.5 14.5t-61.5 12.5q-46 -32 -58.5 -61.5t-12.5 -58.5zM279 540q-64 0 -87.5 41.5t-26.5 125.5h10q8 -49 22.5 -72.5t35.5 -30.5t50 -7t53.5 6.5
t48 30t48.5 73.5h10q-26 -84 -65.5 -125.5t-98.5 -41.5z" />
    <glyph glyph-name="uni0121" unicode="&#x121;" horiz-adv-x="442" 
d="M208 153q-30 0 -55 9q-23 -11 -32.5 -27.5t-9.5 -34.5q0 -20 20 -31t51.5 -18t67.5 -14.5t67.5 -20t51.5 -34t20 -57.5q0 -40 -25 -78t-74.5 -62.5t-125.5 -24.5q-89 0 -131.5 29t-42.5 73q0 32 9.5 50t31.5 40l80 45v2q-31 9 -51.5 25t-20.5 47q0 21 5 35t19 30l67 34v3
q-27 16 -42.5 43.5t-15.5 62.5q0 42 24.5 83.5t67 69.5t97.5 28q27 0 56 -10h151v-44h-89l-4 -3q21 -28 21 -74q0 -28 -13 -58.5t-38 -57.5t-59.5 -43.5t-77.5 -16.5zM226 192q28 0 49.5 21t34 51.5t12.5 60.5q0 43 -21 69.5t-55 26.5q-30 0 -52.5 -19.5t-34.5 -49.5
t-12 -62q0 -44 21.5 -71t57.5 -27zM65 -127q0 -37 31.5 -59.5t84.5 -22.5q69 0 102 31t33 74q0 28 -16.5 44.5t-43.5 25.5t-58.5 14.5t-61.5 12.5q-46 -32 -58.5 -61.5t-12.5 -58.5zM289 561q-23 0 -40 17t-17 40t17 40t40 17t40 -17t17 -40t-17 -40t-40 -17z" />
    <glyph glyph-name="uni0123" unicode="&#x123;" horiz-adv-x="442" 
d="M208 153q-30 0 -55 9q-23 -11 -32.5 -27.5t-9.5 -34.5q0 -20 20 -31t51.5 -18t67.5 -14.5t67.5 -20t51.5 -34t20 -57.5q0 -40 -25 -78t-74.5 -62.5t-125.5 -24.5q-89 0 -131.5 29t-42.5 73q0 32 9.5 50t31.5 40l80 45v2q-31 9 -51.5 25t-20.5 47q0 21 5 35t19 30l67 34v3
q-27 16 -42.5 43.5t-15.5 62.5q0 42 24.5 83.5t67 69.5t97.5 28q27 0 56 -10h151v-44h-89l-4 -3q21 -28 21 -74q0 -28 -13 -58.5t-38 -57.5t-59.5 -43.5t-77.5 -16.5zM226 192q28 0 49.5 21t34 51.5t12.5 60.5q0 43 -21 69.5t-55 26.5q-30 0 -52.5 -19.5t-34.5 -49.5
t-12 -62q0 -44 21.5 -71t57.5 -27zM65 -127q0 -37 31.5 -59.5t84.5 -22.5q69 0 102 31t33 74q0 28 -16.5 44.5t-43.5 25.5t-58.5 14.5t-61.5 12.5q-46 -32 -58.5 -61.5t-12.5 -58.5zM311 538q-52 0 -77 21t-25 53q0 44 35 65.5t89 21.5q8 0 18 -0.5t17 -2.5l-3 -11
q-7 1 -12 1.5t-11 0.5q-36 0 -56.5 -14t-20.5 -40q0 -25 20 -35.5t63 -10.5l-5 -28q-2 -9 -9 -15t-23 -6z" />
    <glyph glyph-name="uni01E7" unicode="&#x1e7;" horiz-adv-x="442" 
d="M208 153q-30 0 -55 9q-23 -11 -32.5 -27.5t-9.5 -34.5q0 -20 20 -31t51.5 -18t67.5 -14.5t67.5 -20t51.5 -34t20 -57.5q0 -40 -25 -78t-74.5 -62.5t-125.5 -24.5q-89 0 -131.5 29t-42.5 73q0 32 9.5 50t31.5 40l80 45v2q-31 9 -51.5 25t-20.5 47q0 21 5 35t19 30l67 34v3
q-27 16 -42.5 43.5t-15.5 62.5q0 42 24.5 83.5t67 69.5t97.5 28q27 0 56 -10h151v-44h-89l-4 -3q21 -28 21 -74q0 -28 -13 -58.5t-38 -57.5t-59.5 -43.5t-77.5 -16.5zM226 192q28 0 49.5 21t34 51.5t12.5 60.5q0 43 -21 69.5t-55 26.5q-30 0 -52.5 -19.5t-34.5 -49.5
t-12 -62q0 -44 21.5 -71t57.5 -27zM65 -127q0 -37 31.5 -59.5t84.5 -22.5q69 0 102 31t33 74q0 28 -16.5 44.5t-43.5 25.5t-58.5 14.5t-61.5 12.5q-46 -32 -58.5 -61.5t-12.5 -58.5zM262 530l-95 177h10l110 -102l150 102h10l-157 -177h-28z" />
    <glyph glyph-name="uni1E21" unicode="&#x1e21;" horiz-adv-x="442" 
d="M208 153q-30 0 -55 9q-23 -11 -32.5 -27.5t-9.5 -34.5q0 -20 20 -31t51.5 -18t67.5 -14.5t67.5 -20t51.5 -34t20 -57.5q0 -40 -25 -78t-74.5 -62.5t-125.5 -24.5q-89 0 -131.5 29t-42.5 73q0 32 9.5 50t31.5 40l80 45v2q-31 9 -51.5 25t-20.5 47q0 21 5 35t19 30l67 34v3
q-27 16 -42.5 43.5t-15.5 62.5q0 42 24.5 83.5t67 69.5t97.5 28q27 0 56 -10h151v-44h-89l-4 -3q21 -28 21 -74q0 -28 -13 -58.5t-38 -57.5t-59.5 -43.5t-77.5 -16.5zM226 192q28 0 49.5 21t34 51.5t12.5 60.5q0 43 -21 69.5t-55 26.5q-30 0 -52.5 -19.5t-34.5 -49.5
t-12 -62q0 -44 21.5 -71t57.5 -27zM65 -127q0 -37 31.5 -59.5t84.5 -22.5q69 0 102 31t33 74q0 28 -16.5 44.5t-43.5 25.5t-58.5 14.5t-61.5 12.5q-46 -32 -58.5 -61.5t-12.5 -58.5zM160 595l8 44h253l-9 -44h-252z" />
    <glyph glyph-name="uni0125" unicode="&#x125;" horiz-adv-x="517" 
d="M106 0h-76l119 678l-78 35v6l164 30h3l-69 -394h2q35 39 61.5 62t52 33t57.5 10q49 0 75.5 -40t14.5 -108l-35 -193q-5 -30 -2 -43t17 -13q17 0 37 18.5t38 56.5l13 -6q-29 -75 -62.5 -108.5t-68.5 -33.5t-48 27t-5 72l39 220q5 35 -8.5 62.5t-57.5 27.5q-22 0 -45 -14.5
t-45 -35t-38 -38.5zM195 765l157 152h28l95 -152h-10l-110 82l-150 -82h-10z" />
    <glyph glyph-name="uni0127" unicode="&#x127;" horiz-adv-x="517" 
d="M30 0l92 524h-84l8 44h84l19 110l-78 35v6l164 30h3l-32 -181h151l-8 -44h-151l-29 -169h2q35 39 61.5 62t52 33t57.5 10q49 0 75.5 -40t14.5 -108l-35 -193q-5 -30 -2 -43t17 -13q17 0 37 18.5t38 56.5l13 -6q-29 -75 -62.5 -108.5t-68.5 -33.5t-48 27t-5 72l39 220
q5 35 -8.5 62.5t-57.5 27.5q-22 0 -45 -14.5t-45 -35t-38 -38.5l-55 -311h-76z" />
    <glyph glyph-name="uni1E25" unicode="&#x1e25;" horiz-adv-x="517" 
d="M106 0h-76l119 678l-78 35v6l164 30h3l-69 -394h2q35 39 61.5 62t52 33t57.5 10q49 0 75.5 -40t14.5 -108l-35 -193q-5 -30 -2 -43t17 -13q17 0 37 18.5t38 56.5l13 -6q-29 -75 -62.5 -108.5t-68.5 -33.5t-48 27t-5 72l39 220q5 35 -8.5 62.5t-57.5 27.5q-22 0 -45 -14.5
t-45 -35t-38 -38.5zM213 -209q-23 0 -40 17t-17 40t17 40t40 17t40 -17t17 -40t-17 -40t-40 -17z" />
    <glyph glyph-name="uni1E2B" unicode="&#x1e2b;" horiz-adv-x="517" 
d="M106 0h-76l119 678l-78 35v6l164 30h3l-69 -394h2q35 39 61.5 62t52 33t57.5 10q49 0 75.5 -40t14.5 -108l-35 -193q-5 -30 -2 -43t17 -13q17 0 37 18.5t38 56.5l13 -6q-29 -75 -62.5 -108.5t-68.5 -33.5t-48 27t-5 72l39 220q5 35 -8.5 62.5t-57.5 27.5q-22 0 -45 -14.5
t-45 -35t-38 -38.5zM201 -240q-64 0 -87.5 41.5t-26.5 125.5h10q8 -49 22.5 -72.5t36 -30.5t49.5 -7q29 0 53.5 6.5t47.5 30t49 73.5h10q-26 -84 -65.5 -125.5t-98.5 -41.5z" />
    <glyph glyph-name="uni00EC" unicode="&#xec;" horiz-adv-x="288" 
d="M125 -10q-35 0 -48 27t-5 72l53 301l-87 34v6l173 30h3l-61 -341q-5 -30 -2 -43t17 -13q17 0 37 18.5t38 56.5l13 -6q-29 -75 -62.5 -108.5t-68.5 -33.5zM170 530l-129 114q-19 16 -21 32t0 31h70l90 -177h-10z" />
    <glyph glyph-name="uni00ED" unicode="&#xed;" horiz-adv-x="288" 
d="M125 -10q-35 0 -48 27t-5 72l53 301l-87 34v6l173 30h3l-61 -341q-5 -30 -2 -43t17 -13q17 0 37 18.5t38 56.5l13 -6q-29 -75 -62.5 -108.5t-68.5 -33.5zM171 530l106 177h78q-3 -15 -12 -29t-31 -34l-131 -114h-10z" />
    <glyph glyph-name="uni00EE" unicode="&#xee;" horiz-adv-x="288" 
d="M125 -10q-35 0 -48 27t-5 72l53 301l-87 34v6l173 30h3l-61 -341q-5 -30 -2 -43t17 -13q17 0 37 18.5t38 56.5l13 -6q-29 -75 -62.5 -108.5t-68.5 -33.5zM34 530l158 177h28l94 -177h-10l-110 102l-150 -102h-10z" />
    <glyph glyph-name="uni0129" unicode="&#x129;" horiz-adv-x="288" 
d="M125 -10q-35 0 -48 27t-5 72l53 301l-87 34v6l173 30h3l-61 -341q-5 -30 -2 -43t17 -13q17 0 37 18.5t38 56.5l13 -6q-29 -75 -62.5 -108.5t-68.5 -33.5zM36 556q27 56 45.5 82.5t33.5 34t33 7.5t31.5 -10t25 -23.5t24 -23.5t28.5 -10q17 0 32.5 11t41.5 56h16
q-27 -56 -45.5 -82.5t-34 -34t-32.5 -7.5q-18 0 -31.5 10t-25 23.5t-24 23.5t-28.5 10q-17 0 -32.5 -11t-41.5 -56h-16z" />
    <glyph glyph-name="uni00EF" unicode="&#xef;" horiz-adv-x="288" 
d="M125 -10q-35 0 -48 27t-5 72l53 301l-87 34v6l173 30h3l-61 -341q-5 -30 -2 -43t17 -13q17 0 37 18.5t38 56.5l13 -6q-29 -75 -62.5 -108.5t-68.5 -33.5zM106 573q-19 0 -32 13t-13 32t13 32t32 13t32 -13t13 -32t-13 -32t-32 -13zM276 573q-19 0 -32 13t-13 32t13 32
t32 13t32 -13t13 -32t-13 -32t-32 -13z" />
    <glyph glyph-name="uni012B" unicode="&#x12b;" horiz-adv-x="288" 
d="M125 -10q-35 0 -48 27t-5 72l53 301l-87 34v6l173 30h3l-61 -341q-5 -30 -2 -43t17 -13q17 0 37 18.5t38 56.5l13 -6q-29 -75 -62.5 -108.5t-68.5 -33.5zM61 595l8 44h253l-9 -44h-252z" />
    <glyph glyph-name="uni012D" unicode="&#x12d;" horiz-adv-x="288" 
d="M125 -10q-35 0 -48 27t-5 72l53 301l-87 34v6l173 30h3l-61 -341q-5 -30 -2 -43t17 -13q17 0 37 18.5t38 56.5l13 -6q-29 -75 -62.5 -108.5t-68.5 -33.5zM180 540q-64 0 -87.5 41.5t-26.5 125.5h10q8 -49 22.5 -72.5t35.5 -30.5t50 -7t53.5 6.5t48 30t48.5 73.5h10
q-26 -84 -65.5 -125.5t-98.5 -41.5z" />
    <glyph glyph-name="idotaccent" horiz-adv-x="288" 
d="M125 -10q-35 0 -48 27t-5 72l53 301l-87 34v6l173 30h3l-61 -341q-5 -30 -2 -43t17 -13q17 0 37 18.5t38 56.5l13 -6q-29 -75 -62.5 -108.5t-68.5 -33.5zM190 561q-23 0 -40 17t-17 40t17 40t40 17t40 -17t17 -40t-17 -40t-40 -17z" />
    <glyph glyph-name="uni012F" unicode="&#x12f;" horiz-adv-x="288" 
d="M196 585q-23 0 -40 17t-17 40t17 40t40 17t40 -17t17 -40t-17 -40t-40 -17zM125 -10h-5q-56 -74 -56 -130q0 -29 15 -42.5t41 -13.5q10 0 23 3.5t27 12.5h3l-2 -13q-33 -47 -87 -47q-38 0 -59.5 21.5t-21.5 59.5q0 36 24.5 74t68.5 82q-19 10 -24.5 34t0.5 58l53 301
l-87 34v6l173 30h3l-61 -341q-5 -30 -2 -43t17 -13q17 0 37 18.5t38 56.5l13 -6q-29 -75 -62.5 -108.5t-68.5 -33.5z" />
    <glyph glyph-name="uni1ECB" unicode="&#x1ecb;" horiz-adv-x="288" 
d="M196 585q-23 0 -40 17t-17 40t17 40t40 17t40 -17t17 -40t-17 -40t-40 -17zM125 -10q-35 0 -48 27t-5 72l53 301l-87 34v6l173 30h3l-61 -341q-5 -30 -2 -43t17 -13q17 0 37 18.5t38 56.5l13 -6q-29 -75 -62.5 -108.5t-68.5 -33.5zM91 -209q-23 0 -40 17t-17 40t17 40
t40 17t40 -17t17 -40t-17 -40t-40 -17z" />
    <glyph glyph-name="uni0131" unicode="&#x131;" horiz-adv-x="288" 
d="M125 -10q-35 0 -48 27t-5 72l53 301l-87 34v6l173 30h3l-61 -341q-5 -30 -2 -43t17 -13q17 0 37 18.5t38 56.5l13 -6q-29 -75 -62.5 -108.5t-68.5 -33.5z" />
    <glyph glyph-name="uni0209" unicode="&#x209;" horiz-adv-x="288" 
d="M125 -10q-35 0 -48 27t-5 72l53 301l-87 34v6l173 30h3l-61 -341q-5 -30 -2 -43t17 -13q17 0 37 18.5t38 56.5l13 -6q-29 -75 -62.5 -108.5t-68.5 -33.5zM218 530l-95 119q-13 17 -15.5 29.5t0.5 28.5h55l65 -177h-10zM116 530l-116 119q-16 16 -18 30.5t1 27.5h55
l88 -177h-10z" />
    <glyph glyph-name="uni020B" unicode="&#x20b;" horiz-adv-x="288" 
d="M125 -10q-35 0 -48 27t-5 72l53 301l-87 34v6l173 30h3l-61 -341q-5 -30 -2 -43t17 -13q17 0 37 18.5t38 56.5l13 -6q-29 -75 -62.5 -108.5t-68.5 -33.5zM37 540q26 84 65.5 125.5t98.5 41.5q64 0 87.5 -41.5t26.5 -125.5h-10q-8 49 -22.5 72.5t-35.5 30.5t-50 7
t-53.5 -6.5t-48 -30t-48.5 -73.5h-10z" />
    <glyph glyph-name="uni1EC9" unicode="&#x1ec9;" horiz-adv-x="288" 
d="M125 -10q-35 0 -48 27t-5 72l53 301l-87 34v6l173 30h3l-61 -341q-5 -30 -2 -43t17 -13q17 0 37 18.5t38 56.5l13 -6q-29 -75 -62.5 -108.5t-68.5 -33.5zM135 540v1q38 12 57.5 27.5t19.5 42.5q0 17 -14.5 28.5t-49.5 18.5l18 49q52 -5 72.5 -27t20.5 -48q0 -74 -119 -98
z" />
    <glyph glyph-name="uni1E2F" unicode="&#x1e2f;" horiz-adv-x="288" 
d="M125 -10q-35 0 -48 27t-5 72l53 301l-87 34v6l173 30h3l-61 -341q-5 -30 -2 -43t17 -13q17 0 37 18.5t38 56.5l13 -6q-29 -75 -62.5 -108.5t-68.5 -33.5zM106 573q-19 0 -32 13t-13 32t13 32t32 13t32 -13t13 -32t-13 -32t-32 -13zM276 573q-19 0 -32 13t-13 32t13 32
t32 13t32 -13t13 -32t-13 -32t-32 -13zM204 710l106 152h78q-3 -15 -11 -30.5t-32 -32.5l-131 -89h-10z" />
    <glyph glyph-name="uni0133" unicode="&#x133;" horiz-adv-x="576" 
d="M196 585q-23 0 -40 17t-17 40t17 40t40 17t40 -17t17 -40t-17 -40t-40 -17zM125 -10q-35 0 -48 27t-5 72l53 301l-87 34v6l173 30h3l-61 -341q-5 -30 -2 -43t17 -13q17 0 37 18.5t38 56.5l13 -6q-29 -75 -62.5 -108.5t-68.5 -33.5zM484 585q-23 0 -40 17t-17 40t17 40
t40 17t40 -17t17 -40t-17 -40t-40 -17zM212 -230v16q34 22 59.5 48.5t43 63.5t27.5 92l71 400l-87 34v6l173 30h3l-82 -460q-14 -74 -68.5 -131.5t-139.5 -98.5z" />
    <glyph glyph-name="jacute" horiz-adv-x="288" 
d="M-76 -230v16q34 22 59.5 48.5t43 63.5t27.5 92l71 400l-87 34v6l173 30h3l-82 -460q-14 -74 -68.5 -131.5t-139.5 -98.5zM179 530l106 177h78q-3 -15 -12 -29t-31 -34l-131 -114h-10z" />
    <glyph glyph-name="uni0135" unicode="&#x135;" horiz-adv-x="288" 
d="M-76 -230v16q34 22 59.5 48.5t43 63.5t27.5 92l71 400l-87 34v6l173 30h3l-82 -460q-14 -74 -68.5 -131.5t-139.5 -98.5zM42 530l158 177h28l94 -177h-10l-110 102l-150 -102h-10z" />
    <glyph glyph-name="uni0237" unicode="&#x237;" horiz-adv-x="288" 
d="M-76 -230v16q34 22 59.5 48.5t43 63.5t27.5 92l71 400l-87 34v6l173 30h3l-82 -460q-14 -74 -68.5 -131.5t-139.5 -98.5z" />
    <glyph glyph-name="uni0137" unicode="&#x137;" horiz-adv-x="467" 
d="M30 0l119 678l-78 35v6l164 30h3l-132 -749h-76zM338 -10q-24 0 -37.5 12t-24.5 32t-25 45l-95 173v5q73 77 117.5 121t71.5 63t49 19q12 0 20.5 -2.5t13.5 -6.5q7 -5 10.5 -12.5t-0.5 -16.5l-17 -42l-5 -4l-18 7q-5 2 -11.5 3t-20.5 1q-9 0 -21.5 -3.5t-26.5 -15.5
l-95 -83l101 -176q15 -25 25.5 -35.5t24.5 -10.5q18 0 32.5 18.5t32.5 56.5l13 -6q-32 -76 -56 -109t-58 -33zM112 -239q-8 0 -17.5 0.5t-17.5 2.5l3 11q7 -1 12 -1.5t11 -0.5q36 0 56.5 14t20.5 40q0 25 -20 35.5t-63 10.5l5 28q1 9 8 15t24 6q52 0 77 -21t25 -53
q0 -44 -35 -65.5t-89 -21.5z" />
    <glyph glyph-name="uni0138" unicode="&#x138;" horiz-adv-x="481" 
d="M44 0l68 389l-78 35v6l164 30h3l-81 -460h-76zM352 -10q-24 0 -37.5 12t-24.5 32t-25 45l-95 173v5q73 77 117.5 121t71.5 63t49 19q12 0 20.5 -2.5t13.5 -6.5q4 -4 8 -9t4 -12q0 -2 -2 -8l-17 -42l-5 -4l-19 7q-5 2 -11 3t-20 1q-9 0 -21.5 -3.5t-26.5 -15.5l-95 -83
l101 -176q15 -25 25.5 -35.5t24.5 -10.5q18 0 32.5 18.5t32.5 56.5l13 -6q-32 -76 -56 -109t-58 -33z" />
    <glyph glyph-name="uni013A" unicode="&#x13a;" horiz-adv-x="258" 
d="M101 -10q-35 0 -48 27t-5 72l103 591l-87 34v6l173 30h3l-111 -631q-5 -30 -2 -43t17 -13q17 0 37 18.5t38 56.5l13 -6q-29 -75 -62.5 -108.5t-68.5 -33.5zM201 765l106 152h78q-3 -15 -11 -30.5t-32 -32.5l-131 -89h-10z" />
    <glyph glyph-name="uni013E" unicode="&#x13e;" horiz-adv-x="258" 
d="M101 -10q-35 0 -48 27t-5 72l103 591l-87 34v6l173 30h3l-111 -631q-5 -30 -2 -43t17 -13q17 0 37 18.5t38 56.5l13 -6q-29 -75 -62.5 -108.5t-68.5 -33.5zM267 553l57 187h73q2 -15 -1.5 -31.5t-19.5 -35.5l-99 -120h-10z" />
    <glyph glyph-name="uni013C" unicode="&#x13c;" horiz-adv-x="258" 
d="M101 -10q-35 0 -48 27t-5 72l103 591l-87 34v6l173 30h3l-111 -631q-5 -30 -2 -43t17 -13q17 0 37 18.5t38 56.5l13 -6q-29 -75 -62.5 -108.5t-68.5 -33.5zM19 -239q-8 0 -17.5 0.5t-17.5 2.5l3 11q7 -1 12 -1.5t11 -0.5q36 0 56.5 14t20.5 40q0 25 -20 35.5t-63 10.5
l5 28q1 9 8 15t24 6q52 0 77 -21t25 -53q0 -44 -35 -65.5t-89 -21.5z" />
    <glyph glyph-name="uni0142" unicode="&#x142;" horiz-adv-x="258" 
d="M101 -10q-35 0 -48 27t-5 72l35 202l-63 -45l10 54l63 45l58 335l-87 34v6l173 30h3l-62 -354l76 54l-10 -55l-76 -54l-39 -222q-5 -30 -2 -43t17 -13q17 0 37 18.5t38 56.5l13 -6q-29 -75 -62.5 -108.5t-68.5 -33.5z" />
    <glyph glyph-name="uni0140" unicode="&#x140;" horiz-adv-x="258" 
d="M101 -10q-35 0 -48 27t-5 72l103 591l-87 34v6l173 30h3l-111 -631q-5 -30 -2 -43t17 -13q17 0 37 18.5t38 56.5l13 -6q-29 -75 -62.5 -108.5t-68.5 -33.5zM260 243q-23 0 -40 17t-17 40t17 40t40 17t40 -17t17 -40t-17 -40t-40 -17z" />
    <glyph glyph-name="uni1E37" unicode="&#x1e37;" horiz-adv-x="258" 
d="M101 -10q-35 0 -48 27t-5 72l103 591l-87 34v6l173 30h3l-111 -631q-5 -30 -2 -43t17 -13q17 0 37 18.5t38 56.5l13 -6q-29 -75 -62.5 -108.5t-68.5 -33.5zM67 -209q-23 0 -40 17t-17 40t17 40t40 17t40 -17t17 -40t-17 -40t-40 -17z" />
    <glyph glyph-name="uni1E3B" unicode="&#x1e3b;" horiz-adv-x="258" 
d="M101 -10q-35 0 -48 27t-5 72l103 591l-87 34v6l173 30h3l-111 -631q-5 -30 -2 -43t17 -13q17 0 37 18.5t38 56.5l13 -6q-29 -75 -62.5 -108.5t-68.5 -33.5zM-65 -171l8 44h253l-8 -44h-253z" />
    <glyph glyph-name="uni1E43" unicode="&#x1e43;" horiz-adv-x="773" 
d="M43 0l69 389l-78 35v6l142 30h3v-105h4q35 39 60 62t49 33t56 10q37 0 61 -28t26 -77h5q35 39 60 62t48.5 33t56.5 10q45 0 70 -40t13 -108l-35 -193q-5 -30 -2 -43t17 -13q17 0 37 18.5t38 56.5l13 -6q-29 -75 -62.5 -108.5t-68.5 -33.5t-48 27t-5 72l39 220
q6 35 -6.5 62.5t-52.5 27.5q-22 0 -43.5 -14.5t-41.5 -35t-36 -38.5l-56 -311h-76l55 309q6 35 -6.5 62.5t-52.5 27.5q-22 0 -44 -15t-42.5 -35.5t-36.5 -39.5l-53 -309h-76zM311 -209q-23 0 -40 17t-17 40t17 40t40 17t40 -17t17 -40t-17 -40t-40 -17z" />
    <glyph glyph-name="uni0144" unicode="&#x144;" horiz-adv-x="530" 
d="M43 0l69 389l-78 35v6l142 30h3v-105h4q35 39 62 62t52 33t58 10q49 0 75.5 -40t14.5 -108l-35 -193q-5 -30 -1.5 -43t16.5 -13q17 0 37 18.5t38 56.5l13 -6q-29 -75 -62.5 -108.5t-68.5 -33.5t-48 27t-5 72l39 220q5 35 -8.5 62.5t-57.5 27.5q-22 0 -45.5 -15
t-45.5 -35.5t-39 -39.5l-53 -309h-76zM295 530l106 177h78q-3 -15 -12 -29t-31 -34l-131 -114h-10z" />
    <glyph glyph-name="uni0148" unicode="&#x148;" horiz-adv-x="530" 
d="M43 0l69 389l-78 35v6l142 30h3v-105h4q35 39 62 62t52 33t58 10q49 0 75.5 -40t14.5 -108l-35 -193q-5 -30 -1.5 -43t16.5 -13q17 0 37 18.5t38 56.5l13 -6q-29 -75 -62.5 -108.5t-68.5 -33.5t-48 27t-5 72l39 220q5 35 -8.5 62.5t-57.5 27.5q-22 0 -45.5 -15
t-45.5 -35.5t-39 -39.5l-53 -309h-76zM287 530l-95 177h10l110 -102l150 102h10l-157 -177h-28z" />
    <glyph glyph-name="uni00F1" unicode="&#xf1;" horiz-adv-x="530" 
d="M43 0l69 389l-78 35v6l142 30h3v-105h4q35 39 62 62t52 33t58 10q49 0 75.5 -40t14.5 -108l-35 -193q-5 -30 -1.5 -43t16.5 -13q17 0 37 18.5t38 56.5l13 -6q-29 -75 -62.5 -108.5t-68.5 -33.5t-48 27t-5 72l39 220q5 35 -8.5 62.5t-57.5 27.5q-22 0 -45.5 -15
t-45.5 -35.5t-39 -39.5l-53 -309h-76zM160 556q27 56 45.5 82.5t33.5 34t33 7.5t31.5 -10t25 -23.5t24 -23.5t28.5 -10q17 0 32.5 11t41.5 56h16q-27 -56 -45.5 -82.5t-34 -34t-32.5 -7.5q-18 0 -31.5 10t-25 23.5t-24 23.5t-28.5 10q-17 0 -32.5 -11t-41.5 -56h-16z" />
    <glyph glyph-name="uni0146" unicode="&#x146;" horiz-adv-x="530" 
d="M43 0l69 389l-78 35v6l142 30h3v-105h4q35 39 62 62t52 33t58 10q49 0 75.5 -40t14.5 -108l-35 -193q-5 -30 -1.5 -43t16.5 -13q17 0 37 18.5t38 56.5l13 -6q-29 -75 -62.5 -108.5t-68.5 -33.5t-48 27t-5 72l39 220q5 35 -8.5 62.5t-57.5 27.5q-22 0 -45.5 -15
t-45.5 -35.5t-39 -39.5l-53 -309h-76zM158 -239q-8 0 -17.5 0.5t-17.5 2.5l3 11q7 -1 12 -1.5t11 -0.5q36 0 56.5 14t20.5 40q0 25 -20 35.5t-63 10.5l5 28q1 9 8 15t24 6q52 0 77 -21t25 -53q0 -44 -35 -65.5t-89 -21.5z" />
    <glyph glyph-name="uni1E45" unicode="&#x1e45;" horiz-adv-x="530" 
d="M43 0l69 389l-78 35v6l142 30h3v-105h4q35 39 62 62t52 33t58 10q49 0 75.5 -40t14.5 -108l-35 -193q-5 -30 -1.5 -43t16.5 -13q17 0 37 18.5t38 56.5l13 -6q-29 -75 -62.5 -108.5t-68.5 -33.5t-48 27t-5 72l39 220q5 35 -8.5 62.5t-57.5 27.5q-22 0 -45.5 -15
t-45.5 -35.5t-39 -39.5l-53 -309h-76zM314 561q-23 0 -40 17t-17 40t17 40t40 17t40 -17t17 -40t-17 -40t-40 -17z" />
    <glyph glyph-name="uni1E47" unicode="&#x1e47;" horiz-adv-x="530" 
d="M43 0l69 389l-78 35v6l142 30h3v-105h4q35 39 62 62t52 33t58 10q49 0 75.5 -40t14.5 -108l-35 -193q-5 -30 -1.5 -43t16.5 -13q17 0 37 18.5t38 56.5l13 -6q-29 -75 -62.5 -108.5t-68.5 -33.5t-48 27t-5 72l39 220q5 35 -8.5 62.5t-57.5 27.5q-22 0 -45.5 -15
t-45.5 -35.5t-39 -39.5l-53 -309h-76zM206 -209q-23 0 -40 17t-17 40t17 40t40 17t40 -17t17 -40t-17 -40t-40 -17z" />
    <glyph glyph-name="uni1E49" unicode="&#x1e49;" horiz-adv-x="530" 
d="M43 0l69 389l-78 35v6l142 30h3v-105h4q35 39 62 62t52 33t58 10q49 0 75.5 -40t14.5 -108l-35 -193q-5 -30 -1.5 -43t16.5 -13q17 0 37 18.5t38 56.5l13 -6q-29 -75 -62.5 -108.5t-68.5 -33.5t-48 27t-5 72l39 220q5 35 -8.5 62.5t-57.5 27.5q-22 0 -45.5 -15
t-45.5 -35.5t-39 -39.5l-53 -309h-76zM74 -171l8 44h253l-8 -44h-253z" />
    <glyph glyph-name="uni00F2" unicode="&#xf2;" horiz-adv-x="509" 
d="M220 -10q-87 0 -128.5 54t-41.5 140q0 47 17 95.5t49 89.5t76 66t97 25q87 0 128.5 -54t41.5 -140q0 -45 -16.5 -93.5t-48 -90t-75.5 -67t-99 -25.5zM231 28q43 0 75 33.5t49 89t17 121.5q0 74 -19.5 112.5t-72.5 38.5q-42 0 -74.5 -30.5t-50.5 -84.5t-18 -127
q0 -74 20 -113.5t74 -39.5zM296 530l-129 114q-19 16 -21 32t0 31h70l90 -177h-10z" />
    <glyph glyph-name="uni00F3" unicode="&#xf3;" horiz-adv-x="509" 
d="M220 -10q-87 0 -128.5 54t-41.5 140q0 47 17 95.5t49 89.5t76 66t97 25q87 0 128.5 -54t41.5 -140q0 -45 -16.5 -93.5t-48 -90t-75.5 -67t-99 -25.5zM231 28q43 0 75 33.5t49 89t17 121.5q0 74 -19.5 112.5t-72.5 38.5q-42 0 -74.5 -30.5t-50.5 -84.5t-18 -127
q0 -74 20 -113.5t74 -39.5zM297 530l106 177h78q-3 -15 -12 -29t-31 -34l-131 -114h-10z" />
    <glyph glyph-name="uni00F4" unicode="&#xf4;" horiz-adv-x="509" 
d="M220 -10q-87 0 -128.5 54t-41.5 140q0 47 17 95.5t49 89.5t76 66t97 25q87 0 128.5 -54t41.5 -140q0 -45 -16.5 -93.5t-48 -90t-75.5 -67t-99 -25.5zM231 28q43 0 75 33.5t49 89t17 121.5q0 74 -19.5 112.5t-72.5 38.5q-42 0 -74.5 -30.5t-50.5 -84.5t-18 -127
q0 -74 20 -113.5t74 -39.5zM160 530l158 177h28l94 -177h-10l-110 102l-150 -102h-10z" />
    <glyph glyph-name="uni00F5" unicode="&#xf5;" horiz-adv-x="509" 
d="M220 -10q-87 0 -128.5 54t-41.5 140q0 47 17 95.5t49 89.5t76 66t97 25q87 0 128.5 -54t41.5 -140q0 -45 -16.5 -93.5t-48 -90t-75.5 -67t-99 -25.5zM231 28q43 0 75 33.5t49 89t17 121.5q0 74 -19.5 112.5t-72.5 38.5q-42 0 -74.5 -30.5t-50.5 -84.5t-18 -127
q0 -74 20 -113.5t74 -39.5zM162 556q27 56 45.5 82.5t33.5 34t33 7.5t31.5 -10t25 -23.5t24 -23.5t28.5 -10q17 0 32.5 11t41.5 56h16q-27 -56 -45.5 -82.5t-34 -34t-32.5 -7.5q-18 0 -31.5 10t-25 23.5t-24 23.5t-28.5 10q-17 0 -32.5 -11t-41.5 -56h-16z" />
    <glyph glyph-name="uni00F6" unicode="&#xf6;" horiz-adv-x="509" 
d="M220 -10q-87 0 -128.5 54t-41.5 140q0 47 17 95.5t49 89.5t76 66t97 25q87 0 128.5 -54t41.5 -140q0 -45 -16.5 -93.5t-48 -90t-75.5 -67t-99 -25.5zM231 28q43 0 75 33.5t49 89t17 121.5q0 74 -19.5 112.5t-72.5 38.5q-42 0 -74.5 -30.5t-50.5 -84.5t-18 -127
q0 -74 20 -113.5t74 -39.5zM232 573q-19 0 -32 13t-13 32t13 32t32 13t32 -13t13 -32t-13 -32t-32 -13zM402 573q-19 0 -32 13t-13 32t13 32t32 13t32 -13t13 -32t-13 -32t-32 -13z" />
    <glyph glyph-name="uni014D" unicode="&#x14d;" horiz-adv-x="509" 
d="M220 -10q-87 0 -128.5 54t-41.5 140q0 47 17 95.5t49 89.5t76 66t97 25q87 0 128.5 -54t41.5 -140q0 -45 -16.5 -93.5t-48 -90t-75.5 -67t-99 -25.5zM231 28q43 0 75 33.5t49 89t17 121.5q0 74 -19.5 112.5t-72.5 38.5q-42 0 -74.5 -30.5t-50.5 -84.5t-18 -127
q0 -74 20 -113.5t74 -39.5zM187 595l8 44h253l-9 -44h-252z" />
    <glyph glyph-name="uni014F" unicode="&#x14f;" horiz-adv-x="509" 
d="M220 -10q-87 0 -128.5 54t-41.5 140q0 47 17 95.5t49 89.5t76 66t97 25q87 0 128.5 -54t41.5 -140q0 -45 -16.5 -93.5t-48 -90t-75.5 -67t-99 -25.5zM231 28q43 0 75 33.5t49 89t17 121.5q0 74 -19.5 112.5t-72.5 38.5q-42 0 -74.5 -30.5t-50.5 -84.5t-18 -127
q0 -74 20 -113.5t74 -39.5zM306 540q-64 0 -87.5 41.5t-26.5 125.5h10q8 -49 22.5 -72.5t35.5 -30.5t50 -7t53.5 6.5t48 30t48.5 73.5h10q-26 -84 -65.5 -125.5t-98.5 -41.5z" />
    <glyph glyph-name="uni0151" unicode="&#x151;" horiz-adv-x="509" 
d="M220 -10q-87 0 -128.5 54t-41.5 140q0 47 17 95.5t49 89.5t76 66t97 25q87 0 128.5 -54t41.5 -140q0 -45 -16.5 -93.5t-48 -90t-75.5 -67t-99 -25.5zM231 28q43 0 75 33.5t49 89t17 121.5q0 74 -19.5 112.5t-72.5 38.5q-42 0 -74.5 -30.5t-50.5 -84.5t-18 -127
q0 -74 20 -113.5t74 -39.5zM239 530l81 177h56q2 -15 -2 -30t-21 -33l-104 -114h-10zM349 530l98 177h56q2 -15 -1 -31t-21 -32l-123 -114h-9z" />
    <glyph glyph-name="uni1ECD" unicode="&#x1ecd;" horiz-adv-x="509" 
d="M220 -10q-87 0 -128.5 54t-41.5 140q0 47 17 95.5t49 89.5t76 66t97 25q87 0 128.5 -54t41.5 -140q0 -45 -16.5 -93.5t-48 -90t-75.5 -67t-99 -25.5zM231 28q43 0 75 33.5t49 89t17 121.5q0 74 -19.5 112.5t-72.5 38.5q-42 0 -74.5 -30.5t-50.5 -84.5t-18 -127
q0 -74 20 -113.5t74 -39.5zM195 -209q-23 0 -40 17t-17 40t17 40t40 17t40 -17t17 -40t-17 -40t-40 -17z" />
    <glyph glyph-name="uni01EB" unicode="&#x1eb;" horiz-adv-x="509" 
d="M201 -240q-37 0 -59 21.5t-22 59.5q0 35 22.5 71.5t63.5 77.5q-80 5 -118 58.5t-38 135.5q0 47 17 95.5t49 89.5t76 66t97 25q87 0 128.5 -54t41.5 -140q0 -44 -15.5 -90t-44.5 -86.5t-69.5 -67.5t-91.5 -31q-57 -74 -57 -131q0 -29 15 -42.5t41 -13.5q11 0 24 3.5
t26 12.5h3l-2 -13q-33 -47 -87 -47zM231 28q43 0 75 33.5t49 89t17 121.5q0 74 -19.5 112.5t-72.5 38.5q-42 0 -74.5 -30.5t-50.5 -84.5t-18 -127q0 -74 20 -113.5t74 -39.5z" />
    <glyph glyph-name="uni020D" unicode="&#x20d;" horiz-adv-x="509" 
d="M220 -10q-87 0 -128.5 54t-41.5 140q0 47 17 95.5t49 89.5t76 66t97 25q87 0 128.5 -54t41.5 -140q0 -45 -16.5 -93.5t-48 -90t-75.5 -67t-99 -25.5zM231 28q43 0 75 33.5t49 89t17 121.5q0 74 -19.5 112.5t-72.5 38.5q-42 0 -74.5 -30.5t-50.5 -84.5t-18 -127
q0 -74 20 -113.5t74 -39.5zM344 530l-95 119q-13 17 -15.5 29.5t0.5 28.5h55l65 -177h-10zM242 530l-116 119q-16 16 -18 30.5t1 27.5h55l88 -177h-10z" />
    <glyph glyph-name="uni020F" unicode="&#x20f;" horiz-adv-x="509" 
d="M220 -10q-87 0 -128.5 54t-41.5 140q0 47 17 95.5t49 89.5t76 66t97 25q87 0 128.5 -54t41.5 -140q0 -45 -16.5 -93.5t-48 -90t-75.5 -67t-99 -25.5zM231 28q43 0 75 33.5t49 89t17 121.5q0 74 -19.5 112.5t-72.5 38.5q-42 0 -74.5 -30.5t-50.5 -84.5t-18 -127
q0 -74 20 -113.5t74 -39.5zM163 540q26 84 65.5 125.5t98.5 41.5q64 0 87.5 -41.5t26.5 -125.5h-10q-8 49 -22.5 72.5t-35.5 30.5t-50 7t-53.5 -6.5t-48 -30t-48.5 -73.5h-10z" />
    <glyph glyph-name="uni022B" unicode="&#x22b;" horiz-adv-x="509" 
d="M220 -10q-87 0 -128.5 54t-41.5 140q0 47 17 95.5t49 89.5t76 66t97 25q87 0 128.5 -54t41.5 -140q0 -45 -16.5 -93.5t-48 -90t-75.5 -67t-99 -25.5zM231 28q43 0 75 33.5t49 89t17 121.5q0 74 -19.5 112.5t-72.5 38.5q-42 0 -74.5 -30.5t-50.5 -84.5t-18 -127
q0 -74 20 -113.5t74 -39.5zM232 573q-19 0 -32 13t-13 32t13 32t32 13t32 -13t13 -32t-13 -32t-32 -13zM402 573q-19 0 -32 13t-13 32t13 32t32 13t32 -13t13 -32t-13 -32t-32 -13zM219 767l8 44h253l-9 -44h-252z" />
    <glyph glyph-name="uni022D" unicode="&#x22d;" horiz-adv-x="509" 
d="M220 -10q-87 0 -128.5 54t-41.5 140q0 47 17 95.5t49 89.5t76 66t97 25q87 0 128.5 -54t41.5 -140q0 -45 -16.5 -93.5t-48 -90t-75.5 -67t-99 -25.5zM231 28q43 0 75 33.5t49 89t17 121.5q0 74 -19.5 112.5t-72.5 38.5q-42 0 -74.5 -30.5t-50.5 -84.5t-18 -127
q0 -74 20 -113.5t74 -39.5zM161 556q27 56 45.5 82.5t33.5 34t33 7.5t31.5 -10t25 -23.5t24 -23.5t28.5 -10q17 0 32.5 11t41.5 56h16q-27 -56 -45.5 -82.5t-34 -34t-32.5 -7.5q-18 0 -31.5 10t-25 23.5t-24 23.5t-28.5 10q-17 0 -32.5 -11t-41.5 -56h-16zM219 767l8 44h253
l-9 -44h-252z" />
    <glyph glyph-name="uni0231" unicode="&#x231;" horiz-adv-x="509" 
d="M220 -10q-87 0 -128.5 54t-41.5 140q0 47 17 95.5t49 89.5t76 66t97 25q87 0 128.5 -54t41.5 -140q0 -45 -16.5 -93.5t-48 -90t-75.5 -67t-99 -25.5zM231 28q43 0 75 33.5t49 89t17 121.5q0 74 -19.5 112.5t-72.5 38.5q-42 0 -74.5 -30.5t-50.5 -84.5t-18 -127
q0 -74 20 -113.5t74 -39.5zM316 561q-23 0 -40 17t-17 40t17 40t40 17t40 -17t17 -40t-17 -40t-40 -17zM209 767l8 44h253l-9 -44h-252z" />
    <glyph glyph-name="uni1ED1" unicode="&#x1ed1;" horiz-adv-x="509" 
d="M220 -10q-87 0 -128.5 54t-41.5 140q0 47 17 95.5t49 89.5t76 66t97 25q87 0 128.5 -54t41.5 -140q0 -45 -16.5 -93.5t-48 -90t-75.5 -67t-99 -25.5zM231 28q43 0 75 33.5t49 89t17 121.5q0 74 -19.5 112.5t-72.5 38.5q-42 0 -74.5 -30.5t-50.5 -84.5t-18 -127
q0 -74 20 -113.5t74 -39.5zM427 637l64 143h77q-3 -15 -11.5 -29.5t-29.5 -32.5l-92 -81h-8zM160 530l158 177h28l94 -177h-10l-110 102l-150 -102h-10z" />
    <glyph glyph-name="uni1ED9" unicode="&#x1ed9;" horiz-adv-x="509" 
d="M220 -10q-87 0 -128.5 54t-41.5 140q0 47 17 95.5t49 89.5t76 66t97 25q87 0 128.5 -54t41.5 -140q0 -45 -16.5 -93.5t-48 -90t-75.5 -67t-99 -25.5zM231 28q43 0 75 33.5t49 89t17 121.5q0 74 -19.5 112.5t-72.5 38.5q-42 0 -74.5 -30.5t-50.5 -84.5t-18 -127
q0 -74 20 -113.5t74 -39.5zM160 530l158 177h28l94 -177h-10l-110 102l-150 -102h-10zM195 -209q-23 0 -40 17t-17 40t17 40t40 17t40 -17t17 -40t-17 -40t-40 -17z" />
    <glyph glyph-name="uni1ED3" unicode="&#x1ed3;" horiz-adv-x="509" 
d="M220 -10q-87 0 -128.5 54t-41.5 140q0 47 17 95.5t49 89.5t76 66t97 25q87 0 128.5 -54t41.5 -140q0 -45 -16.5 -93.5t-48 -90t-75.5 -67t-99 -25.5zM231 28q43 0 75 33.5t49 89t17 121.5q0 74 -19.5 112.5t-72.5 38.5q-42 0 -74.5 -30.5t-50.5 -84.5t-18 -127
q0 -74 20 -113.5t74 -39.5zM192 637l-95 80q-18 16 -20.5 32t-0.5 31h67l59 -143h-10zM160 530l158 177h28l94 -177h-10l-110 102l-150 -102h-10z" />
    <glyph glyph-name="uni1ED5" unicode="&#x1ed5;" horiz-adv-x="509" 
d="M220 -10q-87 0 -128.5 54t-41.5 140q0 47 17 95.5t49 89.5t76 66t97 25q87 0 128.5 -54t41.5 -140q0 -45 -16.5 -93.5t-48 -90t-75.5 -67t-99 -25.5zM231 28q43 0 75 33.5t49 89t17 121.5q0 74 -19.5 112.5t-72.5 38.5q-42 0 -74.5 -30.5t-50.5 -84.5t-18 -127
q0 -74 20 -113.5t74 -39.5zM160 530l158 177h28l94 -177h-10l-110 102l-150 -102h-10zM296 734v1q38 12 57.5 27.5t19.5 42.5q0 17 -14.5 28.5t-49.5 18.5l18 49q52 -5 72.5 -27t20.5 -48q0 -74 -119 -98z" />
    <glyph glyph-name="uni1ED7" unicode="&#x1ed7;" horiz-adv-x="509" 
d="M220 -10q-87 0 -128.5 54t-41.5 140q0 47 17 95.5t49 89.5t76 66t97 25q87 0 128.5 -54t41.5 -140q0 -45 -16.5 -93.5t-48 -90t-75.5 -67t-99 -25.5zM231 28q43 0 75 33.5t49 89t17 121.5q0 74 -19.5 112.5t-72.5 38.5q-42 0 -74.5 -30.5t-50.5 -84.5t-18 -127
q0 -74 20 -113.5t74 -39.5zM160 530l158 177h28l94 -177h-10l-110 102l-150 -102h-10zM202 726q25 52 43 76t32.5 31t31.5 7q25 0 44.5 -15t36.5 -29.5t37 -14.5q17 0 31.5 9.5t38.5 49.5h16q-25 -52 -43 -76t-33 -31t-31 -7q-25 0 -44 15t-36 29.5t-37 14.5q-17 0 -32 -9.5
t-39 -49.5h-16z" />
    <glyph glyph-name="uni1ECF" unicode="&#x1ecf;" horiz-adv-x="509" 
d="M220 -10q-87 0 -128.5 54t-41.5 140q0 47 17 95.5t49 89.5t76 66t97 25q87 0 128.5 -54t41.5 -140q0 -45 -16.5 -93.5t-48 -90t-75.5 -67t-99 -25.5zM231 28q43 0 75 33.5t49 89t17 121.5q0 74 -19.5 112.5t-72.5 38.5q-42 0 -74.5 -30.5t-50.5 -84.5t-18 -127
q0 -74 20 -113.5t74 -39.5zM261 540v1q38 12 57.5 27.5t19.5 42.5q0 17 -14.5 28.5t-49.5 18.5l18 49q52 -5 72.5 -27t20.5 -48q0 -74 -119 -98z" />
    <glyph glyph-name="uni1E4D" unicode="&#x1e4d;" horiz-adv-x="509" 
d="M220 -10q-87 0 -128.5 54t-41.5 140q0 47 17 95.5t49 89.5t76 66t97 25q87 0 128.5 -54t41.5 -140q0 -45 -16.5 -93.5t-48 -90t-75.5 -67t-99 -25.5zM231 28q43 0 75 33.5t49 89t17 121.5q0 74 -19.5 112.5t-72.5 38.5q-42 0 -74.5 -30.5t-50.5 -84.5t-18 -127
q0 -74 20 -113.5t74 -39.5zM161 556q27 56 45.5 82.5t33.5 34t33 7.5t31.5 -10t25 -23.5t24 -23.5t28.5 -10q17 0 32.5 11t41.5 56h16q-27 -56 -45.5 -82.5t-34 -34t-32.5 -7.5q-18 0 -31.5 10t-25 23.5t-24 23.5t-28.5 10q-17 0 -32.5 -11t-41.5 -56h-16zM331 710l106 152
h78q-3 -15 -11 -30.5t-32 -32.5l-131 -89h-10z" />
    <glyph glyph-name="uni1E4F" unicode="&#x1e4f;" horiz-adv-x="509" 
d="M220 -10q-87 0 -128.5 54t-41.5 140q0 47 17 95.5t49 89.5t76 66t97 25q87 0 128.5 -54t41.5 -140q0 -45 -16.5 -93.5t-48 -90t-75.5 -67t-99 -25.5zM231 28q43 0 75 33.5t49 89t17 121.5q0 74 -19.5 112.5t-72.5 38.5q-42 0 -74.5 -30.5t-50.5 -84.5t-18 -127
q0 -74 20 -113.5t74 -39.5zM161 556q27 56 45.5 82.5t33.5 34t33 7.5t31.5 -10t25 -23.5t24 -23.5t28.5 -10q17 0 32.5 11t41.5 56h16q-27 -56 -45.5 -82.5t-34 -34t-32.5 -7.5q-18 0 -31.5 10t-25 23.5t-24 23.5t-28.5 10q-17 0 -32.5 -11t-41.5 -56h-16zM265 741
q-19 0 -32 13t-13 32t13 32t32 13t32 -13t13 -32t-13 -32t-32 -13zM435 741q-19 0 -32 13t-13 32t13 32t32 13t32 -13t13 -32t-13 -32t-32 -13z" />
    <glyph glyph-name="uni1E51" unicode="&#x1e51;" horiz-adv-x="509" 
d="M220 -10q-87 0 -128.5 54t-41.5 140q0 47 17 95.5t49 89.5t76 66t97 25q87 0 128.5 -54t41.5 -140q0 -45 -16.5 -93.5t-48 -90t-75.5 -67t-99 -25.5zM231 28q43 0 75 33.5t49 89t17 121.5q0 74 -19.5 112.5t-72.5 38.5q-42 0 -74.5 -30.5t-50.5 -84.5t-18 -127
q0 -74 20 -113.5t74 -39.5zM186 595l8 44h253l-9 -44h-252zM345 710l-129 89q-20 14 -21.5 31t0.5 32h70l90 -152h-10z" />
    <glyph glyph-name="uni1E53" unicode="&#x1e53;" horiz-adv-x="509" 
d="M220 -10q-87 0 -128.5 54t-41.5 140q0 47 17 95.5t49 89.5t76 66t97 25q87 0 128.5 -54t41.5 -140q0 -45 -16.5 -93.5t-48 -90t-75.5 -67t-99 -25.5zM231 28q43 0 75 33.5t49 89t17 121.5q0 74 -19.5 112.5t-72.5 38.5q-42 0 -74.5 -30.5t-50.5 -84.5t-18 -127
q0 -74 20 -113.5t74 -39.5zM186 595l8 44h253l-9 -44h-252zM332 710l106 152h78q-3 -15 -11 -30.5t-32 -32.5l-131 -89h-10z" />
    <glyph glyph-name="uni00F8" unicode="&#xf8;" horiz-adv-x="509" 
d="M12 -10l67 73q-29 48 -29 121q0 47 17 95.5t49 89.5t76 66t97 25q38 0 67 -10.5t49 -30.5l38 41h54l-67 -73q29 -48 29 -121q0 -45 -16.5 -93.5t-48 -90t-75.5 -67t-99 -25.5q-38 0 -67 10.5t-49 30.5l-38 -41h-54zM137 181q0 -29 3 -52l220 240q-10 27 -29.5 40.5
t-50.5 13.5q-42 0 -74.5 -30.5t-50.5 -84.5t-18 -127zM231 28q43 0 75 33.5t49 89t17 121.5q0 28 -2 49l-220 -239q21 -54 81 -54z" />
    <glyph glyph-name="uni01FF" unicode="&#x1ff;" horiz-adv-x="509" 
d="M12 -10l67 73q-29 48 -29 121q0 47 17 95.5t49 89.5t76 66t97 25q38 0 67 -10.5t49 -30.5l38 41h54l-67 -73q29 -48 29 -121q0 -45 -16.5 -93.5t-48 -90t-75.5 -67t-99 -25.5q-38 0 -67 10.5t-49 30.5l-38 -41h-54zM137 181q0 -29 3 -52l220 240q-10 27 -29.5 40.5
t-50.5 13.5q-42 0 -74.5 -30.5t-50.5 -84.5t-18 -127zM231 28q43 0 75 33.5t49 89t17 121.5q0 28 -2 49l-220 -239q21 -54 81 -54zM297 530l106 177h78q-3 -15 -12 -29t-31 -34l-131 -114h-10z" />
    <glyph glyph-name="uni01A1" unicode="&#x1a1;" horiz-adv-x="509" 
d="M220 -10q-87 0 -128.5 54t-41.5 140q0 47 17 95.5t49 89.5t76 66t97 25q49 0 84 -18q25 -9 46 -9q29 0 42.5 14t17.5 39l8 51l7 6h30q12 0 17.5 -2.5t5.5 -13.5q0 -28 -15 -53.5t-41.5 -42t-58.5 -16.5q-13 0 -24 2q26 -26 38.5 -65t12.5 -86q0 -45 -16.5 -93.5t-48 -90
t-75.5 -67t-99 -25.5zM231 28q43 0 75 33.5t49 89t17 121.5q0 74 -19.5 112.5t-72.5 38.5q-42 0 -74.5 -30.5t-50.5 -84.5t-18 -127q0 -74 20 -113.5t74 -39.5z" />
    <glyph glyph-name="uni1EDB" unicode="&#x1edb;" horiz-adv-x="509" 
d="M220 -10q-87 0 -128.5 54t-41.5 140q0 47 17 95.5t49 89.5t76 66t97 25q49 0 84 -18q25 -9 46 -9q29 0 42.5 14t17.5 39l8 51l7 6h30q12 0 17.5 -2.5t5.5 -13.5q0 -28 -15 -53.5t-41.5 -42t-58.5 -16.5q-13 0 -24 2q26 -26 38.5 -65t12.5 -86q0 -45 -16.5 -93.5t-48 -90
t-75.5 -67t-99 -25.5zM231 28q43 0 75 33.5t49 89t17 121.5q0 74 -19.5 112.5t-72.5 38.5q-42 0 -74.5 -30.5t-50.5 -84.5t-18 -127q0 -74 20 -113.5t74 -39.5zM297 530l106 177h78q-3 -15 -12 -29t-31 -34l-131 -114h-10z" />
    <glyph glyph-name="uni1EE3" unicode="&#x1ee3;" horiz-adv-x="509" 
d="M220 -10q-87 0 -128.5 54t-41.5 140q0 47 17 95.5t49 89.5t76 66t97 25q49 0 84 -18q25 -9 46 -9q29 0 42.5 14t17.5 39l8 51l7 6h30q12 0 17.5 -2.5t5.5 -13.5q0 -28 -15 -53.5t-41.5 -42t-58.5 -16.5q-13 0 -24 2q26 -26 38.5 -65t12.5 -86q0 -45 -16.5 -93.5t-48 -90
t-75.5 -67t-99 -25.5zM231 28q43 0 75 33.5t49 89t17 121.5q0 74 -19.5 112.5t-72.5 38.5q-42 0 -74.5 -30.5t-50.5 -84.5t-18 -127q0 -74 20 -113.5t74 -39.5zM195 -209q-23 0 -40 17t-17 40t17 40t40 17t40 -17t17 -40t-17 -40t-40 -17z" />
    <glyph glyph-name="uni1EDD" unicode="&#x1edd;" horiz-adv-x="509" 
d="M220 -10q-87 0 -128.5 54t-41.5 140q0 47 17 95.5t49 89.5t76 66t97 25q49 0 84 -18q25 -9 46 -9q29 0 42.5 14t17.5 39l8 51l7 6h30q12 0 17.5 -2.5t5.5 -13.5q0 -28 -15 -53.5t-41.5 -42t-58.5 -16.5q-13 0 -24 2q26 -26 38.5 -65t12.5 -86q0 -45 -16.5 -93.5t-48 -90
t-75.5 -67t-99 -25.5zM231 28q43 0 75 33.5t49 89t17 121.5q0 74 -19.5 112.5t-72.5 38.5q-42 0 -74.5 -30.5t-50.5 -84.5t-18 -127q0 -74 20 -113.5t74 -39.5zM296 530l-129 114q-19 16 -21 32t0 31h70l90 -177h-10z" />
    </font>
</defs>
</svg>
